<?xml version="1.0" encoding="utf-8"?>
<!-- Generator: Adobe Illustrator 20.1.0, SVG Export Plug-In . SVG Version: 6.00 Build 0)  -->
<svg version="1.1" id="Layer_1" xmlns="http://www.w3.org/2000/svg" xmlns:xlink="http://www.w3.org/1999/xlink" x="0px" y="0px"
	 viewBox="0 0 251.8 108" style="enable-background:new 0 0 251.8 108;" xml:space="preserve">
<style type="text/css">
	.st0{clip-path:url(#SVGID_2_);fill:#7E8083;}
	.st1{clip-path:url(#SVGID_2_);fill:#C4C6C8;}
	.st2{clip-path:url(#SVGID_2_);fill:#EBBE84;}
</style>
<g>
	<defs>
		<rect id="SVGID_1_" y="0" width="251.8" height="108"/>
	</defs>
	<clipPath id="SVGID_2_">
		<use xlink:href="#SVGID_1_"  style="overflow:visible;"/>
	</clipPath>
	<path class="st0" d="M16.2,99.8h-0.8c-0.1-0.6-0.3-1-0.5-1.3c-0.2-0.3-0.5-0.4-0.7-0.5c-0.3-0.1-0.7-0.1-1.1-0.1H11v3.8h1
		c0.5,0,0.8-0.1,1-0.2c0.2-0.2,0.3-0.5,0.3-1.1h0.7v3.6h-0.8c0-0.4-0.1-0.7-0.1-0.9c-0.1-0.2-0.2-0.3-0.4-0.4
		c-0.2-0.1-0.4-0.1-0.8-0.1h-1v3.2c0,0.4,0.1,0.8,0.3,1c0.2,0.2,0.6,0.3,1.2,0.3h0.2v0.7H7.2v-0.7c0.7,0,1.1-0.1,1.3-0.3
		s0.3-0.5,0.3-1V99c0-0.3,0-0.6-0.1-0.7c-0.1-0.2-0.2-0.3-0.4-0.4c-0.2-0.1-0.6-0.1-1-0.1V97h8.9L16.2,99.8z"/>
	<path class="st0" d="M34.8,102.4c0,1-0.2,1.9-0.7,2.8c-0.5,0.9-1.2,1.6-2.1,2.1c-0.9,0.5-2,0.8-3.3,0.8c-1,0-1.9-0.2-2.7-0.5
		c-0.8-0.3-1.4-0.8-1.9-1.3c-0.5-0.6-0.9-1.2-1.1-1.8c-0.2-0.7-0.4-1.3-0.4-2c0-1,0.2-1.9,0.7-2.7c0.5-0.9,1.1-1.6,2-2.1
		c0.9-0.5,2-0.8,3.3-0.8c1.2,0,2.1,0.2,3,0.6c0.8,0.4,1.4,0.9,1.9,1.4c0.5,0.6,0.8,1.2,1,1.8C34.7,101.2,34.8,101.8,34.8,102.4
		 M32.2,102.4c0-0.6-0.1-1.2-0.2-1.7c-0.1-0.5-0.3-1-0.5-1.5c-0.3-0.4-0.6-0.8-1.1-1c-0.5-0.3-1-0.4-1.7-0.4c-0.9,0-1.6,0.2-2.1,0.7
		c-0.5,0.5-0.9,1-1,1.7c-0.2,0.7-0.3,1.4-0.3,2.2c0,0.4,0,0.9,0.1,1.4s0.2,1,0.4,1.5c0.2,0.5,0.6,0.9,1.1,1.3
		c0.5,0.3,1.1,0.5,1.9,0.5c0.8,0,1.4-0.2,1.9-0.5c0.5-0.4,0.8-0.8,1.1-1.3c0.2-0.5,0.4-1,0.4-1.5C32.2,103.2,32.2,102.8,32.2,102.4"
		/>
	<path class="st0" d="M53.1,107.8h-2.9c-0.1-0.1-0.2-0.3-0.4-0.5c-0.2-0.2-0.3-0.5-0.5-0.8c-0.2-0.3-0.3-0.6-0.5-0.7l-0.7-1.2
		c-0.3-0.5-0.6-0.9-0.7-1.1c-0.2-0.2-0.4-0.3-0.6-0.4c-0.2-0.1-0.6-0.1-1.1-0.1h-0.4v2.8c0,0.3,0,0.5,0.1,0.7s0.2,0.3,0.5,0.4
		c0.2,0.1,0.6,0.1,1,0.1v0.7h-5.4v-0.7c0.7,0,1.1-0.1,1.3-0.3c0.2-0.2,0.3-0.5,0.3-1V99c0-0.5-0.1-0.8-0.3-1
		c-0.2-0.2-0.6-0.3-1.3-0.3v-0.8l2.5-0.1c0.2,0,0.4,0,0.7,0c0.2,0,0.5,0,0.7,0c0.2,0,0.4,0,0.8,0c0.5,0,1,0,1.5,0.1
		c0.5,0,0.8,0.1,1.1,0.2c0.4,0.1,0.8,0.3,1.1,0.5c0.4,0.2,0.7,0.5,0.9,0.9c0.2,0.4,0.3,0.8,0.3,1.3c0,0.4-0.1,0.7-0.2,1.1
		c-0.2,0.3-0.4,0.6-0.8,0.9c-0.3,0.3-0.8,0.5-1.4,0.6c0.4,0.2,0.7,0.5,1,0.9c0.3,0.3,0.7,1,1.3,1.9c0.3,0.5,0.6,0.9,0.8,1.2
		c0.2,0.3,0.4,0.4,0.6,0.5c0.2,0.1,0.4,0.2,0.7,0.2V107.8z M48.6,99.9c0-0.9-0.3-1.4-0.8-1.7c-0.5-0.3-1.2-0.4-2.1-0.4
		c-0.1,0-0.2,0-0.3,0c-0.1,0-0.1,0-0.2,0v4.4h0.5c0.8,0,1.5-0.1,2-0.4C48.3,101.4,48.6,100.8,48.6,99.9"/>
	<path class="st0" d="M79.1,107.7h-0.8c-0.1-0.5-0.3-0.9-0.6-1.2c-0.4,0.4-0.9,0.8-1.4,1.1c-0.5,0.3-1.2,0.5-2.1,0.5
		c-1,0-1.9-0.2-2.7-0.7c-0.8-0.5-1.5-1.1-2-2c-0.5-0.8-0.7-1.8-0.7-2.9c0-0.8,0.1-1.5,0.4-2.2c0.3-0.7,0.7-1.3,1.2-1.8
		c0.5-0.5,1.1-0.9,1.8-1.2c0.7-0.3,1.4-0.4,2.3-0.4c1.4,0,2.5,0.4,3.4,1.3c0.1-0.2,0.2-0.6,0.3-1h0.7l0.1,4h-0.8
		c-0.1-0.7-0.4-1.3-0.8-1.8c-0.4-0.5-0.8-0.9-1.3-1.2c-0.5-0.3-1-0.4-1.6-0.4c-0.6,0-1.2,0.2-1.6,0.5c-0.5,0.3-0.9,0.8-1.1,1.5
		c-0.3,0.7-0.4,1.5-0.4,2.6c0,1,0.1,1.8,0.3,2.5c0.2,0.7,0.5,1.2,0.9,1.5c0.3,0.3,0.7,0.6,1,0.7c0.3,0.1,0.7,0.2,1,0.2
		c0.7,0,1.2-0.2,1.8-0.5c0.5-0.4,1-0.8,1.3-1.3c0.3-0.5,0.6-1.1,0.7-1.6h0.8V107.7z"/>
	<path class="st0" d="M91.3,107.8h-5.5v-0.7c0.5,0,0.8,0,1-0.1c0.2-0.1,0.4-0.2,0.5-0.4c0.1-0.2,0.1-0.4,0.1-0.8V99
		c0-0.5-0.1-0.8-0.3-1c-0.2-0.2-0.6-0.3-1.3-0.3V97h5.5v0.7c-0.5,0-0.8,0-1,0.1c-0.2,0.1-0.4,0.2-0.5,0.4c-0.1,0.2-0.1,0.4-0.1,0.7
		v6.8c0,0.3,0,0.6,0.1,0.7c0.1,0.2,0.2,0.3,0.4,0.4c0.2,0.1,0.6,0.1,1.1,0.1V107.8z"/>
	<path class="st0" d="M108.2,100.1h-0.8c-0.1-0.7-0.2-1.2-0.4-1.5c-0.2-0.3-0.5-0.5-0.7-0.6c-0.3-0.1-0.6-0.1-0.9-0.1H104v7.9
		c0,0.3,0,0.6,0.1,0.7c0.1,0.2,0.2,0.3,0.4,0.4c0.2,0.1,0.6,0.1,1,0.1v0.7h-5.4v-0.7c0.7,0,1.1-0.1,1.3-0.3c0.2-0.2,0.3-0.5,0.3-1
		v-7.9h-1.2c-0.5,0-0.8,0-1.1,0.1c-0.3,0.1-0.6,0.3-0.8,0.6c-0.2,0.3-0.4,0.8-0.4,1.5h-0.8V97h10.7V100.1z"/>
	<path class="st0" d="M125.5,97.7c-0.3,0-0.5,0.1-0.7,0.2s-0.4,0.3-0.6,0.6c-0.2,0.3-0.5,0.7-0.9,1.2l-2.3,3.5v2.6
		c0,0.3,0,0.5,0.1,0.7c0.1,0.2,0.2,0.3,0.4,0.4c0.2,0.1,0.6,0.2,1.1,0.2v0.7h-5.5v-0.7c0.5,0,0.8,0,1-0.1c0.2-0.1,0.4-0.2,0.5-0.4
		c0.1-0.2,0.1-0.4,0.1-0.8v-2.4l-2.7-4.5c0,0,0-0.1-0.1-0.1c0,0,0-0.1-0.1-0.1c-0.2-0.4-0.4-0.6-0.6-0.8c-0.2-0.1-0.5-0.2-0.8-0.2
		V97h5.1v0.7c-0.3,0-0.5,0-0.6,0c-0.1,0-0.3,0.1-0.4,0.1c-0.1,0.1-0.1,0.2-0.1,0.3c0,0.1,0,0.2,0.1,0.4c0.1,0.1,0.2,0.4,0.4,0.8
		l1.7,2.9l1.6-2.5c0.3-0.6,0.5-1,0.5-1.2c0-0.3-0.1-0.5-0.3-0.6c-0.2-0.1-0.5-0.1-0.9-0.1V97h3.9V97.7z"/>
	<path class="st0" d="M151.6,107.7h-0.8c-0.1-0.5-0.3-0.9-0.6-1.2c-0.4,0.4-0.9,0.8-1.4,1.1c-0.5,0.3-1.2,0.5-2.1,0.5
		c-1,0-1.9-0.2-2.7-0.7c-0.8-0.5-1.5-1.1-2-2c-0.5-0.8-0.7-1.8-0.7-2.9c0-0.8,0.1-1.5,0.4-2.2c0.3-0.7,0.7-1.3,1.2-1.8
		c0.5-0.5,1.1-0.9,1.8-1.2c0.7-0.3,1.4-0.4,2.3-0.4c1.4,0,2.5,0.4,3.4,1.3c0.1-0.2,0.2-0.6,0.3-1h0.7l0.1,4h-0.8
		c-0.1-0.7-0.4-1.3-0.8-1.8c-0.4-0.5-0.8-0.9-1.3-1.2c-0.5-0.3-1-0.4-1.6-0.4c-0.6,0-1.2,0.2-1.6,0.5c-0.5,0.3-0.9,0.8-1.1,1.5
		c-0.3,0.7-0.4,1.5-0.4,2.6c0,1,0.1,1.8,0.3,2.5c0.2,0.7,0.5,1.2,0.9,1.5c0.3,0.3,0.7,0.6,1,0.7c0.3,0.1,0.7,0.2,1,0.2
		c0.7,0,1.2-0.2,1.8-0.5c0.5-0.4,1-0.8,1.3-1.3c0.3-0.5,0.6-1.1,0.7-1.6h0.8V107.7z"/>
	<path class="st0" d="M171,102.4c0,1-0.2,1.9-0.7,2.8c-0.5,0.9-1.2,1.6-2.1,2.1c-0.9,0.5-2,0.8-3.3,0.8c-1,0-1.9-0.2-2.7-0.5
		c-0.8-0.3-1.4-0.8-1.9-1.3c-0.5-0.6-0.9-1.2-1.1-1.8c-0.2-0.7-0.4-1.3-0.4-2c0-1,0.2-1.9,0.7-2.7c0.5-0.9,1.1-1.6,2-2.1
		c0.9-0.5,2-0.8,3.3-0.8c1.2,0,2.1,0.2,2.9,0.6c0.8,0.4,1.4,0.9,1.9,1.4c0.5,0.6,0.8,1.2,1,1.8C170.9,101.2,171,101.8,171,102.4
		 M168.4,102.4c0-0.6-0.1-1.2-0.2-1.7c-0.1-0.5-0.3-1-0.5-1.5c-0.3-0.4-0.6-0.8-1.1-1c-0.5-0.3-1-0.4-1.7-0.4
		c-0.9,0-1.6,0.2-2.1,0.7c-0.5,0.5-0.9,1-1,1.7c-0.2,0.7-0.3,1.4-0.3,2.2c0,0.4,0,0.9,0.1,1.4c0.1,0.5,0.2,1,0.4,1.5
		c0.2,0.5,0.6,0.9,1.1,1.3c0.5,0.3,1.1,0.5,1.9,0.5c0.8,0,1.4-0.2,1.9-0.5c0.5-0.4,0.8-0.8,1.1-1.3c0.2-0.5,0.4-1,0.4-1.5
		C168.3,103.2,168.4,102.8,168.4,102.4"/>
	<path class="st0" d="M189.1,97.7c-0.5,0-0.8,0.1-1,0.2c-0.2,0.1-0.3,0.3-0.4,0.5c0,0.2-0.1,0.5-0.1,1v4c0,0.7,0,1.3-0.1,1.7
		c-0.1,0.4-0.2,0.7-0.4,1.1c-0.4,0.7-1,1.2-1.7,1.5c-0.7,0.3-1.4,0.4-2.1,0.4c-0.5,0-1-0.1-1.5-0.2c-0.5-0.1-1-0.3-1.5-0.6
		c-0.5-0.3-0.8-0.7-1-1.2c-0.1-0.3-0.2-0.5-0.3-0.8c-0.1-0.3-0.1-0.5-0.1-0.8c0-0.2,0-0.5,0-0.9l0-4.5c0-0.5-0.1-0.8-0.3-1
		c-0.2-0.2-0.6-0.3-1.3-0.3V97h5.5v0.7c-0.5,0-0.8,0-1,0.1c-0.2,0.1-0.4,0.2-0.4,0.4c-0.1,0.2-0.1,0.4-0.1,0.7v4.5
		c0,0.5,0,0.9,0.1,1.2c0,0.3,0.1,0.7,0.2,0.9c0.2,0.4,0.5,0.8,0.9,1c0.4,0.3,0.9,0.4,1.4,0.4c0.6,0,1.1-0.1,1.6-0.4
		c0.5-0.3,0.8-0.6,1-1.1c0.2-0.3,0.2-0.7,0.3-1.1c0-0.4,0.1-0.8,0.1-1.3v-3.9c0-0.4,0-0.6,0-0.8c0-0.2-0.1-0.3-0.2-0.5
		c-0.1-0.1-0.3-0.2-0.5-0.3c-0.2-0.1-0.5-0.1-0.9-0.1V97h4V97.7z"/>
	<path class="st0" d="M207,97.7c-0.5,0-0.9,0.1-1.1,0.2c-0.2,0.1-0.4,0.3-0.4,0.5c-0.1,0.2-0.1,0.5-0.1,1v8.6h-0.7l-7.1-8.4v6
		c0,0.5,0,0.8,0.1,1c0.1,0.2,0.2,0.4,0.4,0.5c0.2,0.1,0.6,0.2,1.1,0.2v0.7h-4v-0.7c0.5,0,0.8-0.1,1-0.2c0.2-0.1,0.3-0.3,0.4-0.5
		c0.1-0.2,0.1-0.5,0.1-1v-5.5c0-0.4,0-0.8,0-1c0-0.2-0.1-0.4-0.2-0.6c-0.1-0.2-0.2-0.3-0.4-0.4c-0.2-0.1-0.5-0.2-0.9-0.2V97h3.2
		l6.2,7.3v-4.9c0-0.4,0-0.7-0.1-0.9c-0.1-0.2-0.2-0.4-0.4-0.5c-0.2-0.1-0.6-0.2-1.1-0.2V97h4V97.7z"/>
	<path class="st0" d="M223.7,107.7H223c-0.1-0.5-0.3-0.9-0.6-1.2c-0.4,0.4-0.9,0.8-1.4,1.1c-0.5,0.3-1.2,0.5-2.1,0.5
		c-1,0-1.9-0.2-2.7-0.7c-0.8-0.5-1.5-1.1-2-2c-0.5-0.8-0.7-1.8-0.7-2.9c0-0.8,0.1-1.5,0.4-2.2c0.3-0.7,0.7-1.3,1.2-1.8
		c0.5-0.5,1.1-0.9,1.8-1.2c0.7-0.3,1.4-0.4,2.3-0.4c1.4,0,2.5,0.4,3.4,1.3c0.1-0.2,0.2-0.6,0.3-1h0.7l0.1,4h-0.8
		c-0.1-0.7-0.4-1.3-0.8-1.8c-0.4-0.5-0.8-0.9-1.3-1.2c-0.5-0.3-1-0.4-1.6-0.4c-0.6,0-1.2,0.2-1.6,0.5c-0.5,0.3-0.9,0.8-1.1,1.5
		c-0.3,0.7-0.4,1.5-0.4,2.6c0,1,0.1,1.8,0.3,2.5c0.2,0.7,0.5,1.2,0.9,1.5c0.3,0.3,0.7,0.6,1,0.7c0.3,0.1,0.7,0.2,1,0.2
		c0.7,0,1.2-0.2,1.8-0.5c0.5-0.4,1-0.8,1.3-1.3c0.3-0.5,0.6-1.1,0.7-1.6h0.8V107.7z"/>
	<path class="st0" d="M236,107.8h-5.5v-0.7c0.5,0,0.8,0,1-0.1c0.2-0.1,0.4-0.2,0.5-0.4c0.1-0.2,0.1-0.4,0.1-0.8V99
		c0-0.5-0.1-0.8-0.3-1c-0.2-0.2-0.6-0.3-1.3-0.3V97h5.5v0.7c-0.5,0-0.8,0-1,0.1c-0.2,0.1-0.4,0.2-0.5,0.4c-0.1,0.2-0.1,0.4-0.1,0.7
		v6.8c0,0.3,0,0.6,0.1,0.7c0.1,0.2,0.2,0.3,0.4,0.4c0.2,0.1,0.6,0.1,1.1,0.1V107.8z"/>
	<path class="st0" d="M251.8,104.2l-0.1,3.6h-9.7v-0.7c0.7,0,1.1-0.1,1.3-0.3c0.2-0.2,0.3-0.5,0.3-1V99c0-0.3,0-0.6-0.1-0.7
		c-0.1-0.2-0.2-0.3-0.4-0.4c-0.2-0.1-0.6-0.1-1-0.1V97h5.5v0.7c-0.5,0-0.8,0-1,0.1c-0.2,0.1-0.4,0.2-0.5,0.4
		c-0.1,0.2-0.1,0.4-0.1,0.7v6.2c0,0.5,0,0.8,0.1,1.1c0,0.2,0.2,0.4,0.4,0.5c0.2,0.1,0.6,0.2,1,0.2c0.6,0,1.1,0,1.6-0.1
		c0.5-0.1,0.9-0.3,1.3-0.7c0.4-0.4,0.6-1,0.7-1.9H251.8z"/>
	<path class="st1" d="M112.2,45.1l10.6-3.1c0.1-0.2,0.2-0.5,0.3-0.8l3.8-10.1l-3.2-0.8l-4.8-2.7l-7.4-3.6l-6.8-6.4l-4.7-2.2l-2.9-3
		L94.1,8L92,5.3c0,0-0.4-1.8-1.8-1.8c-1.4,0-3.1,0.8-3.1,0.8s-0.7-1.4-1.5-1.4c-0.8,0-2.4,1-2.4,1s-1.1-1-1.8-1S76,6.6,76,6.6
		l-4.3,4.1c0,0-11.7,4.1-13.4,4.8l30.3,21.7L112.2,45.1z"/>
	<polygon class="st0" points="55.3,58.1 55.3,58.2 55.4,58.1 	"/>
	<path class="st0" d="M3.8,45.3c2.9-5,6.9-9.1,11.9-11.9c5-2.9,10.5-4.4,16.4-4.4c4.9,0,9.5,1.1,13.8,3.4l0.3-1.8h12.7l0.6,26.2
		l9.9-3.2c3.2-1.8,6.6-2.9,10.4-3.4l0.3-0.1l0.2,0c1-0.1,2.1-0.2,3.1-0.2c4.6,0,8.7,0.9,12.3,2.7l5,0.8l11.2-2.3l4.8-4l3.3-2.8
		l2.5-2.1c0.2-0.4,0.3-0.8,0.5-1.3l0.2-0.5l-15.7-2.6l-8.8-4.7c0,0-4.7-3-7.1-4.7c-2.5-1.6-5.5-3-7.1-4c-1.6-0.9-9.1-4.4-9.1-4.4
		l-8.8-5.1l-3.3-3c0,0-1.9-4.4-2.5-5.8c-0.6-1.4-3.6-4.2-5.5-5.4C53.4-0.2,49.6,0,49.6,0h-4.1l-5.2,4.2l-7.4,8.2
		c0,0-3.8,5.4-4.7,6.5C27.3,20.1,0,29.8,0,50c0.6-0.2,1.2-0.5,1.8-0.7C2.4,47.9,3,46.6,3.8,45.3"/>
	<path class="st2" d="M247.1,78.2L246,89h-31.3v-3l19-26.1H225c-1.1,0-2.1,0.3-2.9,1c-0.8,0.7-1.6,2.3-2.3,4.8h-3.8l0.7-9.5h29.8
		v3.2l-18.8,25.8h7.6c1.2,0,2.2-0.1,3-0.4c0.8-0.2,1.6-0.9,2.4-1.9c0.8-1,1.7-2.6,2.5-4.9H247.1z"/>
	<path class="st2" d="M63.1,67.6c-1.5,0.2-2.7,0.4-3.5,0.7c-0.8,0.3-1.3,0.9-1.6,1.7c-0.3,0.8-0.4,2.1-0.4,3.8v12.7
		c-3.9,0-8,0.5-12.5,1.5c-3.2,0.7-5.7,1.2-7.3,1.5C36,89.9,34.1,90,31.9,90c-5.9,0-10.9-1.4-15.1-4.1c-4.2-2.7-7.3-6.3-9.4-10.6
		C5.3,71,4.3,66.5,4.3,62c0-5.2,1.2-10,3.7-14.3c2.5-4.3,5.8-7.7,10.1-10.1c4.2-2.5,8.9-3.7,13.9-3.7c6.1,0,11.7,2.1,16.7,6.4
		c0.6-1.1,1.1-2.7,1.5-4.7h3.9l0.4,17.7h-3.7c-0.6-2.7-1.6-5.2-3.2-7.4c-1.5-2.2-3.5-4-5.8-5.3c-2.3-1.3-4.8-2-7.6-2
		c-2,0-4,0.4-6,1.1c-1.9,0.7-3.8,1.9-5.5,3.7c-1.7,1.7-3.1,4.1-4.1,7.1c-1,3-1.5,6.7-1.5,11.1c0,3.8,0.4,7.4,1.2,10.9
		c0.8,3.5,2.4,6.5,4.9,9c2.5,2.5,5.9,3.8,10.4,3.8c3.5,0,6.2-0.6,8-1.7c1.8-1.1,3-2.5,3.5-4.1c0.5-1.6,0.8-3.4,0.8-5.4
		c0-1.9-0.1-3.2-0.4-4.1c-0.3-0.9-0.9-1.5-2-1.9c-1-0.4-2.6-0.6-4.7-0.6V64h24.1V67.6z"/>
	<path class="st2" d="M102.8,72.5c0,3.6-0.9,6.8-2.6,9.5c-1.8,2.7-4.1,4.7-7.1,6.2c-3,1.4-6.3,2.1-9.8,2.1c-3.4,0-6.5-0.7-9.5-2
		c-3-1.3-5.4-3.3-7.4-6c-1.9-2.7-2.9-5.9-2.9-9.8c0-5.8,2-10.2,5.9-13.2c3.9-3,8.6-4.5,14.1-4.5c4,0,7.5,0.8,10.5,2.4
		c2.9,1.6,5.1,3.7,6.7,6.4C102.1,66.5,102.8,69.4,102.8,72.5 M91.8,72.3c0-4.5-0.6-7.9-1.8-10.2c-1.2-2.3-3.5-3.4-7-3.4
		c-2.2,0-3.9,0.5-5.2,1.5c-1.2,1-2.1,2.5-2.6,4.6c-0.5,2.1-0.7,4.8-0.7,8.1c0,4.1,0.5,7.4,1.6,9.9c1.1,2.5,3.5,3.8,7.2,3.8
		c2.4,0,4.3-0.7,5.5-2.1c1.3-1.4,2.1-3.1,2.4-5.2C91.6,77.3,91.8,74.9,91.8,72.3"/>
	<path class="st2" d="M178.4,89h-22.2v-3.7c1.8,0,3.1-0.2,3.9-0.6c0.8-0.4,1.2-1,1.4-1.7c0.2-0.7,0.3-1.9,0.3-3.5V67.4
		c0-1.8-0.4-3.4-1.2-4.9c-0.8-1.5-2.6-2.2-5.4-2.2c-2,0-3.7,0.5-5.2,1.5c-1.5,1-2.6,2.4-3.4,4.1c-0.8,1.7-1.2,3.7-1.2,5.9v7.8
		c0,1.7,0.1,2.8,0.3,3.6c0.2,0.7,0.7,1.3,1.5,1.7c0.8,0.4,2.2,0.6,4,0.6V89h-21.7v-3.7c1.8,0,3.1-0.2,3.9-0.6c0.8-0.4,1.3-1,1.4-1.7
		c0.2-0.7,0.3-1.9,0.3-3.5V66.9c0-2.8-0.7-4.6-2.2-5.4c-1.5-0.8-2.8-1.2-4.1-1.2c-1.7,0-3.4,0.4-5,1.2c-1.6,0.8-2.8,1.9-3.6,3.2
		c-0.6,1-1,1.9-1.1,2.8c-0.2,0.9-0.3,2.1-0.3,3.5v8.4c0,1.7,0.1,2.8,0.3,3.6c0.2,0.7,0.7,1.3,1.6,1.7c0.9,0.4,2.2,0.6,4,0.6V89H103
		v-3.7c1.8,0,3.1-0.2,3.9-0.6c0.8-0.4,1.3-1,1.5-1.7c0.2-0.7,0.3-1.9,0.3-3.6V65.8c0-2.5-1.6-3.8-4.8-3.8h-2v-3.7l16.9-3.4
		c0.2,1.4,0.3,3.4,0.3,6.1c1.9-1.9,3.9-3.4,6-4.5c2.1-1.1,4.6-1.6,7.3-1.6c2.6,0,5.1,0.5,7.4,1.5c2.4,1,4.2,2.9,5.4,5.6
		c2.4-2.9,4.8-4.8,7-5.7c2.2-0.9,4.5-1.4,6.9-1.4c4.2,0,7.5,1,9.8,3c2.3,2,3.4,5.1,3.4,9.2v12.3c0,1.5,0.1,2.6,0.2,3.4
		c0.1,0.8,0.6,1.4,1.3,1.8c0.7,0.4,1.8,0.7,3.4,0.7h1.4V89z"/>
	<path class="st2" d="M212.8,71.4h-24.6c0,0.5,0.1,1.6,0.2,3.2c0.1,1.7,0.5,3.3,1.1,5.1c0.6,1.7,1.7,3.2,3.2,4.4
		c1.5,1.2,3.6,1.8,6.2,1.8c1.4,0,3.1-0.4,5.1-1.1c2-0.7,3.7-2.1,5.2-4.2l3.1,2.1c-3.1,5-8.1,7.6-15,7.6c-3.1,0-5.9-0.4-8.4-1.3
		s-4.7-2.1-6.4-3.7c-1.8-1.6-3.1-3.4-4-5.6c-0.9-2.1-1.4-4.4-1.4-6.9c0-3.2,0.8-6.2,2.3-9c1.6-2.7,3.8-4.9,6.7-6.6
		c2.9-1.6,6.2-2.4,9.9-2.4c3.6,0,6.7,0.8,9.2,2.4c2.5,1.6,4.4,3.6,5.6,6.1C212.2,65.9,212.8,68.6,212.8,71.4 M202.9,67.7
		c0-6.1-2.4-9.1-7.2-9.1c-2.3,0-4.1,0.8-5.3,2.5c-1.2,1.7-1.9,3.9-2.1,6.6H202.9z"/>
	<path class="st1" d="M197.8,34.7c0-1.1-0.4-2-1.2-2.7c-0.8-0.7-1.8-1.1-3.2-1.1c-1,0-1.9,0.2-2.8,0.7c-0.9,0.5-1.8,1.1-2.5,1.9
		c-0.7,0.8-1.3,1.7-1.8,2.6c-0.2-2.7-0.4-4.5-0.7-5.3l-9.5,2.1v2.2c1.3,0,2.2,0.1,2.7,0.2c0.6,0.2,1,0.5,1.2,0.9
		c0.2,0.5,0.3,1.3,0.3,2.3v7.1c0,1.3-0.2,2.3-0.5,2.8c-0.2,0.3-0.6,0.5-1.3,0.7c0.4-0.8,0.6-1.7,0.6-2.8h-1.8c0,0.6-0.2,1.1-0.5,1.6
		c-0.3,0.4-0.7,0.7-1.1,0.7c-0.5,0-0.8-0.1-1-0.4c-0.2-0.2-0.4-0.6-0.4-1c0-0.5-0.1-1.2-0.1-2.2v-7.7c0-2-0.7-3.6-2-4.8
		c-1.3-1.2-3.8-1.8-7.4-1.8c-3.4,0-5.9,0.6-7.6,1.7c-1.6,1.1-2.5,2.4-2.5,4c0,0.8,0.3,1.3,0.8,1.7c0.5,0.4,1.1,0.6,1.8,0.6
		c1.1,0,1.8-0.2,2.2-0.7c0.3-0.5,0.6-1.1,0.7-1.8c0.2-1.1,0.5-1.8,1.1-2.4c0.6-0.5,1.5-0.8,2.7-0.8c1.5,0,2.5,0.3,3,1
		c0.5,0.7,0.8,1.6,0.8,2.7v1.4c-2.4,0.6-4.4,1.2-6,1.8c-1.6,0.6-3,1.2-4.2,1.9c-1.2,0.7-2,1.6-2.6,2.5c-0.6,0.9-0.9,2-0.9,3.1
		c0,0.7,0.1,1.3,0.4,1.8c-0.8,0-1.5-0.2-2-0.5c-0.6-0.3-1.1-0.8-1.4-1.5c-0.3-0.6-0.9-1.9-1.6-3.7l-10.1-25.8h-2.3l-9.5,25
		c-0.7,1.7-1.3,3.1-1.9,4c-0.6,1-1.2,1.6-1.8,1.9c-0.6,0.3-1.4,0.5-2.3,0.5v2.2h11.4v-2.2c-1,0-1.9-0.1-2.7-0.4
		c-0.8-0.3-1.1-0.9-1.1-1.9c0-0.5,0.2-1.4,0.7-2.6l0.8-2.2h10.7l1.6,3.9c0.2,0.5,0.3,1,0.3,1.5c0,0.7-0.3,1.1-0.9,1.3
		c-0.6,0.2-1.6,0.3-2.9,0.3v2.2h15.6v-1.5c0.2,0.3,0.5,0.5,0.8,0.7c1.1,0.9,2.6,1.3,4.3,1.3c2.8,0,5.5-1.1,8.2-3.3
		c0.2,0.9,0.7,1.7,1.6,2.3c0.9,0.6,2.1,1,3.4,1c1,0,1.9-0.2,2.7-0.6h15v-2.2H190c-1.5,0-2.4-0.3-2.8-0.8c-0.3-0.5-0.5-1.4-0.5-2.8
		v-4.3c0-1.5,0.4-2.9,1.1-4.3c0.7-1.4,1.7-2.1,3-2.1c0.4,0,0.7,0.1,0.9,0.3c0.2,0.2,0.5,0.5,0.8,0.9c0.7,0.9,1.5,1.4,2.4,1.4
		c0.8,0,1.5-0.3,2-0.8C197.5,36.4,197.8,35.6,197.8,34.7 M131.8,40l4.3-11.6l4.6,11.6H131.8z M168.1,46.7c-0.8,0.6-1.5,1.1-2.2,1.5
		c-0.7,0.4-1.5,0.6-2.4,0.6c-0.8,0-1.5-0.2-1.9-0.7c-0.5-0.5-0.7-1.1-0.7-1.8c0-0.9,0.4-1.8,1.3-2.7c0.8-0.9,2.8-1.9,5.9-2.9V46.7z"
		/>
	<path class="st1" d="M218.9,36.2c-0.9-1.6-2.3-3-4.1-3.9c-1.8-1-3.9-1.5-6.4-1.5c-3.3,0-6.2,0.9-8.6,2.7c-2.4,1.8-3.6,4.5-3.6,8
		c0,2.4,0.6,4.4,1.7,6c1.2,1.6,2.7,2.8,4.5,3.6c1.8,0.8,3.8,1.2,5.8,1.2c2.2,0,4.2-0.4,6-1.3c1.8-0.9,3.3-2.1,4.4-3.8
		c1.1-1.6,1.6-3.6,1.6-5.8C220.3,39.6,219.8,37.9,218.9,36.2 M213.2,45.7c-0.2,1.3-0.7,2.3-1.5,3.2c-0.8,0.9-1.9,1.3-3.4,1.3
		c-2.2,0-3.7-0.8-4.4-2.3c-0.7-1.5-1-3.6-1-6.1c0-2,0.2-3.7,0.5-5c0.3-1.3,0.8-2.2,1.6-2.8c0.8-0.6,1.8-0.9,3.2-0.9
		c2.1,0,3.5,0.7,4.3,2.1c0.7,1.4,1.1,3.5,1.1,6.3C213.5,43,213.4,44.5,213.2,45.7"/>
	<path class="st1" d="M244.8,48.6c-0.4-0.5-0.6-1.4-0.6-2.8v-8.2c0-1.4-0.3-2.7-1-3.7c-0.6-1-1.5-1.8-2.6-2.3
		c-1.1-0.5-2.4-0.8-3.8-0.8c-1.7,0-3,0.3-4.2,1c-1.1,0.7-2.2,1.6-3.2,2.7c0-0.2,0-0.4,0-0.5c0-0.2,0-0.3,0-0.5
		c0-0.8-0.1-1.7-0.2-2.6l-9.5,2.1v2.2c1.5,0,2.5,0.2,2.9,0.5c0.4,0.4,0.7,1.1,0.7,2.2v7.9c0,1-0.1,1.8-0.2,2.3c-0.2,0.5-0.5,0.8-1,1
		c-0.5,0.2-1.3,0.3-2.3,0.3v2.2h12.9v-2.2c-1.2,0-2-0.2-2.4-0.7c-0.4-0.5-0.6-1.3-0.6-2.6v-5.5c0-1.7,0.4-3.2,1.3-4.5
		c0.8-1.3,2.1-2,3.8-2c1.3,0,2.1,0.4,2.5,1.2c0.4,0.8,0.6,1.9,0.6,3.3v6.9c0,1.1,0,1.9-0.1,2.4c-0.1,0.5-0.4,0.9-0.8,1.1
		c-0.4,0.3-1.1,0.4-2.1,0.4v2.2h12.7v-2.2C246.1,49.4,245.2,49.1,244.8,48.6"/>
</g>
</svg>
