<?xml version="1.0" encoding="utf-8"?>
<!-- Generator: Adobe Illustrator 20.1.0, SVG Export Plug-In . SVG Version: 6.00 Build 0)  -->
<svg version="1.1" id="Layer_1" xmlns="http://www.w3.org/2000/svg" xmlns:xlink="http://www.w3.org/1999/xlink" x="0px" y="0px"
	 viewBox="0 0 177 153.2" style="enable-background:new 0 0 177 153.2;" xml:space="preserve">
<style type="text/css">
	.st0{fill:#FFFFFF;}
	.st1{clip-path:url(#SVGID_2_);fill:#FFFFFF;}
	.st2{clip-path:url(#SVGID_2_);fill:#848689;}
	.st3{clip-path:url(#SVGID_2_);fill:#FFEC00;}
</style>
<polygon class="st0" points="44.2,76.6 0,153.2 88.5,153.2 177,153.2 132.7,76.6 88.5,0 "/>
<polygon points="88.5,6 130.2,78.1 171.9,150.3 88.5,150.3 5.2,150.3 46.9,78.1 "/>
<polygon class="st0" points="38.2,123.4 42.2,130.3 52.3,130.3 45.2,118.1 38.2,105.9 31.2,118.1 24.1,130.3 34.2,130.3 "/>
<polygon class="st0" points="138.6,123.4 142.6,130.3 152.7,130.3 145.6,118.1 138.6,105.9 131.6,118.1 124.5,130.3 134.6,130.3 "/>
<polygon class="st0" points="53.8,105.9 63.5,105.9 63.5,123.8 72.4,123.8 72.4,130.4 53.8,130.4 "/>
<g>
	<defs>
		<rect id="SVGID_1_" width="177" height="153.2"/>
	</defs>
	<clipPath id="SVGID_2_">
		<use xlink:href="#SVGID_1_"  style="overflow:visible;"/>
	</clipPath>
	<path class="st1" d="M74.4,105.9h14.2c5.9,0,8.7,3.4,8.7,8c0,4.9-3.2,8.2-10,8.2h-3.2v8.2h-9.7V105.9z M84.6,116.6
		c2.5,0,3.5-0.9,3.5-2.6c0-1.7-0.8-2.5-2.9-2.5h-1v5.1H84.6z"/>
	<polygon class="st1" points="113.3,121.3 109.2,121.3 109.2,130.4 99.5,130.4 99.5,105.9 109.2,105.9 109.2,114.2 113.3,114.2 
		113.3,105.9 123,105.9 123,130.4 113.3,130.4 	"/>
	<polygon class="st2" points="155.2,134.4 21.8,134.4 16.5,143.5 160,143.5 	"/>
	<polygon class="st3" points="155.2,134.4 21.8,134.4 16.5,143.5 160,143.5 	"/>
	<polygon class="st3" points="75.5,101.4 88.5,78.9 101.5,101.4 136.4,101.4 113.2,61.3 88.5,18.5 63.9,61.3 40.7,101.4 	"/>
</g>
</svg>
