<?xml version="1.0" encoding="utf-8"?>
<!-- Generator: Adobe Illustrator 21.0.0, SVG Export Plug-In . SVG Version: 6.00 Build 0)  -->
<!DOCTYPE svg PUBLIC "-//W3C//DTD SVG 1.1//EN" "http://www.w3.org/Graphics/SVG/1.1/DTD/svg11.dtd">
<svg version="1.1" id="Layer_1" xmlns="http://www.w3.org/2000/svg" xmlns:xlink="http://www.w3.org/1999/xlink" x="0px" y="0px"
	 viewBox="0 0 96.6 21" enable-background="new 0 0 96.6 21" xml:space="preserve">
<g>
	<g>
		<path fill="#FFFFFF" d="M15.1,0.9c-0.2-0.3-0.5-0.5-0.9-0.5C13.5,0.4,13,1,13,1.7c0,0.7,0.5,1.2,1.2,1.2c0.3,0,0.7-0.2,0.9-0.4
			h0.6c-0.3,0.5-0.8,0.9-1.5,0.9c-0.9,0-1.6-0.8-1.6-1.7c0-0.9,0.7-1.7,1.7-1.7c0.3,0,0.7,0.1,1,0.3c0.2,0.2,0.4,0.3,0.5,0.6H15.1z"
			/>
		<path fill="#FFFFFF" d="M23.2,3.3l-0.4-0.9h-1.2l-0.4,0.9h-0.5l1.2-3.2h0.4l1.2,3.2H23.2z M22.3,0.7L22.3,0.7l-0.4,1.2h0.8
			L22.3,0.7z"/>
		<path fill="#FFFFFF" d="M29.3,3.3V0.1h0.5v2.8h1.1v0.4H29.3z"/>
		<path fill="#FFFFFF" d="M36.4,3.3V0.1h0.5v3.2H36.4z"/>
		<path fill="#FFFFFF" d="M43.2,1.9v1.4h-0.5V0.1h1.6v0.4h-1.2v1h1.2v0.4H43.2z"/>
		<path fill="#FFFFFF" d="M51.6,3.3c-0.9,0-1.7-0.7-1.7-1.7c0-0.9,0.7-1.7,1.7-1.7c0.9,0,1.7,0.7,1.7,1.7
			C53.3,2.6,52.5,3.3,51.6,3.3z M51.6,0.4c-0.5,0-0.9,0.3-1.1,0.7c-0.1,0.2-0.1,0.3-0.1,0.5c0,0.2,0,0.4,0.1,0.5
			c0.2,0.5,0.6,0.7,1.1,0.7c0.5,0,0.9-0.3,1.1-0.8c0.1-0.1,0.1-0.3,0.1-0.4C52.8,1,52.3,0.4,51.6,0.4z"/>
		<path fill="#FFFFFF" d="M60.5,2c-0.1,0-0.2,0.1-0.3,0.1L61,3.3h-0.6l-1.1-1.5h0v1.5h-0.5V0.1h1c0.3,0,0.6,0,0.9,0.3
			c0.2,0.2,0.3,0.5,0.3,0.8C61.1,1.5,60.9,1.9,60.5,2z M59.9,0.5h-0.5v1.2h0.3c0.4,0,0.9-0.1,0.9-0.6C60.6,0.7,60.3,0.5,59.9,0.5z"
			/>
		<path fill="#FFFFFF" d="M68.8,3.3l-1.6-2.5h0v2.5h-0.5V0.1h0.5l1.6,2.4h0V0.1h0.5v3.2H68.8z"/>
		<path fill="#FFFFFF" d="M75.2,3.3V0.1h0.5v3.2H75.2z"/>
		<path fill="#FFFFFF" d="M83.6,3.3l-0.4-0.9h-1.2l-0.4,0.9h-0.5l1.2-3.2h0.4l1.2,3.2H83.6z M82.7,0.7L82.7,0.7l-0.4,1.2h0.8
			L82.7,0.7z"/>
	</g>
	<g>
		<path fill="#FFFFFF" d="M5.1,17.5v-3.9H0.8v3.9H0V9.3h0.8v3.6h4.3V9.3h0.8v8.2H5.1z"/>
		<path fill="#FFFFFF" d="M12.6,17.7c-2.3,0-4.4-1.9-4.4-4.2c0-2.4,2-4.3,4.4-4.3C15,9.1,17,11,17,13.4C17,15.8,14.9,17.7,12.6,17.7
			z M12.6,9.9c-2,0-3.5,1.6-3.5,3.6c0,1.9,1.6,3.5,3.5,3.5c1.9,0,3.5-1.6,3.5-3.5C16.1,11.5,14.5,9.9,12.6,9.9z"/>
		<path fill="#FFFFFF" d="M21,10v7.5h-0.8V10h-1.9V9.3h4.6V10H21z"/>
		<path fill="#FFFFFF" d="M25,17.5V9.3h4.5V10h-3.7v3h3.6v0.7h-3.6v3h3.7v0.7H25z"/>
		<path fill="#FFFFFF" d="M32.3,17.5V9.3h0.8v7.5h3.4v0.7H32.3z"/>
		<path fill="#FFFFFF" d="M47.2,17.1c-0.7,0.4-1.3,0.5-2,0.5h-2.3V9.3h2.1c1,0,2.1,0.3,2.5,1.3c0.1,0.3,0.2,0.6,0.2,0.8
			c0,0.8-0.3,1.2-0.9,1.7c0.8,0.3,1.4,1.1,1.4,2C48.1,15.9,47.8,16.7,47.2,17.1z M46.5,10.5c-0.4-0.5-1.1-0.5-1.7-0.5h-1.1v2.8h1
			c0.5,0,1,0,1.4-0.2c0.4-0.2,0.7-0.7,0.7-1.2C46.8,11.1,46.7,10.8,46.5,10.5z M46.3,13.8c-0.5-0.2-1.1-0.2-1.6-0.2h-1v3.2h1.2
			c0.5,0,1.1,0,1.6-0.2c0.6-0.2,0.9-0.8,0.9-1.4C47.3,14.5,46.9,14,46.3,13.8z"/>
		<path fill="#FFFFFF" d="M53.6,14.4l2.3,3.1h-1l-2.8-3.7c0.5,0,1.3,0,1.8-0.1c0.8-0.2,1.4-0.9,1.4-1.7c0-0.6-0.3-1.3-0.9-1.6
			c-0.5-0.3-1-0.3-1.6-0.3h-1.4v7.5h-0.8V9.3h2.1c0.6,0,1.4,0,2,0.3c0.9,0.4,1.5,1.3,1.5,2.4C56,13.3,55,14.4,53.6,14.4z"/>
		<path fill="#FFFFFF" d="M62.5,17.7c-2.3,0-4.4-1.9-4.4-4.2c0-2.4,2-4.3,4.4-4.3c2.4,0,4.4,1.9,4.4,4.3
			C66.8,15.8,64.8,17.7,62.5,17.7z M62.5,9.9c-2,0-3.5,1.6-3.5,3.6c0,1.9,1.6,3.5,3.5,3.5c1.9,0,3.5-1.6,3.5-3.5
			C66,11.5,64.4,9.9,62.5,9.9z"/>
		<path fill="#FFFFFF" d="M73.9,17.5l-2.8-3.6L70,15.3v2.3h-0.8V9.3H70V14h0l3.8-4.7h1.1l-3.3,4l3.3,4.2H73.9z"/>
		<path fill="#FFFFFF" d="M76.9,17.5V9.3h4.5V10h-3.7v3h3.6v0.7h-3.6v3h3.7v0.7H76.9z"/>
		<path fill="#FFFFFF" d="M87.2,14.4l2.3,3.1h-1l-2.8-3.7c0.5,0,1.3,0,1.8-0.1c0.8-0.2,1.4-0.9,1.4-1.7c0-0.6-0.3-1.3-0.9-1.6
			c-0.5-0.3-1-0.3-1.6-0.3h-1.4v7.5h-0.8V9.3h2.1c0.6,0,1.4,0,2,0.3c0.9,0.4,1.5,1.3,1.5,2.4C89.7,13.3,88.6,14.4,87.2,14.4z"/>
		<path fill="#FFFFFF" d="M94.1,17.7c-1.5,0-2.5-1-2.5-2.5h0.8c0,1,0.7,1.7,1.7,1.7c0.9,0,1.7-0.7,1.7-1.6c0-1.1-0.9-1.5-1.8-1.8
			c-1.2-0.3-2.1-0.7-2.1-2.2c0-1.3,1-2.2,2.3-2.2c1.3,0,2.3,1,2.3,2.2h-0.8c0-0.8-0.6-1.5-1.5-1.5c-0.8,0-1.5,0.6-1.5,1.4
			c0,1.1,1.1,1.3,2,1.5c1.2,0.4,2,1.1,2,2.4C96.6,16.6,95.4,17.7,94.1,17.7z"/>
	</g>
	<rect y="20.1" fill="#D3AA75" width="96.4" height="0.9"/>
	<rect y="5.8" fill="#D3AA75" width="96.4" height="0.9"/>
</g>
</svg>
