<?xml version="1.0" encoding="utf-8"?>
<!-- Generator: Adobe Illustrator 20.1.0, SVG Export Plug-In . SVG Version: 6.00 Build 0)  -->
<svg version="1.1" id="Layer_1" xmlns="http://www.w3.org/2000/svg" xmlns:xlink="http://www.w3.org/1999/xlink" x="0px" y="0px"
	 viewBox="0 0 380.1 100.4" style="enable-background:new 0 0 380.1 100.4;" xml:space="preserve">
<style type="text/css">
	.st0{clip-path:url(#SVGID_2_);fill:#FFFFFF;}
	.st1{clip-path:url(#SVGID_2_);fill:#27AAE1;}
	.st2{clip-path:url(#SVGID_4_);fill:url(#SVGID_5_);}
	.st3{clip-path:url(#SVGID_7_);fill:#27AAE1;}
	.st4{clip-path:url(#SVGID_9_);fill:url(#SVGID_10_);}
	.st5{clip-path:url(#SVGID_12_);fill:#27AAE1;}
	.st6{clip-path:url(#SVGID_14_);fill:url(#SVGID_15_);}
	.st7{clip-path:url(#SVGID_17_);fill:url(#SVGID_18_);}
</style>
<g>
	<defs>
		<rect id="SVGID_1_" width="380.1" height="100.4"/>
	</defs>
	<clipPath id="SVGID_2_">
		<use xlink:href="#SVGID_1_"  style="overflow:visible;"/>
	</clipPath>
	<path class="st0" d="M95.5,25.8v17.6c0,5.9,2.5,8.6,6.2,8.6c4,0,6.3-2.7,6.3-8.6V25.8h5.5V43c0,9.3-4.8,13.4-12,13.4
		c-7,0-11.5-3.9-11.5-13.4V25.8H95.5z"/>
	<path class="st0" d="M119.6,49.9c1.8,1,4.5,1.9,7.3,1.9c3.5,0,5.5-1.7,5.5-4.1c0-2.3-1.5-3.6-5.4-5c-5-1.8-8.1-4.4-8.1-8.8
		c0-4.9,4.1-8.7,10.6-8.7c3.3,0,5.7,0.7,7.2,1.5l-1.3,4.4c-1.1-0.6-3.2-1.4-6-1.4c-3.5,0-5,1.9-5,3.6c0,2.3,1.7,3.4,5.8,5
		c5.2,2,7.8,4.6,7.8,8.9c0,4.8-3.7,9.1-11.4,9.1c-3.2,0-6.5-0.9-8.1-1.9L119.6,49.9z"/>
	<path class="st1" d="M164.5,55c-1.3,0.7-4.2,1.4-7.8,1.4c-9.6,0-15.4-6-15.4-15.2c0-9.9,6.9-15.9,16.1-15.9c3.6,0,6.2,0.8,7.3,1.3
		l-1.2,4.4c-1.4-0.6-3.4-1.2-5.9-1.2c-6.1,0-10.5,3.8-10.5,11.1c0,6.6,3.9,10.9,10.5,10.9c2.2,0,4.6-0.4,6-1.1L164.5,55z"/>
	<path class="st1" d="M168.9,41.1c0-2.9,0-5-0.2-7h4.8l0.2,4.2h0.2c1.1-3.1,3.6-4.6,5.9-4.6c0.5,0,0.8,0,1.3,0.1V39
		c-0.4-0.1-0.9-0.2-1.6-0.2c-2.6,0-4.4,1.7-4.9,4.2c-0.1,0.5-0.2,1.1-0.2,1.7v11.3h-5.5V41.1z"/>
	<path class="st1" d="M189.2,34.1l3.9,11.7c0.4,1.3,0.9,3,1.2,4.2h0.1c0.4-1.3,0.8-2.9,1.2-4.3l3.4-11.6h5.9L199.5,49
		c-3,8.1-5,11.7-7.6,14c-2.1,1.9-4.4,2.6-5.8,2.8l-1.3-4.6c0.9-0.2,2.1-0.7,3.2-1.5c1-0.7,2.2-2,3-3.4c0.2-0.4,0.4-0.7,0.4-1
		c0-0.2,0-0.5-0.3-1.1l-8-20H189.2z"/>
	<path class="st1" d="M228.2,44.8c0,8-5.6,11.6-11.2,11.6c-6.2,0-10.9-4.2-10.9-11.2c0-7.1,4.7-11.5,11.3-11.5
		C223.8,33.6,228.2,38.2,228.2,44.8 M211.8,45c0,4.2,2.1,7.4,5.4,7.4c3.1,0,5.3-3.1,5.3-7.5c0-3.4-1.5-7.3-5.3-7.3
		C213.3,37.7,211.8,41.4,211.8,45"/>
	<path class="st0" d="M239,28.5v5.6h5.2v4.1H239v9.6c0,2.6,0.7,4,2.8,4c1,0,1.5-0.1,2.1-0.3l0.1,4.2c-0.8,0.3-2.2,0.6-4,0.6
		c-2,0-3.7-0.7-4.7-1.8c-1.2-1.2-1.7-3.2-1.7-6.1V38.2h-3.1v-4.1h3.1v-4L239,28.5z"/>
	<path class="st0" d="M248.3,24.2h5.5v13h0.1c0.7-1,1.6-1.9,2.7-2.5c1.1-0.6,2.4-1,3.8-1c3.7,0,7.6,2.5,7.6,9.4v12.8h-5.5V43.7
		c0-3.2-1.2-5.5-4.2-5.5c-2.1,0-3.7,1.4-4.2,3.1c-0.2,0.4-0.2,1-0.2,1.7v13h-5.5V24.2z"/>
	<path class="st0" d="M277.8,46.5c0.1,3.9,3.2,5.6,6.7,5.6c2.5,0,4.4-0.4,6-1l0.8,3.8c-1.9,0.8-4.5,1.4-7.6,1.4
		c-7.1,0-11.2-4.4-11.2-11c0-6,3.7-11.7,10.6-11.7c7.1,0,9.4,5.8,9.4,10.6c0,1-0.1,1.8-0.2,2.3H277.8z M287.3,42.7
		c0-2-0.8-5.3-4.5-5.3c-3.4,0-4.8,3.1-5,5.3H287.3z"/>
	<path class="st0" d="M296.9,41.1c0-2.9,0-5-0.2-7h4.8l0.2,4.2h0.2c1.1-3.1,3.6-4.6,5.9-4.6c0.5,0,0.8,0,1.3,0.1V39
		c-0.4-0.1-0.9-0.2-1.6-0.2c-2.6,0-4.4,1.7-4.9,4.2c-0.1,0.5-0.2,1.1-0.2,1.7v11.3h-5.5V41.1z"/>
	<path class="st0" d="M329.3,50.7c0,2,0.1,3.9,0.3,5.2h-5l-0.4-2.4h-0.1c-1.3,1.7-3.6,2.9-6.4,2.9c-4.4,0-6.8-3.2-6.8-6.5
		c0-5.5,4.9-8.3,12.9-8.2v-0.4c0-1.4-0.6-3.8-4.4-3.8c-2.1,0-4.4,0.7-5.9,1.6l-1.1-3.6c1.6-1,4.4-1.9,7.9-1.9c7,0,9,4.4,9,9.2V50.7z
		 M324,45.3c-3.9-0.1-7.6,0.8-7.6,4.1c0,2.1,1.4,3.1,3.1,3.1c2.2,0,3.8-1.4,4.3-3c0.1-0.4,0.2-0.8,0.2-1.2V45.3z"/>
	<path class="st0" d="M335.1,41.4c0-2.9-0.1-5.2-0.2-7.2h4.8l0.3,3.4h0.1c1.6-2.5,4.2-3.8,7.5-3.8c5,0,9.2,4.3,9.2,11.1
		c0,7.9-5,11.7-9.9,11.7c-2.7,0-5-1.2-6.1-2.9h-0.1v11.3h-5.5V41.4z M340.6,46.8c0,0.5,0,1,0.2,1.5c0.5,2.2,2.5,3.8,4.8,3.8
		c3.5,0,5.5-2.9,5.5-7.2c0-3.8-1.9-7-5.4-7c-2.3,0-4.4,1.7-4.9,4.1c-0.1,0.4-0.2,0.9-0.2,1.4V46.8z"/>
	<path class="st0" d="M364.3,34.1l3.9,11.7c0.4,1.3,0.9,3,1.2,4.2h0.1c0.4-1.3,0.8-2.9,1.2-4.3l3.4-11.6h5.9L374.6,49
		c-3,8.1-5,11.7-7.6,14c-2.1,1.9-4.4,2.6-5.8,2.8l-1.3-4.6c0.9-0.2,2.1-0.7,3.2-1.5c1-0.7,2.2-2,3-3.4c0.2-0.4,0.4-0.7,0.4-1
		c0-0.2,0-0.5-0.3-1.1l-8-20H364.3z"/>
	<polygon class="st0" points="114.3,67.7 120.7,67.7 120.7,69.4 116.3,69.4 116.3,72.4 120.4,72.4 120.4,74.1 116.3,74.1 
		116.3,78.8 114.3,78.8 	"/>
	<path class="st0" d="M124.7,76.1l-0.8,2.7h-1.8l3.1-9.7h2.3l3.1,9.7h-1.9l-0.9-2.7H124.7z M127.5,74.8l-0.8-2.4
		c-0.2-0.6-0.3-1.2-0.5-1.8h0c-0.1,0.6-0.3,1.2-0.5,1.8l-0.7,2.4H127.5z"/>
	<path class="st0" d="M132,76.9c0.6,0.3,1.4,0.6,2.3,0.6c1.1,0,1.8-0.5,1.8-1.3c0-0.7-0.5-1.2-1.7-1.6c-1.6-0.6-2.6-1.4-2.6-2.8
		c0-1.6,1.3-2.8,3.4-2.8c1,0,1.8,0.2,2.3,0.5l-0.4,1.4c-0.3-0.2-1-0.5-1.9-0.5c-1.1,0-1.6,0.6-1.6,1.2c0,0.7,0.6,1.1,1.9,1.6
		c1.7,0.6,2.5,1.5,2.5,2.9c0,1.6-1.2,2.9-3.7,2.9c-1,0-2.1-0.3-2.6-0.6L132,76.9z"/>
	<polygon class="st0" points="141.6,70.6 138.8,70.6 138.8,69.2 146.1,69.2 146.1,70.6 143.3,70.6 143.3,78.8 141.6,78.8 	"/>
	<polygon class="st0" points="152.9,74.5 149.2,74.5 149.2,77.4 153.3,77.4 153.3,78.8 147.4,78.8 147.4,69.2 153.1,69.2 
		153.1,70.6 149.2,70.6 149.2,73.1 152.9,73.1 	"/>
	<path class="st0" d="M155,69.3c0.7-0.1,1.7-0.2,2.7-0.2c1.4,0,2.3,0.2,3,0.8c0.5,0.4,0.8,1.1,0.8,1.9c0,1.2-0.8,2.1-1.8,2.4v0
		c0.7,0.3,1.1,0.9,1.3,1.9c0.3,1.2,0.6,2.3,0.8,2.7h-1.8c-0.1-0.3-0.4-1.1-0.6-2.3c-0.3-1.3-0.7-1.7-1.7-1.7h-0.9v4H155V69.3z
		 M156.8,73.6h1c1.2,0,1.9-0.6,1.9-1.6c0-1.1-0.7-1.5-1.9-1.5c-0.6,0-0.9,0-1.1,0.1V73.6z"/>
	<path class="st0" d="M166.7,67.8c0.8-0.1,1.9-0.2,3.1-0.2c1.6,0,2.7,0.3,3.4,0.9c0.6,0.5,1,1.3,1,2.2c0,1.4-1,2.4-2,2.8v0
		c0.8,0.3,1.3,1.1,1.6,2.1c0.3,1.4,0.6,2.7,0.9,3.1h-2.1c-0.2-0.3-0.4-1.2-0.7-2.6c-0.3-1.5-0.8-1.9-2-2h-1v4.6h-2V67.8z
		 M168.7,72.8h1.2c1.4,0,2.2-0.7,2.2-1.8c0-1.2-0.9-1.8-2.2-1.8c-0.6,0-1.1,0-1.3,0.1V72.8z"/>
	<polygon class="st0" points="181.6,74.5 177.9,74.5 177.9,77.4 182,77.4 182,78.8 176.2,78.8 176.2,69.2 181.8,69.2 181.8,70.6 
		177.9,70.6 177.9,73.1 181.6,73.1 	"/>
	<path class="st0" d="M190.7,78.5c-0.4,0.2-1.3,0.4-2.5,0.4c-3.1,0-4.9-1.9-4.9-4.9c0-3.2,2.2-5.1,5.2-5.1c1.2,0,2,0.2,2.4,0.4
		l-0.4,1.4c-0.5-0.2-1.1-0.4-1.9-0.4c-2,0-3.4,1.2-3.4,3.6c0,2.1,1.2,3.5,3.4,3.5c0.7,0,1.5-0.1,1.9-0.4L190.7,78.5z"/>
	<path class="st0" d="M200.6,73.9c0,3.2-2,5.1-4.6,5.1c-2.7,0-4.5-2.1-4.5-4.9c0-3,1.9-5.1,4.6-5.1C198.9,69,200.6,71.1,200.6,73.9
		 M193.3,74c0,2,1,3.5,2.7,3.5c1.7,0,2.7-1.6,2.7-3.6c0-1.8-0.9-3.6-2.7-3.6C194.3,70.4,193.3,72,193.3,74"/>
	<path class="st0" d="M204.4,78.8l-3.1-9.7h1.9l1.3,4.4c0.4,1.2,0.7,2.4,0.9,3.5h0c0.3-1.1,0.6-2.3,1-3.5l1.4-4.4h1.9l-3.3,9.7
		H204.4z"/>
	<polygon class="st0" points="216.5,74.5 212.8,74.5 212.8,77.4 216.9,77.4 216.9,78.8 211,78.8 211,69.2 216.7,69.2 216.7,70.6 
		212.8,70.6 212.8,73.1 216.5,73.1 	"/>
	<path class="st0" d="M218.6,69.3c0.7-0.1,1.7-0.2,2.7-0.2c1.4,0,2.3,0.2,3,0.8c0.5,0.4,0.8,1.1,0.8,1.9c0,1.2-0.8,2.1-1.8,2.4v0
		c0.7,0.3,1.1,0.9,1.3,1.9c0.3,1.2,0.6,2.3,0.8,2.7h-1.8c-0.1-0.3-0.4-1.1-0.6-2.3c-0.3-1.3-0.7-1.7-1.7-1.7h-0.9v4h-1.8V69.3z
		 M220.4,73.6h1c1.2,0,1.9-0.6,1.9-1.6c0-1.1-0.7-1.5-1.9-1.5c-0.6,0-0.9,0-1.1,0.1V73.6z"/>
	<path class="st0" d="M229,78.8v-4l-3.1-5.6h2l1.2,2.5c0.3,0.7,0.6,1.3,0.8,1.9h0c0.2-0.6,0.5-1.2,0.8-1.9l1.2-2.5h2l-3.2,5.6v4.1
		H229z"/>
	<path class="st0" d="M251.1,67.8c0.6-0.1,1.8-0.2,3-0.2c1.5,0,2.4,0.2,3.2,0.7c0.7,0.4,1.2,1.1,1.2,2.1c0,1-0.6,2-1.9,2.4v0
		c1.2,0.3,2.2,1.2,2.2,2.8c0,1-0.4,1.8-1.1,2.3c-0.8,0.7-2.1,1-4.1,1c-1.1,0-2-0.1-2.5-0.2V67.8z M253.2,72.2h1
		c1.4,0,2.2-0.7,2.2-1.6c0-1-0.8-1.5-2.1-1.5c-0.6,0-0.9,0-1.2,0.1V72.2z M253.2,77.4c0.3,0.1,0.6,0.1,1.1,0.1
		c1.3,0,2.5-0.5,2.5-1.9c0-1.3-1.1-1.8-2.5-1.8h-1V77.4z"/>
	<polygon class="st0" points="266.1,74.5 262.5,74.5 262.5,77.4 266.6,77.4 266.6,78.8 260.7,78.8 260.7,69.2 266.4,69.2 
		266.4,70.6 262.5,70.6 262.5,73.1 266.1,73.1 	"/>
	<polygon class="st0" points="270.3,70.6 267.5,70.6 267.5,69.2 274.8,69.2 274.8,70.6 272.1,70.6 272.1,78.8 270.3,78.8 	"/>
	<polygon class="st0" points="278.4,70.6 275.7,70.6 275.7,69.2 283,69.2 283,70.6 280.2,70.6 280.2,78.8 278.4,78.8 	"/>
	<polygon class="st0" points="289.7,74.5 286.1,74.5 286.1,77.4 290.1,77.4 290.1,78.8 284.3,78.8 284.3,69.2 289.9,69.2 
		289.9,70.6 286.1,70.6 286.1,73.1 289.7,73.1 	"/>
	<path class="st0" d="M291.9,69.3c0.7-0.1,1.7-0.2,2.7-0.2c1.4,0,2.3,0.2,3,0.8c0.5,0.4,0.8,1.1,0.8,1.9c0,1.2-0.8,2.1-1.8,2.4v0
		c0.7,0.3,1.1,0.9,1.4,1.9c0.3,1.2,0.6,2.3,0.8,2.7h-1.8c-0.1-0.3-0.4-1.1-0.6-2.3c-0.3-1.3-0.7-1.7-1.7-1.7h-0.9v4h-1.8V69.3z
		 M293.6,73.6h1c1.2,0,1.9-0.6,1.9-1.6c0-1.1-0.7-1.5-1.9-1.5c-0.6,0-0.9,0-1.1,0.1V73.6z"/>
	<polygon class="st0" points="305.6,67.7 305.6,72.2 310.3,72.2 310.3,67.7 312.3,67.7 312.3,78.8 310.3,78.8 310.3,73.9 
		305.6,73.9 305.6,78.8 303.5,78.8 303.5,67.7 	"/>
	<polygon class="st0" points="320.1,74.5 316.5,74.5 316.5,77.4 320.6,77.4 320.6,78.8 314.7,78.8 314.7,69.2 320.3,69.2 
		320.3,70.6 316.5,70.6 316.5,73.1 320.1,73.1 	"/>
	<path class="st0" d="M324.2,76.1l-0.8,2.7h-1.8l3.1-9.7h2.3l3.1,9.7h-1.9l-0.9-2.7H324.2z M327,74.8l-0.8-2.4
		c-0.2-0.6-0.3-1.2-0.5-1.8h0c-0.1,0.6-0.3,1.2-0.5,1.8l-0.7,2.4H327z"/>
	<polygon class="st0" points="331.6,69.2 333.4,69.2 333.4,77.4 337.3,77.4 337.3,78.8 331.6,78.8 	"/>
	<polygon class="st0" points="339.3,70.6 336.6,70.6 336.6,69.2 343.9,69.2 343.9,70.6 341.1,70.6 341.1,78.8 339.3,78.8 	"/>
	<polygon class="st0" points="347,69.2 347,73 351.1,73 351.1,69.2 352.8,69.2 352.8,78.8 351.1,78.8 351.1,74.6 347,74.6 347,78.8 
		345.2,78.8 345.2,69.2 	"/>
	<rect x="240.3" y="72.3" class="st1" width="3.7" height="3.7"/>
	<path class="st1" d="M18.8,25.7C13.5,20.8,7.3,14.3,0,6.8c0,0,0,0,0,0c3.4,4.5,8.4,11.8,13.9,20.2C14.3,26.9,17.5,26,18.8,25.7"/>
</g>
<g>
	<defs>
		<path id="SVGID_3_" d="M40,15.6C35.4,16,32,20,32.4,24.5c0.4,4.5,4.3,7.9,8.9,7.6c4.5-0.4,7.9-4.3,7.6-8.9c-0.3-4.3-4-7.6-8.2-7.6
			C40.4,15.6,40.2,15.6,40,15.6"/>
	</defs>
	<clipPath id="SVGID_4_">
		<use xlink:href="#SVGID_3_"  style="overflow:visible;"/>
	</clipPath>
	
		<linearGradient id="SVGID_5_" gradientUnits="userSpaceOnUse" x1="0" y1="100.3579" x2="1" y2="100.3579" gradientTransform="matrix(16.4707 -1.2361 -1.2361 -16.4707 156.4538 1677.6282)">
		<stop  offset="0" style="stop-color:#29AAE2"/>
		<stop  offset="0.2021" style="stop-color:#29A8DE"/>
		<stop  offset="0.3537" style="stop-color:#2AA1D5"/>
		<stop  offset="0.4889" style="stop-color:#2A95C9"/>
		<stop  offset="0.6145" style="stop-color:#2986B9"/>
		<stop  offset="0.7335" style="stop-color:#2774A8"/>
		<stop  offset="0.8475" style="stop-color:#226195"/>
		<stop  offset="0.9556" style="stop-color:#1E4B81"/>
		<stop  offset="1" style="stop-color:#1E4079"/>
	</linearGradient>
	<polygon class="st2" points="30.8,15.7 49.1,14.3 50.5,32.4 32.1,33.8 	"/>
</g>
<g>
	<defs>
		<rect id="SVGID_6_" width="380.1" height="100.4"/>
	</defs>
	<clipPath id="SVGID_7_">
		<use xlink:href="#SVGID_6_"  style="overflow:visible;"/>
	</clipPath>
	<path class="st3" d="M57.9,28.1c-12.3,12.5-20.6,12.7-33.3,2.5c-1.5,0.6-2.8,1.2-3.7,1.8c-1.2,0.8-1.7,1.6-1.8,2.1
		c0,0.1,0,0.1,0,0.2c0,0.4,0.3,0.9,1.1,1.4c1,0.6,2.5,1.3,4.6,1.7c2.1,0.5,4.6,0.8,7.5,0.9c2.9,0.1,6.1,0.1,9.5-0.2
		c3.4-0.3,6.5-0.7,9.4-1.3c2.8-0.6,5.3-1.3,7.3-2.1c1.3-0.5,2.4-1.1,3.2-1.7c0.5-1.1,1-2.1,1.5-3.2C67.9,20.6,74.3,9.6,80.1,0
		c0,0,0-0.1,0,0C71.7,11.6,63.6,21.9,57.9,28.1"/>
</g>
<g>
	<defs>
		<path id="SVGID_8_" d="M65,30c0.1,0.2,0.2,0.3,0.3,0.5c0.1,0.2,0.1,0.4,0.1,0.6c0.1,1.2-0.5,2.2-1.4,3.1c-1.1,1-2.7,2-4.8,2.8
			c-2.1,0.8-4.7,1.6-7.6,2.2c-2.9,0.6-6.2,1.1-9.6,1.4v0c-3.4,0.3-6.7,0.3-9.7,0.2c-3-0.1-5.6-0.5-7.8-1c-2.2-0.5-3.9-1.1-5.2-2
			c-1-0.7-1.8-1.6-1.9-2.8c0-0.2,0-0.4,0-0.6c0.2-1.3,1.2-2.4,2.5-3.3c1.3-0.9,3.1-1.7,5.2-2.5c1.9-0.6,4-1.2,6.3-1.7
			c-0.2-0.7-0.4-1.4-0.4-2.2c-1.3,0.2-2.7,0.4-3.9,0.7c-4.2,0.8-8.1,1.8-11.5,2.9c-3.4,1.1-6.3,2.4-8.4,3.7c-2.2,1.3-3.5,2.8-3.8,4
			c-0.1,0.3-0.1,0.6-0.1,0.9c0.1,0.8,0.5,1.6,1.6,2.5c1.5,1.2,4.1,2.3,7.6,3.2c3.5,0.9,8,1.5,13,1.8c5.1,0.3,10.8,0.2,16.7-0.2
			c6-0.5,11.6-1.3,16.6-2.4c4.9-1.1,9.2-2.4,12.6-3.8c3.3-1.4,5.7-2.9,7-4.3c1-1,1.3-1.9,1.2-2.7c0-0.3-0.1-0.6-0.2-0.9
			c-0.5-1.1-2-2.3-4.3-3.3c-2-0.8-4.5-1.5-7.4-2.1C66.7,26.3,65.8,28.2,65,30 M50.3,23.1c0.1,0.8,0,1.5-0.1,2.2
			c2.4,0.1,4.6,0.3,6.6,0.7c0.6,0.1,0.5,0.1,1,0.2c0.8-1,1.7-1.8,2.5-2.7c-2-0.2-3.7-0.3-5.9-0.3c-1,0-2,0-3.1,0
			C50.9,23.1,50.6,23.1,50.3,23.1"/>
	</defs>
	<clipPath id="SVGID_9_">
		<use xlink:href="#SVGID_8_"  style="overflow:visible;"/>
	</clipPath>
	
		<linearGradient id="SVGID_10_" gradientUnits="userSpaceOnUse" x1="0" y1="100.3692" x2="1" y2="100.3692" gradientTransform="matrix(76.3427 -5.7296 -5.7296 -76.3427 578.306 7699.1714)">
		<stop  offset="0" style="stop-color:#29AAE2"/>
		<stop  offset="0.2021" style="stop-color:#29A8DE"/>
		<stop  offset="0.3537" style="stop-color:#2AA1D5"/>
		<stop  offset="0.4889" style="stop-color:#2A95C9"/>
		<stop  offset="0.6145" style="stop-color:#2986B9"/>
		<stop  offset="0.7335" style="stop-color:#2774A8"/>
		<stop  offset="0.8475" style="stop-color:#226195"/>
		<stop  offset="0.9556" style="stop-color:#1E4B81"/>
		<stop  offset="1" style="stop-color:#1E4079"/>
	</linearGradient>
	<polygon class="st4" points="1.6,23.3 79.2,17.4 81.2,44.4 3.6,50.3 	"/>
</g>
<g>
	<defs>
		<rect id="SVGID_11_" width="380.1" height="100.4"/>
	</defs>
	<clipPath id="SVGID_12_">
		<use xlink:href="#SVGID_11_"  style="overflow:visible;"/>
	</clipPath>
	<path class="st5" d="M35.8,60.7c2.3,0.1,4.7,0.1,7.1-0.1c2.4-0.2,4.8-0.5,7.1-1c1-0.2,1.9-0.4,2.8-0.7c2.5-8.9,4.7-15.2,4.7-15.2
		c-9.7,2-21.8,3-31.9,2.4c0,0,3.4,5.9,7.5,14.4C33.9,60.6,34.9,60.6,35.8,60.7"/>
	<path class="st5" d="M44.6,78c1.3-0.1,2.6-0.3,3.9-0.5c0.7-3.7,1.5-7.3,2.3-10.7c-2.3,0.3-4.8,0.6-7.2,0.8c-0.1,0-0.3,0-0.4,0
		c-2.2,0.2-4.4,0.3-6.6,0.3c1.4,3.2,2.8,6.7,4.1,10.2C41.9,78.2,43.2,78.1,44.6,78"/>
	<path class="st5" d="M45,84.1c-0.1,0-0.2,0-0.3,0c-0.7,0.1-1.4,0.1-2.1,0.1c1.7,5.5,3.1,11,3.6,16.1c0,0,0,0.1,0.1,0
		c-0.2-5.2,0.3-10.8,1.1-16.5C46.6,83.9,45.8,84,45,84.1"/>
</g>
<g>
	<defs>
		<path id="SVGID_13_" d="M56.2,52.7c1,0.2,1.8,0.5,2.5,0.9c1,0.5,1.7,1.1,1.9,1.8c0.2,0.7-0.2,1.4-0.9,2.1c-0.8,0.7-2,1.4-3.6,2
			c-1.6,0.6-3.5,1.2-5.7,1.6c-2.2,0.5-4.7,0.8-7.3,1c-2.6,0.2-5.1,0.2-7.3,0.1c-2.2-0.1-4.2-0.4-5.9-0.7c-1.6-0.4-3-0.8-3.8-1.4
			c-0.9-0.6-1.3-1.2-1.2-1.9c0.1-0.7,0.6-1.4,1.6-2.1c0.6-0.4,1.3-0.8,2.2-1.2c-0.7-1.3-1.3-2.5-1.9-3.6c-1.6,0.4-3.1,0.8-4.5,1.3
			c-2.7,0.9-4.9,1.9-6.6,3c-1.7,1.1-2.7,2.3-3,3.5c-0.3,1.2,0.4,2.3,1.7,3.3c1.4,1,3.5,1.8,6.3,2.5c2.8,0.7,6.2,1.1,10.1,1.3
			c3.9,0.2,8.2,0.1,12.7-0.2c4.5-0.4,8.8-1,12.6-1.8c3.8-0.8,7.1-1.8,9.8-2.9c2.6-1.1,4.6-2.2,5.8-3.4c1.2-1.2,1.6-2.4,1.2-3.5
			c-0.4-1.1-1.7-2.1-3.5-3c-1.8-0.8-4.2-1.5-6.9-2c-1.5-0.3-3.2-0.5-4.9-0.6C57.1,50,56.7,51.3,56.2,52.7"/>
	</defs>
	<clipPath id="SVGID_14_">
		<use xlink:href="#SVGID_13_"  style="overflow:visible;"/>
	</clipPath>
	
		<linearGradient id="SVGID_15_" gradientUnits="userSpaceOnUse" x1="0" y1="100.3741" x2="1" y2="100.3741" gradientTransform="matrix(60.3883 -4.5322 -4.5322 -60.3883 467.4789 6121.3862)">
		<stop  offset="0" style="stop-color:#63CDF6"/>
		<stop  offset="1" style="stop-color:#0E75BC"/>
	</linearGradient>
	<polygon class="st6" points="11,49 72.9,44.4 74.5,66.4 12.7,71 	"/>
</g>
<g>
	<defs>
		<path id="SVGID_16_" d="M51.1,72.2c0.6,0.1,1.8,0.2,2,0.3c1.2,0.2,2.2,0.5,3,0.9c0.8,0.4,1.2,0.8,1.4,1.3c0.1,0.5-0.1,1-0.7,1.5
			c-0.6,0.5-1.5,1-2.6,1.5c-1.2,0.5-2.6,0.9-4.2,1.2c-1.6,0.3-3.4,0.6-5.3,0.8c-1.9,0.2-3.7,0.2-5.4,0.1c-1.6-0.1-3.1-0.3-4.3-0.5
			c-1.2-0.3-2.2-0.6-2.8-1c-0.6-0.4-1-0.9-0.9-1.4c0.1-0.5,0.5-1,1.2-1.5c0.7-0.5,1.6-0.9,2.8-1.4c0.1,0,1.3-0.4,1.8-0.5
			c-0.3-0.8-0.7-1.6-1-2.4c-2,0.4-5.1,1.2-6.7,1.7c-2,0.7-3.6,1.4-4.8,2.2c-1.2,0.8-2,1.7-2.2,2.6c-0.2,0.9,0.3,1.7,1.3,2.4
			c1,0.7,2.6,1.4,4.6,1.8c2.1,0.5,4.6,0.8,7.4,1c2.9,0.2,6,0.1,9.3-0.2c3.3-0.3,6.5-0.7,9.3-1.3c2.8-0.6,5.2-1.3,7.2-2.1
			c1.9-0.8,3.4-1.7,4.3-2.5c0.9-0.9,1.2-1.8,0.9-2.6c-0.3-0.8-1.2-1.6-2.5-2.2c-1.3-0.6-3-1.1-5.1-1.4C57,70,54,69.8,51.7,69.7
			C51.5,70.5,51.3,71.3,51.1,72.2"/>
	</defs>
	<clipPath id="SVGID_17_">
		<use xlink:href="#SVGID_16_"  style="overflow:visible;"/>
	</clipPath>
	
		<linearGradient id="SVGID_18_" gradientUnits="userSpaceOnUse" x1="0" y1="100.3711" x2="1" y2="100.3711" gradientTransform="matrix(44.3207 -3.3263 -3.3263 -44.3207 356.1252 4526.4165)">
		<stop  offset="0" style="stop-color:#85C3D1"/>
		<stop  offset="1" style="stop-color:#45A9D1"/>
	</linearGradient>
	<polygon class="st7" points="21.1,69.7 66.5,66.3 67.8,82.7 22.4,86.1 	"/>
</g>
</svg>
