<?xml version="1.0" encoding="utf-8"?>
<!-- Generator: Adobe Illustrator 21.0.0, SVG Export Plug-In . SVG Version: 6.00 Build 0)  -->
<svg version="1.1" id="Layer_1" xmlns="http://www.w3.org/2000/svg" xmlns:xlink="http://www.w3.org/1999/xlink" x="0px" y="0px"
	 viewBox="0 0 142 121.2" style="enable-background:new 0 0 142 121.2;" xml:space="preserve">
<style type="text/css">
	.st0{fill:#7B7C7F;}
	.st1{fill:#FFFFFF;}
</style>
<path class="st0" d="M79.6,0H60c-3.9,0-7.2,3.2-7.2,7.2v39.9c0,3.9,3.2,7.2,7.2,7.2h19.7c3.9,0,7.2-3.2,7.2-7.2V7.2
	C86.8,3.2,83.6,0,79.6,0z M86.1,47.1c0,3.6-2.9,6.4-6.4,6.4H60c-3.6,0-6.4-2.9-6.4-6.4V7.2c0-3.6,2.9-6.4,6.4-6.4h19.7
	c3.6,0,6.4,2.9,6.4,6.4V47.1z"/>
<path d="M78.9,52.5H60.7c-3.4,0-6.1-2.7-6.1-6.1V7.9c0-3.4,2.7-6.1,6.1-6.1h18.1c3.4,0,6.1,2.7,6.1,6.1v38.4
	C85,49.7,82.2,52.5,78.9,52.5z"/>
<g>
	<path d="M12.6,74.5c0.1-0.1,0.2-0.2,0.3-0.3c-1,0.7-2.9,2-3.3,2c-0.3,0-0.6-0.3-0.6-0.7v-4.4c0-0.2-0.2-0.5-0.5-0.5H5.8
		c-0.2,0-0.5,0.2-0.5,0.5v0.1h2.5c0.2,0,0.5,0.2,0.5,0.5v4.4c0,0.4,0.3,0.7,0.6,0.7C9.3,76.7,12,74.9,12.6,74.5z"/>
	<path d="M32.2,80.7c-0.5,0.4-1,0.7-1.6,1.1c0,0,0,0.1,0,0.1C31.2,81.5,31.8,81.1,32.2,80.7z"/>
	<path d="M28.2,78.1L28.2,78.1c0.8-0.6,0.9-0.9,0.9-1.1v-5.9c0-0.3-0.1-0.5-0.5-0.5h-3.8v0.6h3.1c0.3,0,0.5,0.1,0.5,0.5v5.9
		C28.4,77.7,28.3,77.9,28.2,78.1z"/>
	<path d="M10.6,93.2H4c-1.9,0-3.3-0.9-3.3-2.7v-21c0-0.6,0.2-1.2,0.5-1.6C0.5,68.3,0,69,0,70v21c0,1.7,1.4,2.7,3.3,2.7h6.5
		c1.2,0,2.1-0.5,2.7-1.1C12,93,11.4,93.2,10.6,93.2z"/>
	<path d="M9.3,88.9V86c0-0.3,0-0.5,0.1-0.6c-0.2,0.1-0.3,0.2-0.4,0.3c-0.3,0.2-0.4,0.4-0.4,0.9v2.8h0.2C9.1,89.3,9.3,89.1,9.3,88.9z
		"/>
	<path d="M48.7,89.3c0.1,0,0.2-0.1,0.2-0.2V70.8c0-0.1-0.1-0.2-0.2-0.2h-3.8c-0.1,0-0.2,0.1-0.2,0.2v0.3H48c0.1,0,0.2,0.1,0.2,0.2
		v17.9H48.7z"/>
	<path d="M82.8,70.6v0.6h2.6v2.3c0,0.9,0.3,1.2,0.6,1.4c0.6,0.4,2.5,1.7,3.3,1.7c0.3,0,0.5-0.2,0.7-0.6c-0.8,0-2.7-1.3-3.3-1.7
		c-0.3-0.2-0.6-0.5-0.6-1.4v-2.3H82.8z"/>
	<path d="M25.5,93.2h-6.2c-0.5,0-0.8-0.3-0.8-0.6c0-0.7,1.5-1.5,1.5-2.9V70.3c0-1.4-1.5-2.2-1.5-2.9c-0.4,0-0.7,0.3-0.7,0.6
		c0,0.7,1.5,1.5,1.5,2.9v19.3c0,1.4-1.5,2.2-1.5,2.9c0,0.3,0.3,0.6,0.8,0.6h6.2C25.3,93.7,25.6,93.5,25.5,93.2
		C25.6,93.1,25.6,93.1,25.5,93.2C25.5,93.1,25.5,93.2,25.5,93.2z"/>
	<path d="M60.7,80l5.8,4c0.5,0.3,0.6,0.6,0.6,1.1v4.3h0.7v-4.9c0-0.5-0.2-0.8-0.6-1.1l-5.8-4c-1-0.7-1.9-1.4-1.9-3v-7
		c0-0.6,0.2-1.2,0.5-1.6c-0.7,0.4-1.2,1.2-1.2,2.2v7C58.8,78.5,59.7,79.3,60.7,80z"/>
	<path d="M64.2,70.6v0.6h2.6v2.3c0,0.9,0.3,1.2,0.6,1.4c0.6,0.4,2.5,1.7,3.3,1.7c0.3,0,0.5-0.2,0.7-0.6c-0.8,0-2.7-1.3-3.3-1.7
		c-0.3-0.2-0.6-0.5-0.6-1.4v-2.3H64.2z"/>
	<path d="M79.3,80l5.8,4c0.5,0.3,0.6,0.6,0.6,1.1v4.3h0.7v-4.9c0-0.5-0.2-0.8-0.6-1.1l-5.8-4c-1-0.7-1.9-1.4-1.9-3v-7
		c0-0.6,0.2-1.2,0.5-1.6c-0.7,0.4-1.2,1.2-1.2,2.2v7C77.4,78.5,78.3,79.3,79.3,80z"/>
	<path d="M120.9,93.2h-6.2c-0.5,0-0.8-0.3-0.8-0.6c0-0.7,1.5-1.5,1.5-2.9V70.3c0-1.4-1.5-2.2-1.5-2.9c-0.4,0-0.7,0.3-0.7,0.6
		c0,0.7,1.5,1.5,1.5,2.9v19.3c0,1.4-1.5,2.2-1.5,2.9c0,0.3,0.3,0.6,0.8,0.6h6.2C120.7,93.7,121,93.5,120.9,93.2
		C121,93.1,121,93.1,120.9,93.2C120.9,93.1,120.9,93.2,120.9,93.2z"/>
	<path d="M126.1,72.6c-0.4,0-0.6-0.3-0.6-0.7v-4.6c0-0.1,0-0.1,0-0.2c-0.5,0-0.7,0.3-0.7,0.8v4.6c0,0.4,0.2,0.7,0.6,0.7
		c0.4,0,0.8-0.3,1.4-0.9C126.6,72.5,126.4,72.6,126.1,72.6z"/>
	<path d="M136.1,93.2h-6.2c-0.5,0-0.8-0.3-0.8-0.6c0-0.7,1.5-1.5,1.5-2.9v-19c-2,0-2.2,0.3-2.9,0.9c-0.1,0-0.1,0.1-0.1,0.1
		c0.5-0.3,1-0.5,2.4-0.5v19c0,1.4-1.5,2.2-1.5,2.9c0,0.3,0.3,0.6,0.8,0.6h6.2C135.9,93.7,136.1,93.5,136.1,93.2
		C136.1,93.1,136.1,93.1,136.1,93.2C136.1,93.1,136.1,93.2,136.1,93.2z"/>
	<path d="M34.7,93.2h-6.1c-0.5,0-0.8-0.3-0.8-0.6c0-0.5,0.8-0.6,0.8-1.4c0-0.4-2.4-6.6-2.4-6.6l-1.3,0.8c-0.1,0-0.1,0.1-0.1,0.2
		l0.7-0.5c0,0,2.4,6.3,2.4,6.6c0,0.8-0.8,0.9-0.8,1.4c0,0.3,0.3,0.6,0.8,0.6H34C34.4,93.7,34.7,93.5,34.7,93.2
		C34.7,93.2,34.7,93.2,34.7,93.2z"/>
	<path d="M105.7,74.8c-0.3,0-0.6-0.3-0.6-0.7v-3.5h-2.9v0.6h2.2v3.5c0,0.4,0.3,0.7,0.6,0.7c0.4,0,3.1-1.9,3.7-2.3
		c0.1-0.1,0.2-0.2,0.3-0.3C108,73.5,106,74.8,105.7,74.8z"/>
	<path d="M139.5,72.6c-0.5,0-0.7-0.3-1.3-1c-0.7-0.8-0.7-1-2.9-1v0.6c1.5,0,1.6,0.3,2.2,1c0.6,0.7,0.9,1,1.3,1
		c0.4,0,0.8-0.2,0.9-0.6C139.7,72.5,139.6,72.6,139.5,72.6z"/>
	<path d="M69.2,93.2H63c-2.1,0-3.5-1.4-3.5-2.9v-6.4c0-0.2,0-0.3,0.1-0.4c-0.4,0.1-0.8,0.4-0.8,1v6.4c0,1.4,1.4,2.9,3.5,2.9h6.2
		c1,0,1.9-0.5,2.5-1.2C70.5,92.9,69.8,93.2,69.2,93.2z"/>
	<path d="M102.2,84.3v0.1l3.3-2.1c0.3-0.2,0.4-0.3,0.5-0.5L102.2,84.3z"/>
	<path d="M50.2,93.2h-6.9c-1.9,0-3.3-1-3.3-2.8V69.6c0-0.7,0.2-1.3,0.6-1.7c-0.8,0.5-1.3,1.2-1.3,2.3v20.7c0,1.8,1.4,2.8,3.3,2.8
		h6.9c1.2,0,2.1-0.5,2.7-1.1C51.6,93,51,93.2,50.2,93.2z"/>
	<path d="M87.7,93.2h-6.2c-2.1,0-3.5-1.4-3.5-2.9v-6.4c0-0.2,0-0.3,0.1-0.4c-0.4,0.1-0.8,0.4-0.8,1v6.4c0,1.4,1.4,2.9,3.5,2.9h6.2
		c1,0,1.9-0.5,2.5-1.2C89.1,92.9,88.4,93.2,87.7,93.2z"/>
	<path d="M102.9,93.2h-6.2c-0.5,0-0.8-0.3-0.8-0.6c0-0.7,1.5-1.5,1.5-2.9V70.3c0-1.4-1.5-2.2-1.5-2.9c-0.4,0-0.7,0.3-0.7,0.6
		c0,0.7,1.5,1.5,1.5,2.9v19.3c0,1.4-1.5,2.2-1.5,2.9c0,0.3,0.3,0.6,0.8,0.6h6.2C102.7,93.7,103,93.5,102.9,93.2
		C103,93.1,103,93.1,102.9,93.2C102.9,93.1,102.9,93.2,102.9,93.2z"/>
</g>
<path class="st1" d="M31.4,119.4v-4c0-0.4,0.3-0.6,0.6-0.6c0.4,0,1.7,0.8,2,1.1c0.2,0.1,0.4,0.3,0.4,0.9v2.1h2.3v-3.1
	c0-0.3-0.1-0.5-0.4-0.7l-3.6-2.5c-0.6-0.4-1.2-0.9-1.2-1.9v-4.4c0-1.1,0.9-1.7,2.1-1.7h3.7c1.3,0,2.2,0.9,2.2,1.8v3.4
	c0,0.4-0.3,0.7-0.5,0.7c-0.5,0-1.7-0.8-2.1-1.1c-0.2-0.1-0.4-0.3-0.4-0.9v-1.5h-2.1v2.7c0,0.3,0.1,0.5,0.4,0.8l3.7,2.5
	c0.7,0.5,1.1,0.9,1.1,1.9v4.5c0,0.9-1,1.8-2.1,1.8h-3.9C32.3,121.2,31.4,120.3,31.4,119.4z"/>
<path class="st1" d="M43,119.4v-13.1c0-1.2,0.9-1.8,2.1-1.8h4.3c1.3,0,2.2,0.9,2.2,1.9v12.9c0,0.9-0.8,1.9-2.2,1.9h-4.3
	C43.9,121.2,43,120.5,43,119.4z M46.1,118.7h2.4c0.1,0,0.2-0.1,0.2-0.2v-11.5c0-0.1-0.1-0.2-0.2-0.2h-2.4c-0.1,0-0.2,0.1-0.2,0.2
	v11.5C46,118.6,46,118.7,46.1,118.7z"/>
<path class="st1" d="M64.2,119.4c0,0.9-0.8,1.8-2.2,1.8h-4.3c-1.1,0-2.1-0.6-2.1-1.7v-12.7c0-0.9-0.9-1.4-0.9-1.9
	c0-0.2,0.2-0.4,0.5-0.4H59c0.3,0,0.5,0.2,0.5,0.4c0,0.5-1,1-1,1.9v11.9c0,0.1,0.1,0.2,0.2,0.2h2.4c0.1,0,0.2-0.1,0.2-0.2v-11.9
	c0-0.9-0.9-1.4-0.9-1.9c0-0.2,0.2-0.4,0.5-0.4h3.9c0.3,0,0.5,0.2,0.5,0.4c0,0.5-1,1-1,1.9V119.4z"/>
<path class="st1" d="M73.7,118.9c0,0.9,0.9,1.4,0.9,1.9c0,0.2-0.2,0.4-0.5,0.4h-3.9c-0.3,0-0.5-0.2-0.5-0.4c0-0.5,0.9-1,0.9-1.9v-12
	c-1.2,0-1.4,0.2-1.9,0.6c-0.5,0.4-0.7,0.6-1,0.6c-0.2,0-0.4-0.2-0.4-0.5v-2.9c0-0.4,0.1-0.5,0.5-0.5s0.6,0.2,2.2,0.2h4.1
	c0.4,0,0.9-0.1,1.4-0.1c0.4,0,0.6-0.1,0.7-0.1c0.4,0,0.6,0.2,0.6,0.6v2.7c0,0.4-0.2,0.6-0.6,0.6c-0.3,0-0.5-0.2-0.8-0.6
	c-0.4-0.5-0.4-0.6-1.8-0.6V118.9z"/>
<path class="st1" d="M89.6,118.9c0,0.9,1,1.4,1,1.9c0,0.2-0.2,0.4-0.5,0.4h-3.9c-0.3,0-0.5-0.2-0.5-0.4c0-0.5,0.9-1,0.9-1.9V116
	l-3.5,1.6v1.3c0,0.9,1,1.4,1,1.9c0,0.2-0.2,0.4-0.5,0.4h-3.9c-0.3,0-0.5-0.2-0.5-0.4c0-0.5,0.9-1,0.9-1.9v-12.2
	c0-0.9-0.9-1.4-0.9-1.9c0-0.2,0.2-0.4,0.5-0.4h3.9c0.3,0,0.5,0.2,0.5,0.4c0,0.5-1,1-1,1.9v7.7l3.5-1.6v-6.1c0-0.9-0.9-1.4-0.9-1.9
	c0-0.2,0.2-0.4,0.5-0.4H90c0.3,0,0.5,0.2,0.5,0.4c0,0.5-1,1-1,1.9V118.9z"/>
<path class="st1" d="M100.5,119.4v-13.1c0-1.2,0.9-1.8,2.1-1.8h4.3c1.3,0,2.2,0.9,2.2,1.9v12.9c0,0.9-0.8,1.9-2.2,1.9h-4.3
	C101.4,121.2,100.5,120.5,100.5,119.4z M103.6,118.7h2.4c0.1,0,0.2-0.1,0.2-0.2v-11.5c0-0.1-0.1-0.2-0.2-0.2h-2.4
	c-0.1,0-0.2,0.1-0.2,0.2v11.5C103.4,118.6,103.5,118.7,103.6,118.7z"/>
<g>
	<path class="st1" d="M14.8,89.4c0,1.3-1.3,2.8-3.5,2.8H4.8c-1.9,0-3.3-0.9-3.3-2.7v-21c0-1.7,1.4-2.7,3.3-2.7H11
		c2.1,0,3.5,1.4,3.5,2.9V72c0,0.5-0.1,0.7-0.4,0.9c-0.6,0.4-3.3,2.3-3.7,2.3c-0.3,0-0.6-0.3-0.6-0.7v-4.4c0-0.2-0.2-0.5-0.5-0.5H6.6
		c-0.2,0-0.5,0.2-0.5,0.5v17.8c0,0.2,0.2,0.5,0.5,0.5h3c0.2,0,0.5-0.2,0.5-0.5V85c0-0.5,0.1-0.7,0.4-0.9c0.6-0.4,3.3-2.3,3.7-2.3
		c0.3,0,0.6,0.3,0.6,0.7V89.4z"/>
	<path class="st1" d="M36.2,91.6c0,0.3-0.3,0.6-0.7,0.6h-6.1c-0.5,0-0.8-0.3-0.8-0.6c0-0.5,0.8-0.6,0.8-1.4c0-0.4-2.4-6.6-2.4-6.6
		l-1.3,0.8c-0.1,0.1-0.1,0.2-0.1,0.4v3.9c0,1.4,1.5,2.2,1.5,2.9c0,0.3-0.3,0.6-0.8,0.6h-6.2c-0.5,0-0.8-0.3-0.8-0.6
		c0-0.7,1.5-1.5,1.5-2.9V69.3c0-1.4-1.5-2.2-1.5-2.9c0-0.3,0.3-0.6,0.8-0.6l10.6,0c2.3,0,3.8,1,3.8,3.4v8.2c0,1.5-1.6,2.4-3.2,3.4
		c1.4,4.1,2.9,7.8,3.1,8.3C35.6,90.9,36.2,90.8,36.2,91.6z M25.6,69.6v9.8l3.5-2.4c0.8-0.5,0.8-0.8,0.8-1v-5.9
		c0-0.3-0.1-0.5-0.5-0.5H25.6z"/>
	<path class="st1" d="M40.8,89.4V68.6c0-1.9,1.5-2.8,3.3-2.8H51c2.1,0,3.5,1.5,3.5,3v20.4c0,1.4-1.3,3-3.5,3h-6.9
		C42.2,92.2,40.8,91.2,40.8,89.4z M45.7,88.4h3.8c0.1,0,0.2-0.1,0.2-0.2V69.9c0-0.1-0.1-0.2-0.2-0.2h-3.8c-0.1,0-0.2,0.1-0.2,0.2
		v18.2C45.5,88.2,45.6,88.4,45.7,88.4z"/>
	<path class="st1" d="M60.3,89.3v-6.4c0-0.6,0.4-1,0.9-1c0.7,0,2.6,1.3,3.2,1.7c0.3,0.2,0.6,0.5,0.6,1.4v3.3h3.6v-4.9
		c0-0.5-0.2-0.8-0.6-1.1l-5.8-4c-1-0.7-1.9-1.4-1.9-3v-7c0-1.7,1.5-2.7,3.3-2.7h5.8c2.1,0,3.5,1.4,3.5,2.9v5.4c0,0.6-0.4,1-0.8,1
		c-0.8,0-2.7-1.3-3.3-1.7c-0.3-0.2-0.6-0.5-0.6-1.4v-2.3H65v4.3c0,0.5,0.1,0.8,0.7,1.2l5.8,4c1.2,0.8,1.8,1.5,1.8,3v7.2
		c0,1.4-1.6,2.9-3.3,2.9h-6.2C61.7,92.2,60.3,90.8,60.3,89.3z"/>
	<path class="st1" d="M78.9,89.3v-6.4c0-0.6,0.4-1,0.9-1c0.7,0,2.6,1.3,3.2,1.7c0.3,0.2,0.6,0.5,0.6,1.4v3.3h3.6v-4.9
		c0-0.5-0.2-0.8-0.6-1.1l-5.8-4c-1-0.7-1.9-1.4-1.9-3v-7c0-1.7,1.5-2.7,3.3-2.7h5.8c2.1,0,3.5,1.4,3.5,2.9v5.4c0,0.6-0.4,1-0.8,1
		c-0.8,0-2.7-1.3-3.3-1.7c-0.3-0.2-0.6-0.5-0.6-1.4v-2.3h-3.3v4.3c0,0.5,0.1,0.8,0.7,1.2l5.8,4c1.2,0.8,1.8,1.5,1.8,3v7.2
		c0,1.4-1.6,2.9-3.3,2.9h-6.2C80.3,92.2,78.9,90.8,78.9,89.3z"/>
	<path class="st1" d="M105.9,69.6H103V78l3.1-2c0.3-0.2,0.6-0.3,0.9-0.3c0.4,0,0.7,0.3,0.7,0.7v3.2c0,0.6-0.1,0.9-0.7,1.2l-4,2.6
		v5.3c0,1.4,1.5,2.2,1.5,2.9c0,0.3-0.3,0.6-0.8,0.6h-6.2c-0.5,0-0.8-0.3-0.8-0.6c0-0.7,1.5-1.5,1.5-2.9V69.3c0-1.4-1.5-2.2-1.5-2.9
		c0-0.3,0.3-0.6,0.8-0.6h11.8c0.8,0,1.2,0.3,1.2,1.2v3.6c0,0.5-0.1,0.7-0.4,0.9c-0.6,0.4-3.3,2.3-3.7,2.3c-0.3,0-0.6-0.3-0.6-0.7
		V69.6z"/>
	<path class="st1" d="M121,88.7c0,1.4,1.5,2.2,1.5,2.9c0,0.3-0.3,0.6-0.8,0.6h-6.2c-0.5,0-0.8-0.3-0.8-0.6c0-0.7,1.5-1.5,1.5-2.9
		V69.3c0-1.4-1.5-2.2-1.5-2.9c0-0.3,0.3-0.6,0.8-0.6h6.2c0.5,0,0.8,0.3,0.8,0.6c0,0.7-1.5,1.5-1.5,2.9V88.7z"/>
	<path class="st1" d="M136.1,88.7c0,1.4,1.5,2.2,1.5,2.9c0,0.3-0.3,0.6-0.8,0.6h-6.2c-0.5,0-0.8-0.3-0.8-0.6c0-0.7,1.5-1.5,1.5-2.9
		v-19c-2,0-2.2,0.3-2.9,0.9c-0.8,0.7-1.1,1-1.6,1c-0.4,0-0.6-0.3-0.6-0.7v-4.6c0-0.6,0.2-0.8,0.8-0.8c0.6,0,1,0.3,3.5,0.3h6.4
		c0.6,0,1.5-0.1,2.2-0.2c0.6-0.1,0.9-0.1,1.2-0.1c0.6,0,0.9,0.3,0.9,0.9v4.3c0,0.6-0.4,0.9-0.9,0.9c-0.5,0-0.7-0.3-1.3-1
		c-0.7-0.8-0.7-1-2.9-1V88.7z"/>
</g>
<rect x="0.2" y="59.8" class="st0" width="140.2" height="1.1"/>
<rect x="1.8" y="98.2" class="st0" width="140.2" height="1.1"/>
<g>
	<path class="st1" d="M73.1,41.2c0,0.2-0.2,0.4-0.4,0.4h-5.9c-0.2,0-0.4-0.2-0.4-0.4V13c0-0.2,0.2-0.4,0.4-0.4h5.9
		c0.2,0,0.4,0.2,0.4,0.4v7.2l7.3-2.4v-6.4c0-2.4-2.1-4.7-5.4-4.7H64.4c-2.9,0-5.1,1.5-5.1,4.4v32.1c0,2.8,2.2,4.4,5.1,4.4H75
		c3.3,0,5.4-2.4,5.4-4.7v-8.8l-7.3,2.4V41.2z"/>
	<path class="st1" d="M80.3,22.2h-2.4c-0.7,0-1.2,0.3-1.2,1v7.3c0,0.6,0.5,1,1.2,1h2.4c0.8,0,1.2-0.6,1.2-1.1v-7.2
		C81.5,22.7,81.1,22.2,80.3,22.2z M79.9,30.1C79.9,30.1,79.9,30.2,79.9,30.1l-1.4,0.1c0,0-0.1-0.1-0.1-0.1v-6.4c0,0,0-0.1,0.1-0.1
		h1.3c0,0,0.1,0,0.1,0.1V30.1z"/>
	<path class="st1" d="M72.3,30.2c-0.2-0.2-0.9-0.6-1.2-0.6c-0.2,0-0.3,0.1-0.3,0.4v2.3c0,0.5,0.5,1,1.3,1h2.2c0.6,0,1.2-0.5,1.2-1
		v-2.6c0-0.5-0.2-0.8-0.6-1.1l-2.1-1.5c-0.2-0.2-0.2-0.3-0.2-0.4v-1.6h1.2V26c0,0.3,0.1,0.4,0.2,0.5c0.2,0.1,0.9,0.6,1.2,0.6
		c0.1,0,0.3-0.2,0.3-0.4v-2c0-0.5-0.5-1-1.3-1h-2.1c-0.7,0-1.2,0.3-1.2,1v2.5c0,0.6,0.3,0.8,0.7,1.1l2.1,1.4
		c0.2,0.1,0.2,0.2,0.2,0.4v1.8h-1.3v-1.2C72.5,30.4,72.4,30.2,72.3,30.2z"/>
</g>
</svg>
