<?xml version="1.0" encoding="utf-8"?>
<!-- Generator: Adobe Illustrator 20.1.0, SVG Export Plug-In . SVG Version: 6.00 Build 0)  -->
<svg version="1.1" id="Layer_1" xmlns="http://www.w3.org/2000/svg" xmlns:xlink="http://www.w3.org/1999/xlink" x="0px" y="0px"
	 viewBox="0 0 670.7 404.9" style="enable-background:new 0 0 670.7 404.9;" xml:space="preserve">
<style type="text/css">
	.st0{clip-path:url(#SVGID_2_);fill:#EDEDEE;}
	.st1{clip-path:url(#SVGID_2_);fill:#20396A;}
	.st2{clip-path:url(#SVGID_2_);fill:#E14B3A;}
	.st3{clip-path:url(#SVGID_2_);fill-rule:evenodd;clip-rule:evenodd;fill:#E14B3A;}
</style>
<g>
	<defs>
		<rect id="SVGID_1_" width="670.7" height="404.9"/>
	</defs>
	<clipPath id="SVGID_2_">
		<use xlink:href="#SVGID_1_"  style="overflow:visible;"/>
	</clipPath>
	<path class="st0" d="M478.3,139.8c0,77.2-62.6,139.8-139.8,139.8s-139.8-62.6-139.8-139.8S261.4,0,338.6,0S478.3,62.6,478.3,139.8"
		/>
	<path class="st1" d="M225.6,179.6c71.6,56.3,143.7-78.5,230.8-23.6c-0.4,3-0.9,6-1.5,8.9c-58.5-29.3-118.2,55.4-186.6,42.9
		c50.5,17.9,113.5-21.6,144.9-18.4c11.8,1.2,25.2,12.9,12.6,31.9c-25.5,27.6-63.6,42.8-103.7,37.5c-46.8-6.2-83.7-38.6-97.9-80.5
		C224.6,178.8,225.1,179.2,225.6,179.6"/>
	<path class="st2" d="M289.3,37l27.5,54.2L304.2,25c-12.4,3.6-24,9.2-34.5,16.4l42.5,54.9L289.3,37z"/>
	<path class="st2" d="M258.6,58.2l45.1,40.5l-35.3-56.5c-10.4,7.4-19.6,16.4-27.3,26.7l60.2,36.3L258.6,58.2z"/>
	<path class="st2" d="M237.7,89l56.7,21.5l-54-40.5c-7.4,10.3-13.2,21.8-17.1,34.3l71.1,13L237.7,89z"/>
	<path class="st2" d="M292.1,131.2l-72.3-6.6c1,5.9,3.8,11.9,9.1,17.4L292.1,131.2z"/>
	<path class="st2" d="M222.6,106.5c-1.3,4.6-2.4,9.3-3.2,14.1c0,1.3,0.2,2.5,0.4,3.8l70.3,0.4L222.6,106.5z"/>
	<path class="st3" d="M420.7,77.1c-4.2-3.6-9.2-5.9-14.7-6.8c3-0.8,6.2-0.8,9.1,0c-2.1-1.1-3.9-2.7-5.2-4.8
		c-0.5,0.7-0.6,1.6-0.3,2.4c-3-2.5-6.9-3.6-10.8-3.2c2.4,8.7,4.1,16.6,4.8,25.4c1.8-5.6,6.4-8.9,12.2-10.1c-4.4-1.1-9-0.9-13.3,0.6
		C407.4,76,414.5,74.6,420.7,77.1"/>
	<path class="st3" d="M420.3,72.6c-0.4-0.8-0.7-1.6-0.9-2.4c-0.6-0.5-1.2-1.2-1.6-1.8c-0.7,0.7-0.8,1.8-0.3,2.7
		C418.4,71.5,419.4,72,420.3,72.6"/>
	<path class="st2" d="M432.7,132.2c3.4-18.7,3.6-34.1-8-51.1c-3.3,4.9-5.1,10.6-5.2,16.5c-3.4-4.5-2.9-10.8,1.2-14.7
		c-6.4,1.6-12,4.7-16.8,9.3c1.1,6,2.3,14.5,5.1,26.8C420.4,121.5,429.1,128.8,432.7,132.2"/>
	<path class="st2" d="M443.6,84.1c0.7,0.2,1.4,0.4,2,0.7l6.2,2.7l-3.9-5.6c-2.3-3.3-5.7-5.6-9.5-6.7c-0.2-0.3-0.4-0.6-0.6-0.9
		c2.9-1.5,5.9-3,8.9-4.3l4.4-1.9l-4.5-1.6c-4.4-1.6-9.1-1.4-13.2,0.4c-0.6-0.5-1.2-1-1.8-1.5c0.8-1.2,1.7-2.2,2.8-3.2l-1.9-3.2
		c-1.6,0.6-3.1,1.4-4.5,2.3c-1.4-1.6-2.8-3.1-4.2-4.6l0-0.4l2.1-0.6l-1.2-0.5c2.7-0.3,5.4-1.4,7.6-3.1l2.4-1.9l-2.7-1.3
		c-4.1-2-8.6-3.1-13.1-3.1c-2.1,0-4.2,0.2-6.2,0.7c-1-0.8-2-1.5-3-2.3l1.6-2.9c1-1,1.8-2.1,2.5-3.4l2.2-3.9l-4.4,1.1
		c-3.4,0.8-6.6,2.1-9.6,3.8c-1.2-0.8-2.5-1.6-3.8-2.3l0-0.5l-0.4,0.3c-0.3-0.2-0.5-0.3-0.8-0.5c0.4-1.4,0.9-2.8,1.6-4.1l-2.9-2.4
		c-1.4,1.1-2.6,2.4-3.7,3.7c-2.1-1.1-4.2-2.1-6.4-3l0,0.1c-0.2-0.1-0.3-0.2-0.5-0.2c-0.1,0-0.2-0.1-0.3-0.1l0,0
		c-0.3-0.1-0.7-0.3-1-0.4c-0.1-0.1-0.3-0.1-0.4-0.2c-0.5-0.2-1.1-0.4-1.6-0.6c-0.1,0-0.1,0-0.2-0.1c-0.1,0-0.2-0.1-0.4-0.1
		c-0.1,0-0.2-0.1-0.3-0.1c-8.7-3.4-17.9-5.8-27.6-7c-1.9-0.3-3.9-0.4-5.8-0.6c-2.3-0.3-4.4-0.5-6.5-0.4c-12.2-0.4-24.2,1.1-35.5,4.3
		l20,67.2l0-63.5l6.1,60.7c0,0,12.5-62.7,13.5-64.1l-5.5,67.4l17.3-43.2c0.2,0.5-10.7,43.3-10.7,43.3l13.3-20.5c0,0-3.1,7.4-3.1,7.4
		s5.2-2.7,5.3-2.6l-9,21.2c0,0,21.7-21.6,21.7-21.6l-16,24.5l21.5-5.5c0,0-16,11.6-16,11.6c-0.6,0.1-1.3,0.3-1.9,0.5
		c-11.1-12.1-27.4-15.3-42.8-9.2c-15.5,6.1-25.4,24.7-23,38.4c-2.7,1.2-5.5,2.4-8.4,3.4l-54.6,5.9c25.6,20.4,62.5,3.3,87.4-10.8
		c27.6-15.7,51.7-22.8,74-19.7c0.7,0.1,1.1,0.2,1.9,0.4c3.5-16.3,2.9-33.8-2-50.5c-2.6,3.5-4.2,6.5-4.1,8.9l-2.1-1.9
		c-0.2,4-1.3,6.9-3.3,8.8l-1.2-1.8c0.2,4.7-1.2,7.8-3.2,10.3c-1.5-9.1-1.2-17.5,7.3-22.8c-2.9-1.1-6.2-0.6-8.6,1.3
		c-0.4-0.9-0.1-2,0.8-2.4c-3.8,1.7-7.3,4-10.4,6.8c-0.4-1-0.1-2.2,0.6-3c-4,2.4-8,4.8-11.9,7.5c3.6-9.6,12.6-16.2,22.8-16.9
		c-3.2-1.8-7.1-1.9-10.4-0.4c0.2-0.9,0.9-1.7,1.8-2c-4.1,1.7-8.7,2-13,0.9c8.6-6.2,20-6.9,29.3-1.9c-1.4-1.6-3.2-2.8-5.2-3.5
		c1.2-0.4,1.9-0.6,2.1-0.7c-3.2-1.5-6.3-2.6-9.3-3c0.9-0.5,1.5-0.8,1.9-0.7c-3.3-2-6.7-3.4-10.2-4.3c7.4-2.5,15.7,0,20.5,6.2
		c-1.1-7.6,1.9-15.2,7.9-20c-1.7,3.3-2.6,6.9-2.6,10.7c0.5-0.9,1.2-1.6,2.1-2.1c0,3.3-1.1,6.5-3.2,9c5-5.7,11.7-9.7,19-11.5
		c-1.9,3.3-4.9,5.8-8.5,7c1,0.8,2.4,1,3.6,0.6c-1.5,2.7-4.2,4.4-7.2,4.6c0.2,0.9,1,1.5,2,1.5c-0.4,2-1.3,3.8-2.7,5.2
		c8.4-8.4,21.2-10.5,31.8-5.2c-3.6,2.9-8.5,3.6-12.8,1.8c0,1.3,0.7,2.4,1.9,2.9c-3.6,1-7.3,1-10.9,0c0.6,1.2,1.5,2.1,2.6,2.7
		c-2.9,0.9-5.9,1.5-8.9,1.8c5.9,0.2,11.4,2.2,16.1,5.5c0.3-2.4,1.3-4.8,2.9-6.7c0.1,1.7,0.3,3.3,0.8,4.9c-0.7,0.4-1,1.1-0.9,1.9
		c0.6-0.2,1.1-0.4,1.5-0.8c0,1.5,0,2.9-0.2,4.4c0.1,0.1,0.3,0.3,0.4,0.4c1.8-4.1,5.2-7.3,9.5-8.7c-4,3.5-6.2,8.6-6.1,13.9
		c4.1-6.3,11.9-8.9,19-6.4c-5.9,2.5-11.6,5.5-17,9c6.4-2.1,13.5,0.2,17.4,5.7c-5.3-2.3-11.1-3-16.8-1.9c10.1,19.1,14.8,40,14.3,60.6
		c0.7,0.7,9,9.6,12.5,13.9C459.8,130.1,454.8,105.3,443.6,84.1"/>
	<path class="st2" d="M82,264.1c1.7,2.8,2.5,5.6,2.5,8c0,10.7-13.3,13.8-15.4,13.5c0.5,0.7,1,1.4,1.4,2.2
		c0.4,0.8,15.7-1.9,15.7-13.4C86.2,271.3,84.9,267.5,82,264.1"/>
	<path class="st2" d="M33.2,298.8c0-12.8,8.5-21,19.8-21c6.3,0,11.6,2.4,15.2,6.7c-3.5-5.8-9.5-9-16.9-9c-11.3,0-19.8,8.2-19.8,21
		c0,5.8,1.8,10.7,4.8,14.3C34.4,307.5,33.2,303.5,33.2,298.8"/>
	<path class="st2" d="M85,320.4c0,8.6-9.8,22.3-35.2,22.3c-15.9,0-28.9-6.4-37-17c7.9,12,21.6,19.3,38.7,19.3
		c25.4,0,35.2-13.7,35.2-22.3c0-3.2-1.2-5.7-3-7.7C84.5,316.6,85,318.3,85,320.4"/>
	<path class="st2" d="M82,264.1c1.7,2.8,2.5,5.6,2.5,8c0,10.7-13.3,13.8-15.4,13.5c0.5,0.7,1,1.4,1.4,2.2
		c0.4,0.8,15.7-1.9,15.7-13.4C86.2,271.3,84.9,267.5,82,264.1"/>
	<path class="st2" d="M33.2,298.8c0-12.8,8.5-21,19.8-21c6.3,0,11.6,2.4,15.2,6.7c-3.5-5.8-9.5-9-16.9-9c-11.3,0-19.8,8.2-19.8,21
		c0,5.8,1.8,10.7,4.8,14.3C34.4,307.5,33.2,303.5,33.2,298.8"/>
	<path class="st2" d="M83.6,315c0.8,1.5,1.3,3.3,1.3,5.4c0,8.6-9.8,22.3-35.2,22.3c-15.9,0-28.9-6.4-37-17
		c7.9,12,21.6,19.3,38.7,19.3c25.4,0,35.2-13.7,35.2-22.3C86.6,319.5,85.4,317,83.6,315"/>
	<path class="st2" d="M119.5,277.4c0.9,1.9,1.4,4.3,1.4,7.5v43.9c0,9.4-4.8,12.7-11.5,12.7h-2.7c-3.7,0-6.8-0.8-8.9-3
		c2,3.9,5.8,5.3,10.6,5.3h2.7c6.7,0,11.5-3.3,11.5-12.7v-43.8C122.6,282.5,121.5,279.3,119.5,277.4"/>
	<path class="st2" d="M120.5,247c0.9,1.7,1.4,3.7,1.4,5.9c0,7.7-5.3,12.4-13.8,12.4c-4.8,0-8.7-1.5-11.1-4.1c2.2,4,6.7,6.4,12.8,6.4
		c8.5,0,13.8-4.8,13.8-12.4C123.5,251.8,122.5,249,120.5,247"/>
	<path class="st2" d="M184.4,281.9v1.5c0,6.1-3.6,9.4-10.5,9.4h-8.1v22.7c0,2.8,0.7,4.8,2.2,5.9c-0.4-1-0.6-2.1-0.6-3.6v-22.7h8.1
		c7,0,10.5-3.3,10.5-9.4v-1.5c0-2.9-0.8-5.2-2.5-6.6C184.1,278.8,184.4,280.2,184.4,281.9"/>
	<path class="st2" d="M166.4,266.4v6.6h1.7v-4.2c0-4.7-1.2-7.9-3.1-9.9C165.9,260.8,166.4,263.2,166.4,266.4"/>
	<path class="st2" d="M183.4,322.2c0.8,1.5,1.4,3.4,1.4,5.6c0,8.7-7.9,14.9-20.4,14.9c-8.6,0-14.8-2.4-18.7-7.1
		c3.7,6.2,10.4,9.4,20.4,9.4c12.4,0,20.4-6.1,20.4-14.9C186.5,326.5,184.9,323.8,183.4,322.2"/>
	<path class="st2" d="M140.7,292.8h-1.5c-3.7,0-6.4-0.9-8.2-2.6c1.4,3.2,4.7,4.9,9.7,4.9V292.8z"/>
	<path class="st2" d="M211.2,333.5c0.8,1.8,2.3,3.1,4.2,3.9l0.7-1.6C214.2,335.4,212.5,334.7,211.2,333.5"/>
	<path class="st2" d="M215.2,283.9l10.2,29.6l0.4-1.3l-9-26c-1-3.3-2.3-5.8-3.9-7.6C213.8,280.1,214.6,281.9,215.2,283.9"/>
	<path class="st2" d="M262.7,279.5c0,0.1,0,0.1,0,0.2l-29.8,75.1c-3.4,8.7-8.3,11.6-13.9,11.6c-5.1,0-10-2.6-12.4-4.8
		c-0.2,1.6,6.7,7.1,14.1,7.1c5.6,0,10.5-2.9,13.9-11.6l29.8-75.1C264.6,281.5,263.9,280.6,262.7,279.5"/>
	<path class="st0" d="M0,293.2c0-26.8,18.9-46,46.4-46c25,0,34.7,13.1,34.7,21.6c0,11.5-15.3,14.2-15.7,13.4
		c-3.4-6.4-9.7-10-17.5-10c-11.3,0-19.8,8.2-19.8,21c0,12.7,8.6,21.2,19.8,21.2c8.5,0,14.8-4,17.8-10.7c0.4-0.8,15.8,1.9,15.8,13.4
		c0,8.6-9.8,22.3-35.2,22.3C18.7,339.4,0,320.2,0,293.2"/>
	<path class="st0" d="M90.4,249.6c0-7.5,5.3-12.3,13.8-12.3c8.7,0,14.2,4.6,14.2,12.3c0,7.6-5.3,12.4-13.8,12.4
		C95.9,262.1,90.4,257.3,90.4,249.6 M91.3,325.4v-43.8c0-9.4,5.1-12.6,11.7-12.6h2.7c7.1,0,11.7,2.9,11.7,12.6v43.8
		c0,9.4-4.8,12.7-11.5,12.7h-2.7C96.2,338.1,91.3,335.1,91.3,325.4"/>
	<path class="st0" d="M125.1,280.6v-1.5c0-6.1,3.6-9.4,10.7-9.4h1.5v-6.6c0-8.3,4.2-12.7,11.7-12.7h2.2c7,0,11.7,3,11.7,12.7v6.6
		h7.8c7,0,10.2,3,10.2,8.9v1.5c0,6.1-3.6,9.4-10.5,9.4h-8.1v22.7c0,4.5,1.8,6.8,5.7,6.8c3.6,0,5.7-1.8,7.5-4.1
		c0.4-0.7,5.7,3,5.7,9.6c0,8.7-7.9,14.9-20.4,14.9c-16.1,0-23.8-8.2-23.8-24.3v-25.5h-1.5C128.8,289.5,125.1,286.4,125.1,280.6"/>
	<path class="st0" d="M201.5,355.9l11.2-23.4c-3.1-0.7-5.6-2.2-6.7-4.9l-22.5-51.2c-0.5-1.4,7-7.5,14.6-7.6
		c5.5,0,10.9,2.7,13.7,11.9l10.2,29.6l9.6-29.5c2.7-9.2,8.2-12,13.4-12c7.5,0,14.9,6.1,14.3,7.6l-29.8,75.1
		c-3.4,8.7-8.3,11.6-13.9,11.6C207.9,363.1,200.8,357.3,201.5,355.9"/>
	<path class="st2" d="M474.8,308.1c6.1,1.3,11.3,1.7,14,3.6c-1.2-4.1-7.6-4.2-15.6-6c-9.4-1.9-18.8-5.2-24.4-12
		C454,302.2,464.4,306,474.8,308.1"/>
	<path class="st2" d="M513,260c1,1.8,1.5,3.7,1.5,5.6c0,7.7-9.2,14.2-9.7,13.7c-5.9-5.5-15-9.6-23.4-9.6c-7.9,0-11.9,2.5-11.9,6.8
		c0,1.6,0.6,2.6,1.8,3.4c-0.1-0.3-0.1-0.7-0.1-1c0-4.4,4-6.8,11.9-6.8c8.3,0,17.5,4.1,23.4,9.6c0.5,0.5,9.7-6,9.7-13.7
		C516.2,265.2,515.1,262.5,513,260"/>
	<path class="st2" d="M513.2,298.5c2.2,3.5,3.4,7.6,3.4,12.5c0,19.3-13.3,30.1-39.9,30.1c-17.3,0-27.2-4-31.9-9.4
		c3.7,6.5,13.8,11.7,33.5,11.7c26.6,0,39.9-10.8,39.9-30.1C518.2,307.2,516.4,302.4,513.2,298.5"/>
	<path class="st2" d="M589.5,325.2c0,9-10.5,15.8-29.6,15.8c-13.6,0-24.2-4.6-30.7-12.9c6.2,9.7,17.5,15.2,32.4,15.2
		c19.1,0,29.6-6.8,29.6-15.8c0-3.1-1.1-5.3-2.7-6.9C589.1,321.9,589.5,323.4,589.5,325.2"/>
	<path class="st2" d="M559.6,289.4c3.8,0,6.8,1.3,8.8,3.4c-1.9-3.6-5.5-5.7-10.5-5.7c-6.8,0-12.2,4.9-13,11.6h2.1
		C548.8,293.2,553.6,289.4,559.6,289.4"/>
	<path class="st2" d="M588.2,285.1c3.4,5.2,5.3,11.6,5.3,18.6v1.6c-0.1,4-1.4,6.8-5.3,6.8h-42.8c0.6,2.5,1.7,4.5,3.1,6.1
		c-0.6-1.1-1.2-2.3-1.5-3.7h30.3c0.1-0.1,0.1-0.2,0.2-0.3c0-0.1,0.9,0,2.2,0.3h10.1c4,0,5.2-2.9,5.3-6.8v-1.6
		C595.1,298,592.6,290.8,588.2,285.1"/>
	<path class="st2" d="M625.9,322.8c-0.3-0.7-0.4-1.4-0.4-2.2c0-5.2,5.6-7.4,16.1-7.6h1.6v-2.3h-3.3c-10.5,0.3-16.1,2.5-16.1,7.6
		C623.8,320.2,624.6,321.7,625.9,322.8"/>
	<path class="st2" d="M617.3,300.1c1.1-0.3,2.3-0.6,3.6-0.8c1.9-4,5.3-8.4,13.4-8.4c3.4,0,6.1,1,7.8,2.8c-1.6-3.3-4.8-5.1-9.5-5.1
		c-8.5,0-11.9,4.9-13.7,9c-0.1,0.3-10,0.9-14.8-3.8C606.6,298.7,613.2,299.9,617.3,300.1"/>
	<path class="st2" d="M665,282.2c2.7,4.4,4,9.9,4,16.6v38.5c0,1.4-5.1,3-10.1,3c-4.8,0-8.6-1.5-11.3-4.5c2.6,4.5,7.1,6.8,13,6.8
		c5.1,0,10.1-1.6,10.1-3v-38.5C670.7,293.2,668.9,286.9,665,282.2"/>
	<path class="st2" d="M644.2,329.4c-4.5,7-12.8,11.1-22.7,11.1c-8,0-14.3-2.8-18.2-7.4c3.6,6,10.6,9.8,19.8,9.8
		c9.5,0,17.6-3.9,22.2-10.4C644.9,331.5,644.5,330.5,644.2,329.4"/>
	<path class="st0" d="M438,319.6c0-6.6,8.2-13.7,9-13c5.7,5.2,16.8,10.2,26.2,10.2c8.5,0,12.3-2.5,12.3-7c0-5.5-7-5.5-15.8-7.4
		c-14.8-3-29.6-9.3-29.6-27.6c0-18.2,13.4-29.4,37.7-29.4c23.2,0,33.3,8.1,33.3,16.8c0,7.6-9.2,14.2-9.7,13.7
		c-5.9-5.5-15-9.6-23.4-9.6c-7.9,0-11.9,2.5-11.9,6.8c0,5.2,7.1,4.8,16.4,6.8c17.3,3.8,30.6,11.3,30.6,27.6
		c0,19.3-13.3,30.1-39.9,30.1C447.3,337.7,438,328.9,438,319.6"/>
	<path class="st0" d="M518.8,302.8c0-20.8,15.2-36.1,36.1-36.1c20.8,0,35.2,14.2,35.2,33.7v1.6c-0.1,4-1.4,6.8-5.3,6.8H542
		c1.6,7.1,7.4,10.7,15.7,10.7c8.2,0,13.8-4,16.4-8.6c0-0.3,12,1,12,10.9c0,9-10.5,15.8-29.6,15.8
		C533.4,337.7,518.8,324.5,518.8,302.8 M541.6,295.4h24.9c-0.1-7-4.6-11.6-11.9-11.6C547.7,283.8,542.4,288.7,541.6,295.4"/>
	<path class="st0" d="M595.5,317.3c0-15.4,12.7-22.8,41.5-22.9h2.6c-0.5-5.9-4.2-9-10.5-9c-8.5,0-11.9,4.9-13.7,9
		c-0.1,0.4-17.3,1.4-17.3-10.2c0-10.7,10.1-17.3,32.5-17.3c24.3,0,35,9.4,35,28.8v38.5c0,1.4-5.1,3-10.1,3
		c-7.5,0-12.7-3.7-14.8-10.9c-4.5,7-12.8,11.1-22.7,11.1C604.4,337.2,595.5,329,595.5,317.3 M639.8,309.6v-2.3h-3.3
		c-10.5,0.3-16.1,2.5-16.1,7.6c0,4,3.1,6.3,7.9,6.3C635.3,321.2,639.8,316.4,639.8,309.6"/>
	<path class="st0" d="M327.5,325.8c-0.5,0.2-1.1,0.6-1.8,1.3c-1.3,1.3-2.6,1.7-4,1.3l0.6-1.3c0.6-1.7,1-3.3,1.1-4.8
		c0.1-1.5-0.1-2.8-0.6-4c-0.5-1.1-1.2-2-2.1-2.7c-0.9-0.7-2.1-1-3.6-1c-1.8,0-3.4,0.3-4.9,1c-1.5,0.7-2.9,1.6-4.2,2.7
		c-1.3,1.1-2.4,2.4-3.3,4c-0.9,1.5-1.7,3.1-2.2,4.8c-0.7,0.7-1.4,1.4-2.2,2.2c-0.8,0.8-1.5,1.4-2.3,2.1c-0.8,0.6-1.5,1.1-2.2,1.5
		c-0.7,0.4-1.3,0.6-1.9,0.6c-0.4,0-0.4-0.6,0-1.8s0.9-2.6,1.4-4.1l5.7-16.8h5.9l1.5-4.4h-5.9c0.7-1.9,1.2-3.5,1.6-4.8
		c0.2-0.7,0.5-1.3,0.7-2H298c-0.2,0.6-0.4,1.2-0.7,1.9c-0.3,0.6-0.5,1.3-0.8,2.2c-0.3,0.8-0.6,1.7-0.9,2.7h-16.5l-1.6,4.4H294
		c-1.1,3-2.2,6.1-3.3,9.2c-1.1,3.1-2.1,5.7-2.8,7.9c-0.5,1.3-1,2.6-1.4,4c-0.4,1.4-0.7,2.7-0.8,3.8c-0.1,1.2,0.2,2.1,0.7,2.9
		c0.5,0.8,1.5,1.2,3,1.2c2,0,3.9-0.6,5.8-1.7c1.9-1.2,3.5-2.5,5-3.9c0.6-0.5,1.1-1.2,1.7-1.8c0.2,1.4,0.6,2.7,1.2,3.7
		c0.7,1.1,1.6,2,2.7,2.7c1.1,0.7,2.4,1,3.9,1c2.3,0,4.3-0.8,6.1-2.3c1.8-1.5,3.4-3.4,4.6-5.8c1.6,0.3,3.1,0.2,4.6-0.5
		c1.5-0.6,2.7-1.5,3.6-2.7c0.4-0.6,0.7-1.1,0.7-1.5c0-0.4-0.1-0.8-0.4-0.9C328.5,325.6,328.1,325.6,327.5,325.8 M317.5,322.1
		c-0.7,0.5-1.2,1.2-1.6,2c-0.4,0.8-0.5,1.7-0.5,2.6c0.1,0.9,0.4,1.8,0.9,2.4l0.8,0.8c-1,1.9-2.1,3.5-3.4,4.8
		c-1.3,1.3-2.6,1.7-3.8,1.2c-0.9-0.3-1.3-1.3-1.1-3.1c0.1-1.7,0.6-3.7,1.4-5.9c1.3-3.2,2.6-5.6,4.1-7.1c1.5-1.5,2.7-2.2,3.8-1.9
		c1.3,0.4,1.9,1.5,1.9,3.4C319,321.4,318.2,321.6,317.5,322.1"/>
	<path class="st0" d="M410.5,325.8c-0.3-0.1-0.8,0-1.4,0.2c-0.6,0.2-1.1,0.6-1.6,1.2c-0.7,0.7-1.4,1.4-2.3,2.3
		c-0.8,0.8-1.7,1.6-2.6,2.3c-0.9,0.7-1.9,1.3-2.8,1.7c-1,0.4-2,0.7-3,0.7c-0.8,0-1.4-0.2-2-0.5c-0.6-0.3-1-0.8-1.4-1.3
		c-0.3-0.5-0.6-1.1-0.7-1.8c-0.1-0.7-0.1-1.3,0-1.9c0.3,0.2,0.6,0.3,0.9,0.5c0.3,0.1,0.6,0.2,1,0.3c0.3,0.1,0.7,0.1,1.2,0.1
		c2.7,0,4.8-0.8,6.3-2.3c1.5-1.5,2.4-3.2,2.7-4.9c0.3-1.8-0.1-3.4-1-4.9c-1-1.5-2.6-2.3-4.8-2.3c-2.5,0-4.7,0.6-6.4,1.7
		c-1.8,1.2-3.2,2.6-4.3,4.4c-1.1,1.8-1.8,3.7-2.1,5.8c0,0.1,0,0.2,0,0.4c-0.7,0.7-1.5,1.4-2.2,2.1c-0.8,0.8-1.5,1.4-2.2,2.1
		c-0.7,0.6-1.4,1.1-2.1,1.5c-0.7,0.4-1.3,0.6-1.9,0.6c-0.4,0-0.5-0.5-0.2-1.4c0.2-0.9,0.6-2,1.1-3.4c0.5-1.3,1-2.8,1.6-4.5
		c0.6-1.6,1.1-3.2,1.5-4.7c0.4-1.5,0.5-2.8,0.5-3.9c0-1.1-0.4-1.8-1.2-2c-1.2-0.4-2.5-0.2-4,0.6c-1.5,0.8-3,2.1-4.6,3.7
		c-1.6,1.6-3.1,3.4-4.7,5.5c-1.6,2-3,4-4.3,6c1-3,2.1-6.3,3.3-9.7c1.2-3.5,2.3-6.7,3.3-9.7c1.1-3.5,2.3-7,3.5-10.4h-6.7
		c-0.5,1.6-1.1,3.2-1.7,4.9c-0.5,1.5-1.1,3.2-1.8,5.1c-0.7,1.9-1.4,4-2.2,6.2c-0.3,0.6-0.7,1.3-1.2,2.2c-0.5,0.9-1,1.8-1.7,2.9
		c-0.7,1-1.4,2.1-2.1,3.2c-0.8,1.1-1.5,2.2-2.3,3.2c-0.7,0.7-1.4,1.4-2.2,2.2c-0.8,0.8-1.5,1.4-2.3,2.1c-0.8,0.6-1.5,1.1-2.2,1.5
		c-0.7,0.4-1.3,0.6-1.9,0.6c-0.4,0-0.4-0.6,0-1.8c0.4-1.2,0.9-2.6,1.4-4.1l5.7-16.8h5.9l1.5-4.4h-5.9c0.7-1.9,1.2-3.5,1.6-4.8
		c0.2-0.7,0.5-1.3,0.7-2h-6.8c-0.2,0.6-0.4,1.2-0.7,1.9c-0.3,0.6-0.5,1.4-0.8,2.2c-0.3,0.8-0.6,1.7-0.9,2.7h-16.5l-1.6,4.4h16.5
		c-1.1,3-2.2,6.1-3.3,9.2c-1.1,3.1-2.1,5.7-2.8,7.9c-0.5,1.3-1,2.6-1.4,4c-0.4,1.4-0.7,2.7-0.8,3.8c-0.1,1.2,0.2,2.1,0.7,2.9
		c0.5,0.8,1.5,1.2,3,1.2c2,0,3.9-0.6,5.8-1.7c1.8-1.2,3.5-2.5,5-3.9c1.6-1.6,3.2-3.4,4.8-5.4c-0.8,2.4-1.5,4.5-2.2,6.4
		c-0.7,1.9-1.2,3.5-1.7,4.7h7.4v-0.1c0.1-0.2,0.5-0.7,1.1-1.6c0.6-0.9,1.3-1.9,2.2-3.2c0.9-1.2,1.8-2.5,2.8-3.9c1-1.4,2-2.6,2.9-3.8
		c0.9-1.2,1.7-2.1,2.4-2.9c0.7-0.8,1.2-1.1,1.6-1.1c0.3,0,0.3,0.4,0,1.2c-0.3,0.8-0.7,1.8-1.2,3.1c-0.5,1.2-0.9,2.6-1.4,4
		c-0.5,1.4-0.8,2.8-0.8,4s0.1,2.2,0.7,3.1c0.5,0.8,1.6,1.2,3.1,1.2c2,0,3.9-0.6,5.8-1.7c1.8-1.2,3.5-2.5,5-3.9
		c0.7-0.7,1.5-1.5,2.2-2.3c0.1,0.3,0.1,0.7,0.1,1.1c0.4,1.8,1.2,3.4,2.4,4.7c1.2,1.3,2.7,2,4.7,2.2c1.7,0.2,3.4-0.2,5.2-1
		c1.8-0.9,3.4-2,5-3.2c1.5-1.3,2.9-2.6,4.1-3.9c1.2-1.3,2.1-2.4,2.6-3.1c0.5-0.8,0.7-1.3,0.7-1.7C411,326.1,410.9,325.9,410.5,325.8
		 M394,323.3c0.4-1.1,1-2,1.6-2.9c0.6-0.9,1.3-1.5,2.2-2c0.8-0.4,1.7-0.3,2.5,0.3c0.6,0.5,0.8,1.2,0.5,2.1c-0.3,0.9-0.8,1.8-1.6,2.7
		c-0.8,0.9-1.7,1.6-2.8,2.1c-1.1,0.5-2.1,0.6-3.2,0.2C393.3,325.2,393.6,324.4,394,323.3"/>
	<path class="st0" d="M31.9,403.3v-11.9c0-0.8,0.5-1.3,1.2-1.3h4.8c3.2,0,4.9,1.3,4.9,3.8c0,1.6-0.9,2.6-2.5,3.1
		c2.1,0.5,3.1,1.9,3.1,3.5c0,2.7-1.7,4-5.5,4h-4.7C32.3,404.6,31.9,404.1,31.9,403.3 M37.5,396.5c1.7,0,2.8-0.9,2.8-2.3
		c0-1.4-0.9-2.2-2.8-2.2h-3.4v4.4H37.5z M37.6,402.8c2.3,0,3.3-0.7,3.3-2.4c0-1.5-1.1-2.3-3.2-2.3h-3.6v4.6H37.6z"/>
	<path class="st0" d="M50.4,403.3v-11.9c0-0.8,0.5-1.3,1.2-1.3H60c0.7,0,1.1,0.4,1.1,1v0.1c0,0.6-0.4,1-1.1,1h-7.3v4h5.7
		c0.7,0,1.1,0.3,1.1,0.9v0.1c0,0.6-0.4,1-1.1,1h-5.7v4.4h7.4c0.7,0,1,0.3,1,0.9v0.1c0,0.6-0.3,1-1,1h-8.5
		C50.9,404.6,50.4,404.1,50.4,403.3"/>
	<path class="st0" d="M68.2,403.7v-12.3c0-0.8,0.4-1.3,1.1-1.3h0.4c0.7,0,1,0.3,1.4,0.9l7.2,10.1v-10c0-0.7,0.3-1,1-1h0.3
		c0.6,0,0.9,0.4,0.9,1v12.3c0,0.8-0.4,1.3-1.1,1.3h-0.2c-0.7,0-0.9-0.2-1.2-0.7l-7.5-10.7v10.3c0,0.7-0.3,1-1,1h-0.2
		C68.5,404.7,68.2,404.3,68.2,403.7"/>
	<path class="st0" d="M88.2,403.3v-11.9c0-0.8,0.5-1.3,1.2-1.3h8.4c0.7,0,1.1,0.4,1.1,1v0.1c0,0.6-0.4,1-1.1,1h-7.3v4h5.7
		c0.7,0,1.1,0.3,1.1,0.9v0.1c0,0.6-0.4,1-1.1,1h-5.7v4.4h7.4c0.7,0,1,0.3,1,0.9v0.1c0,0.6-0.3,1-1,1h-8.5
		C88.7,404.6,88.2,404.1,88.2,403.3"/>
	<path class="st0" d="M106,403.5v-12c0-0.8,0.5-1.3,1.2-1.3h7.8c0.7,0,1.1,0.3,1.1,0.9v0.1c0,0.6-0.4,1-1.1,1h-6.8v4.6h5
		c0.7,0,1.1,0.3,1.1,0.9v0.1c0,0.6-0.4,0.9-1.1,0.9h-5v4.9c0,0.7-0.3,1-1,1H107C106.4,404.7,106,404.3,106,403.5"/>
	<path class="st0" d="M123.1,403.7v-12.5c0-0.7,0.3-1,1-1h0.3c0.7,0,1,0.4,1,1v12.5c0,0.7-0.3,1-1,1h-0.3
		C123.4,404.7,123.1,404.3,123.1,403.7"/>
	<path class="st0" d="M132.3,391.2v-0.1c0-0.6,0.4-1,1.1-1h10.2c0.7,0,1.1,0.3,1.1,1v0.1c0,0.6-0.4,1-1.1,1h-4v11.4c0,0.7-0.4,1-1,1
		h-0.3c-0.6,0-1-0.4-1-1v-11.4h-4C132.7,392.2,132.3,391.9,132.3,391.2"/>
	<path class="st0" d="M151.6,403.7v-12.5c0-0.7,0.3-1,1-1h0.3c0.7,0,1,0.4,1,1v12.5c0,0.7-0.3,1-1,1h-0.3
		C151.9,404.7,151.6,404.3,151.6,403.7"/>
	<path class="st0" d="M161.9,403.7v-12.3c0-0.8,0.4-1.3,1.1-1.3h0.4c0.7,0,1,0.3,1.4,0.9l7.2,10.1v-10c0-0.7,0.3-1,1-1h0.3
		c0.6,0,0.9,0.4,0.9,1v12.3c0,0.8-0.4,1.3-1.1,1.3h-0.2c-0.7,0-0.9-0.2-1.2-0.7l-7.5-10.7v10.3c0,0.7-0.3,1-1,1h-0.2
		C162.2,404.7,161.9,404.3,161.9,403.7"/>
	<path class="st0" d="M192.9,402.9v-0.3c-0.9,1.4-2.6,2.3-4.8,2.3c-4.2,0-6.8-3.1-6.8-7.5c0-4.4,3-7.5,7.4-7.5c3.5,0,5.5,1.9,5.5,3
		c0,1-1.2,1.3-1.2,1.2c-0.9-1.4-2.6-2.2-4.2-2.2c-3,0-5.1,2.3-5.1,5.6c0,3.2,1.9,5.6,4.9,5.6c2.3,0,4-1.3,4.3-3.2v-0.9h-3.4
		c-0.8,0-1.2-0.2-1.2-0.9v-0.1c0-0.6,0.4-0.9,1.2-0.9h4.2c0.8,0,1.2,0.5,1.2,1.3v6.2c0,0.1-0.3,0.2-0.8,0.2
		C193.5,404.7,192.9,404.4,192.9,402.9"/>
	<path class="st0" d="M218.9,397.4c0-4.4,3-7.5,7.4-7.5c3.6,0,5.5,2.1,5.5,3.1c0,1.1-1.3,1.3-1.3,1.2c-0.8-1.5-2.5-2.2-4.1-2.2
		c-2.9,0-5,2.2-5,5.4c0,3.2,2.1,5.5,5,5.5c1.9,0,3.6-1,4.2-2.5c0-0.1,1.4,0.2,1.4,1.2c0,1.1-1.9,3.4-5.7,3.4
		C221.9,404.9,218.9,401.8,218.9,397.4"/>
	<path class="st0" d="M238.7,398.7v-7.6c0-0.7,0.4-1,1-1h0.3c0.7,0,1,0.4,1,1v7.6c0,2.7,1.2,4.2,3.6,4.2c2.4,0,3.6-1.4,3.6-4.2v-7.5
		c0-0.7,0.3-1,1-1h0.4c0.6,0,1,0.3,1,1v7.6c0,4-2.1,6.2-5.9,6.2C240.7,404.9,238.7,402.8,238.7,398.7"/>
	<path class="st0" d="M258.1,403.3v-11.9c0-0.8,0.5-1.3,1.2-1.3h8.4c0.7,0,1.1,0.4,1.1,1v0.1c0,0.6-0.4,1-1.1,1h-7.3v4h5.7
		c0.7,0,1.1,0.3,1.1,0.9v0.1c0,0.6-0.4,1-1.1,1h-5.7v4.4h7.4c0.7,0,1,0.3,1,0.9v0.1c0,0.6-0.3,1-1,1h-8.5
		C258.6,404.6,258.1,404.1,258.1,403.3"/>
	<path class="st0" d="M275.1,402c0-0.8,1-1.3,1.1-1.2c0.8,1.2,2.4,2.2,4.4,2.2c2,0,3.2-0.8,3.2-2.3c0-1.6-1.7-2-3.6-2.5
		c-2.2-0.5-4.6-1.3-4.6-4.2c0-2.5,2.1-4.2,5.2-4.2c3.2,0,5,1.5,5,2.6c0,0.8-1,1.3-1.1,1.3c-0.8-1.1-2.2-2-3.9-2c-1.8,0-3,0.9-3,2.2
		c0,1.6,1.4,1.8,3.4,2.3c2.5,0.6,4.8,1.5,4.8,4.3c0,2.7-2.1,4.3-5.4,4.3C277.1,404.9,275.1,403.2,275.1,402"/>
	<path class="st0" d="M292,391.2v-0.1c0-0.6,0.4-1,1.1-1h10.2c0.7,0,1.1,0.3,1.1,1v0.1c0,0.6-0.4,1-1.1,1h-4v11.4c0,0.7-0.4,1-1,1
		H298c-0.6,0-1-0.4-1-1v-11.4h-4C292.4,392.2,292,391.9,292,391.2"/>
	<path class="st0" d="M318,400.4h-5.8l-1.3,3.3c-0.3,0.8-0.8,1.1-1.3,1.1c-0.7,0-1.3-0.5-1.3-0.7l5.1-13.3c0.2-0.5,0.5-0.7,1.6-0.7
		c1.1,0,1.4,0.3,1.6,0.7l5.2,13.3c0.1,0.2-0.6,0.7-1.3,0.7c-0.5,0-1.1-0.2-1.4-1.1L318,400.4z M312.7,398.5h4.6l-2.3-6.1
		L312.7,398.5z"/>
	<path class="st0" d="M344.9,397.4c0-4.4,3-7.5,7.4-7.5c3.6,0,5.5,2.1,5.5,3.1c0,1.1-1.3,1.3-1.3,1.2c-0.8-1.5-2.5-2.2-4.1-2.2
		c-2.9,0-5,2.2-5,5.4c0,3.2,2.1,5.5,5,5.5c2,0,3.6-1,4.2-2.5c0-0.1,1.4,0.2,1.4,1.2c0,1.1-1.9,3.4-5.7,3.4
		C347.9,404.9,344.9,401.8,344.9,397.4"/>
	<path class="st0" d="M364.2,397.4c0-4.4,3.1-7.5,7.3-7.5c4.3,0,7.3,3.1,7.3,7.5c0,4.4-3,7.5-7.3,7.5
		C367.2,404.9,364.2,401.8,364.2,397.4 M376.5,397.4c0-3.2-2.1-5.5-5-5.5c-2.9,0-5,2.2-5,5.5c0,3.2,2.1,5.5,5,5.5
		C374.5,402.9,376.5,400.6,376.5,397.4"/>
	<path class="st0" d="M386.1,403.3v-12.2c0-0.7,0.3-1,1-1h0.3c0.7,0,1,0.3,1,1v11.4h6.3c0.7,0,1.1,0.3,1.1,1v0.1c0,0.6-0.4,1-1.1,1
		h-7.4C386.6,404.6,386.1,404.1,386.1,403.3"/>
	<path class="st0" d="M402.6,403.3v-12.2c0-0.7,0.3-1,1-1h0.3c0.7,0,1,0.3,1,1v11.4h6.3c0.7,0,1.1,0.3,1.1,1v0.1c0,0.6-0.4,1-1.1,1
		h-7.4C403.1,404.6,402.6,404.1,402.6,403.3"/>
	<path class="st0" d="M419.1,403.3v-11.9c0-0.8,0.5-1.3,1.2-1.3h8.4c0.7,0,1.1,0.4,1.1,1v0.1c0,0.6-0.4,1-1.1,1h-7.3v4h5.7
		c0.7,0,1.1,0.3,1.1,0.9v0.1c0,0.6-0.4,1-1.1,1h-5.7v4.4h7.4c0.7,0,1.1,0.3,1.1,0.9v0.1c0,0.6-0.3,1-1.1,1h-8.5
		C419.6,404.6,419.1,404.1,419.1,403.3"/>
	<path class="st0" d="M447.9,402.9v-0.3c-0.9,1.4-2.6,2.3-4.8,2.3c-4.2,0-6.8-3.1-6.8-7.5c0-4.4,3-7.5,7.4-7.5c3.5,0,5.5,1.9,5.5,3
		c0,1-1.2,1.3-1.2,1.2c-0.9-1.4-2.6-2.2-4.2-2.2c-3,0-5.1,2.3-5.1,5.6c0,3.2,1.9,5.6,4.9,5.6c2.3,0,4-1.3,4.3-3.2v-0.9h-3.4
		c-0.8,0-1.2-0.2-1.2-0.9v-0.1c0-0.6,0.4-0.9,1.2-0.9h4.2c0.8,0,1.2,0.5,1.2,1.3v6.2c0,0.1-0.3,0.2-0.8,0.2
		C448.5,404.7,447.9,404.4,447.9,402.9"/>
	<path class="st0" d="M457.5,403.3v-11.9c0-0.8,0.5-1.3,1.2-1.3h8.4c0.7,0,1.1,0.4,1.1,1v0.1c0,0.6-0.4,1-1.1,1h-7.3v4h5.7
		c0.7,0,1.1,0.3,1.1,0.9v0.1c0,0.6-0.4,1-1.1,1h-5.7v4.4h7.4c0.7,0,1.1,0.3,1.1,0.9v0.1c0,0.6-0.3,1-1.1,1h-8.5
		C458,404.6,457.5,404.1,457.5,403.3"/>
	<path class="st0" d="M500.7,400.4h-5.8l-1.3,3.3c-0.3,0.8-0.8,1.1-1.3,1.1c-0.7,0-1.3-0.5-1.3-0.7l5.1-13.3
		c0.2-0.5,0.5-0.7,1.6-0.7c1.1,0,1.4,0.3,1.6,0.7l5.2,13.3c0.1,0.2-0.6,0.7-1.3,0.7c-0.5,0-1.1-0.2-1.4-1.1L500.7,400.4z
		 M495.5,398.5h4.6l-2.3-6.1L495.5,398.5z"/>
	<path class="st0" d="M509.8,391.2v-0.1c0-0.6,0.4-1,1.1-1h10.2c0.7,0,1.1,0.3,1.1,1v0.1c0,0.6-0.4,1-1.1,1h-4v11.4c0,0.7-0.4,1-1,1
		h-0.3c-0.6,0-1-0.4-1-1v-11.4h-4C510.2,392.2,509.8,391.9,509.8,391.2"/>
	<path class="st0" d="M528.9,403.7v-12.5c0-0.7,0.3-1,1-1h0.3c0.7,0,1,0.4,1,1v5.3h7.6v-5.3c0-0.7,0.3-1,1-1h0.3c0.7,0,1,0.4,1,1
		v12.5c0,0.7-0.3,1-1,1h-0.3c-0.6,0-1-0.4-1-1v-5.3h-7.6v5.3c0,0.7-0.3,1-1,1h-0.3C529.2,404.7,528.9,404.3,528.9,403.7"/>
	<path class="st0" d="M548.9,403.3v-12.2c0-0.7,0.3-1,1-1h0.3c0.7,0,1,0.3,1,1v11.4h6.3c0.7,0,1.1,0.3,1.1,1v0.1c0,0.6-0.4,1-1.1,1
		h-7.4C549.4,404.6,548.9,404.1,548.9,403.3"/>
	<path class="st0" d="M565.4,403.3v-11.9c0-0.8,0.5-1.3,1.2-1.3h8.4c0.7,0,1.1,0.4,1.1,1v0.1c0,0.6-0.4,1-1.1,1h-7.3v4h5.7
		c0.7,0,1.1,0.3,1.1,0.9v0.1c0,0.6-0.4,1-1.1,1h-5.7v4.4h7.4c0.7,0,1.1,0.3,1.1,0.9v0.1c0,0.6-0.3,1-1.1,1h-8.5
		C565.9,404.6,565.4,404.1,565.4,403.3"/>
	<path class="st0" d="M582.5,391.2v-0.1c0-0.6,0.4-1,1.1-1h10.2c0.7,0,1.1,0.3,1.1,1v0.1c0,0.6-0.4,1-1.1,1h-4v11.4c0,0.7-0.4,1-1,1
		h-0.3c-0.6,0-1-0.4-1-1v-11.4h-4C582.9,392.2,582.5,391.9,582.5,391.2"/>
	<path class="st0" d="M601.7,403.7v-12.5c0-0.7,0.3-1,1-1h0.3c0.7,0,1,0.4,1,1v12.5c0,0.7-0.3,1-1,1h-0.3
		C602.1,404.7,601.7,404.3,601.7,403.7"/>
	<path class="st0" d="M611.5,397.4c0-4.4,3-7.5,7.4-7.5c3.6,0,5.5,2.1,5.5,3.1c0,1.1-1.3,1.3-1.3,1.2c-0.8-1.5-2.5-2.2-4.1-2.2
		c-2.9,0-5,2.2-5,5.4c0,3.2,2.1,5.5,5,5.5c1.9,0,3.6-1,4.2-2.5c0-0.1,1.4,0.2,1.4,1.2c0,1.1-1.9,3.4-5.7,3.4
		C614.5,404.9,611.5,401.8,611.5,397.4"/>
	<path class="st0" d="M630.6,402c0-0.8,1-1.3,1.1-1.2c0.8,1.2,2.4,2.2,4.4,2.2c2,0,3.2-0.8,3.2-2.3c0-1.6-1.7-2-3.6-2.5
		c-2.2-0.5-4.6-1.3-4.6-4.2c0-2.5,2.1-4.2,5.2-4.2c3.2,0,5,1.5,5,2.6c0,0.8-1,1.3-1.1,1.3c-0.8-1.1-2.2-2-3.9-2c-1.8,0-3,0.9-3,2.2
		c0,1.6,1.4,1.8,3.4,2.3c2.5,0.6,4.8,1.5,4.8,4.3c0,2.7-2.1,4.3-5.4,4.3C632.6,404.9,630.6,403.2,630.6,402"/>
</g>
</svg>
