<?xml version="1.0" encoding="utf-8"?>
<!-- Generator: Adobe Illustrator 16.0.0, SVG Export Plug-In . SVG Version: 6.00 Build 0)  -->
<!DOCTYPE svg PUBLIC "-//W3C//DTD SVG 1.1//EN" "http://www.w3.org/Graphics/SVG/1.1/DTD/svg11.dtd">
<svg version="1.1" id="Layer_1" xmlns="http://www.w3.org/2000/svg" xmlns:xlink="http://www.w3.org/1999/xlink" x="0px" y="0px"
	 width="108.67px" height="124px" viewBox="0 0 108.67 124" preserveAspectRatio="xMidYMid meet" style="enable-background:new 0 0 108.67 124;" xml:space="preserve">
<style type="text/css">
<![CDATA[
	.st0{fill:#666666;}
]]>
</style>
<g>
	<g>
		<path class="st0" d="M100.37,14.77c-0.53,0.07-0.13,1.07,0.13,2.34c0.27,1.27,0.85,3.33-0.13,8.81s-3,9.88-6.19,13.23
			c-3.19,3.35-11.28,7.22-14.46,7.62c-2.58,0.33-5.69-1.09-5.69-1.09s0.52-1.71,0.95-2.68c0.33-0.76,2.25-7.2,2.39-9.8
			c0.13-2.6-2.87-3.2-5.27-1.6c-2.4,1.6-3.13,7.48-2.73,10.08c0.39,2.57,2.85,4.35,2.91,4.39c-0.04,0.04-0.21,0.25-0.75,1.03
			c-0.9,1.28-5.96,5.52-7.49,5.39c-1.53-0.13-1.93-2.27-2.24-4.54c-0.3-2.27,0.97-10.15,0.17-10.35c-0.8-0.2-0.73,1.07-4.33,5.41
			c-3.6,4.34-4.8,4.81-8.27,5.61c-3.47,0.8-3.73-0.93-4-2.87s0.67-1.67,3.07-1.94s4.06,2.39,4.06,2.39s0.11-0.26,0.17-0.67
			c0.07-0.4-0.03-0.92-1.43-2.12c-1.4-1.2-2.87-1-5.13-0.4c-3.4,0.47-2.27,3-2.27,3s-1.1,0.3-1.57,1.17
			c-0.21,0.39-0.67,0.24-2.23,6.11c0,0-0.47,0.87-1.67,2.54c-1.2,1.67-6.73,9.35-6.73,9.35s-2.27-10.88-2.8-13.55
			c-0.53-2.67-1-7.94-3.07-22.1c-2.07-14.15-4.53-21.56-6.33-21.7c-1.8-0.14-2.27,1.07-4,4.01c-1.73,2.94-4.2,12.35-7.4,23.43
			S5.6,53.21,5.6,53.21c1.96,9.35,17.16,10.41,17.16,10.41l0.02-0.65c0,0-4.2-0.93-6.87-1.94c-2.67-1.01-8.27-2.27-8.8-8.81
			c-0.53-6.54,1.47-12.68,4.07-23.43c2.6-10.75,7-19.56,7.8-19.69c0.8-0.13,1.8,3.8,2.93,8.94c1.13,5.14,4.85,30.87,4.85,30.87
			c0.07,1.2,3.76,17.99,3.76,17.99l-4.53,6.88c0,0-8.13,13.42-6.8,27.84s5.13,14.29,8.2,15.22c1.87-0.07,4.07-2.94,7.07-13.02
			s0.2-21.96,0.13-23.43c-0.07-1.47-2.53-13.22-2.53-13.22l7.47-10.81c0,0-0.53,3.14,0.4,5.61c0.93,2.47,5.76,2.04,9.61-0.96
			c3.93-3.07,4.19-10.45,4.33-11.39c0.13-0.93,1.13-2.07,1.8-2.94c0.67-0.87,4.8-5.34,4.8-5.34s-0.13,5.81,0.2,7.28
			c0.33,1.47,0.47,5.74,3.93,4.94c3.47-0.8,8.74-6.74,8.74-6.74s2.94,0.98,3.94,1.12c1,0.13,3.46,0.02,4.73-0.52
			c1.27-0.53,8.47-2.8,13.4-8.01c6.4-7.28,7.13-16.02,7.13-19.86C102.54,15.71,100.9,14.7,100.37,14.77z M34.2,88
			c1.51,12.28-1.51,16.2-2.4,19.58c-0.89,3.38-3.29,7.92-4.53,7.92c-1.25,0-3.38-2.94-3.38-2.94c-1.51-2.58-5.42-10.06-2.84-22.88
			c2.58-12.82,9.69-21.1,9.69-21.1S32.69,75.71,34.2,88z M52.16,53.73c-0.8,3.2-2.4,5.96-6.76,8.19c-4.36,2.23-4.45-2.49-4.45-2.49
			c-1.16-5.7,3.56-11.21,3.56-11.21c3.91,3.38,8.18,0.8,8.18,0.8S52.96,50.52,52.16,53.73z M72.82,45.26l-0.49-0.32
			c0,0-2.38-1.01-1.58-7.42s4.1-5.31,4.1-5.31c1.96,0.41,1.32,1.75,1.32,2.46S72.82,45.26,72.82,45.26z M56.03,19.25
			c1.54,0.48,2.59-0.86,3.46-1.79c-0.5-0.13-0.98,0.69-1.54,0.38c1-1.65,2.51-3.32,4.87-3.2c0.25-0.23,1.02-0.6,0.77-0.9
			c-0.03,0.31-0.34-0.14-0.39-0.26c-3.92,0.36-5.87,2.67-7.3,5.51C56,19.03,56.06,19.1,56.03,19.25z"/>
	</g>
</g>
</svg>
