<?xml version="1.0" encoding="utf-8"?>
<!-- Generator: Adobe Illustrator 20.1.0, SVG Export Plug-In . SVG Version: 6.00 Build 0)  -->
<svg version="1.1" id="Layer_1" xmlns="http://www.w3.org/2000/svg" xmlns:xlink="http://www.w3.org/1999/xlink" x="0px" y="0px"
	 viewBox="0 0 184.9 92.3" style="enable-background:new 0 0 184.9 92.3;" xml:space="preserve">
<style type="text/css">
	.st0{fill-rule:evenodd;clip-rule:evenodd;fill:#010102;}
	.st1{fill-rule:evenodd;clip-rule:evenodd;fill:#8DC73F;}
	.st2{fill:#DC721D;}
	.st3{fill:#FBB040;}
	.st4{fill-rule:evenodd;clip-rule:evenodd;fill:#D7E025;}
	.st5{fill-rule:evenodd;clip-rule:evenodd;fill:#AEC037;}
	.st6{fill-rule:evenodd;clip-rule:evenodd;fill:#FFFFFF;}
	.st7{fill-rule:evenodd;clip-rule:evenodd;fill:#AFAFAF;}
	.st8{fill-rule:evenodd;clip-rule:evenodd;fill:#4C697A;}
	.st9{fill-rule:evenodd;clip-rule:evenodd;fill:url(#Gradient_2_);}
	.st10{fill-rule:evenodd;clip-rule:evenodd;fill:#B63325;}
	.st11{fill-rule:evenodd;clip-rule:evenodd;fill:#F47721;}
	.st12{fill-rule:evenodd;clip-rule:evenodd;fill:url(#Gradient_4_);}
	.st13{fill-rule:evenodd;clip-rule:evenodd;fill:#FBB040;}
	.st14{fill:#F47721;}
</style>
<path id="Stroke_1_" class="st0" d="M44.5,51.7c0,0-1.7-3-1.6-4.1c0.1-1.1,3.5-5,3.5-5s-2.1-3.2-2.1-4.5c0.1-1.3,3.4-3.6,3.4-3.6
	s-1.5-2-1.2-3.6c0.3-1.6,3.8-3.5,3.8-3.5s-0.5-3.8-0.2-4.9c0.3-1.1,4.2-1.7,4.2-1.7s-0.7-3.9-0.2-4.8c0.5-0.9,6.8-1.7,6.8-1.7
	s-0.8-2.8-0.3-3.9c0.5-1.1,8.1-1.2,8.1-1.2s-0.8-3.2,0.6-4.7c1.4-1.5,8.9,0.5,8.9,0.5s0.3-3.7,2.8-4.7c2.5-1,9.2,3.5,9.2,3.5
	s8.3-4,19.6-0.7c3.6,1.1,2.6,6,2.6,6s5.6-2.5,8.9,0.5c3.4,3,3.4,7.6,6.3,8.3c2.9,0.7,12.6,3.1,12.6,3.1s6.4-4.6,12.5-2.5
	c3.5,1.2,2.8,5.7,2.8,5.7l1.4,0.9c0,0,3.3-2.8,7.6-0.8c4.5,2.1,3.8,7.3,3,8.8c-0.8,1.6-4.5,5.8-4.5,5.8l-2.3,5.4
	c0,0-0.9,2.9-2.7,4.1c0,0-8-3-17-0.3c-3.8,1.1-13.6,4.5-13.6,4.5l-7.3,4H45.6C44.9,55,44.5,53.4,44.5,51.7z"/>
<path id="Main_Head_Color" class="st1" d="M49.9,43.3c0.2-0.7-2.8-3.8-2.4-5.1c0.4-1.3,3.2-3.3,3.2-3.3l-1.5-3.2l4.2-4.4L53,24.1
	l4.9-3.5c0,0-1.7-1.6-1.7-2.5c0.2-1.6,6-2.5,6-2.5s0.1-2.8,0.6-3.7c0.8-1.7,7.1-1,7.1-1s0.7-3.7,1.4-4.8C72,5,78.6,7.2,78.6,7.2
	s2.7-3.7,3.1-4.1c1.8-1.3,8.8,3.2,8.8,3.2s9.5-2.1,15-2.1c5.5,0.1,3.5,5.9,3.5,5.9l2,1.5c0,0,2.6-2,6.2-1.4c3.6,0.6,6.3,8.6,6.3,8.6
	l17.5,4.5c0,0,2.9-1.9,7.6-2.7c4.7-0.8,4.7,4.9,4.7,4.9l3.8,1.3c5.9-3.1,8.1,1.1,7.8,3.7c-0.3,2.6-6.3,7.5-6.3,7.5l-0.7,4.3
	c-0.4,3.3-7.3,1.2-7.3,1.2c-6.8-0.8-24.6,7-34.3,10.4c-9.8,3.4-30.5,2.5-30.5,2.5l-35.1-1.7l-0.5-3.4c0,0-5.1-2.3-5-3.7
	C45.3,46.4,49.7,44,49.9,43.3z"/>
<g>
	<path class="st2" d="M102.7,8.5c-4.4-0.8-8.7,2.7-8.7,2.7s1.3,3.2,4.6,4.5c3.3,1.3,5.7,0.1,7.4,0.9C106,16.6,107.1,9.3,102.7,8.5z"
		/>
	<path class="st3" d="M95.7,13.1c0.2,1.1,1.4,1,1.4,1c0.8-1.8,4-4.3,4-4.3C98.6,9.9,95.7,13.1,95.7,13.1z"/>
</g>
<path id="Highlights_1_" class="st4" d="M58.6,26.3c4.1-7.1,12-11.8,15.3-13.5c-19.3,10-20.6,35.1-20.6,35.1S53.2,35.6,58.6,26.3z
	 M75.5,12c-0.3,0.1-0.6,0.3-0.9,0.4C75.1,12.2,75.5,12,75.5,12z M74.1,12.7c0.1-0.1,0.2-0.1,0.3-0.1C74.3,12.6,74.2,12.6,74.1,12.7z
	 M142.6,24.8c0,0,5.8-2.9,8.5-1.8c1.5,0.6,0.8,3.4,0.8,3.4S152.2,21.6,142.6,24.8z M121,30.5c-3.3,0.1-12.5,1-14.6,0.7
	c-2.4-0.3-3.1-3.9-3.1-3.9s1.8,3.4,4.6,3.3C111.8,30.6,118.7,30.5,121,30.5z M121,30.5c0.4,0,0.7,0,0.9,0
	C122,30.6,121.6,30.5,121,30.5z M123.7,23.9c-2.6,0-10.7-5.1-10.7-5.1s10,6.1,21.4,5.6c0,0-6.1,1.4-10,1.1c0,0,5.6,1.1,8.5,0.9
	c0,0-17.5,2.4-27.5-6.1C105.3,20.1,119.4,24.5,123.7,23.9z M107,6.6c1.3,1.3-2.1,0.1-2.1,0.1s-3.3-0.5-8.4-0.5
	C96.5,6.2,104.1,3.7,107,6.6z M87.2,13.1l-1.7,1.2c0,0,9.7,1.6,14.1,6.6l-2.7,0c0,0,2.2,3,2.7,4.5c1.7,5.1,3.5,8.2,5.4,8.2
	c1.9,0,17.2-1.5,21.5-0.5c0,0,21.6-4.4,31.8,3.9c0,0,0.4,4.4-0.8,6.6c-1.8,1.6-6.7,0-6.7,0c-2.3-0.3-5.7,0.4-9.7,1.6
	c-0.8,0.2-1.7,0.5-2.5,0.7c-0.2,0.1-0.4,0.1-0.6,0.2c-4.9,1.6-10.3,3.7-15.1,5.5c-4.7,1.6-9.4,3.1-13,3.9c-10.4,1.6-24.1,1-24.1,1
	l-12.3-0.6l-17-4c0,0-2.2-14.1,3.7-23.5C66.2,19.2,72.3,12.1,87.2,13.1z"/>
<path id="Shadow" class="st5" d="M82.4,15.5c0,0,10.1,1.5,11.8,4.8c0,0-9.2-3.8-16.3-2.6c-4.3,0.8-9.9,4.5-12.4,7.6
	C65.5,25.3,71.4,15,82.4,15.5z M69.9,25.8c-0.3,5.7,2.6,9.5,8,12.1c5.4,2.6,17.9,2.6,17.9,2.6s-10.5,2.8-15.3,1.9
	C66,39.6,69.9,25.8,69.9,25.8z M123.1,49.1c-6.9,2.7-9.7,4-18.6,4.9c-6.4,0.7-13.7,0.6-19.4-1.6c-4-1.6-7-4-7-4
	c11.2,4.7,15.1,4.8,18.6,4.2c3.4-0.6,18.6-3.7,25.6-5.5c5-1.3,13.9-2.2,13.9-2.2S129.5,46.6,123.1,49.1z M153.8,34.1
	c5.7,1.8,4,5.1,4,5.1c-1.7-4-10.1-4.3-10.1-4.3l-3.9,1.7l-0.8-2.3l-6.2-0.3l-3.1,2.6l-1.2-2l-4.2-0.1l-3.3,3.2l-2.2-2.3l-3.9,0.3
	l-3.7,3.5l-2.3-2l-6.8,1.7l-2.3,3.2l-2.8-2.5c0,0-1.8-0.6,12.9-4.9C128.4,30.7,148.2,32.3,153.8,34.1z M61.7,29.8
	C59.1,45.3,69.9,53,77.3,56.1l-16.3-0.8l-0.7-3.2C56.7,45.4,61.7,29.8,61.7,29.8z"/>
<path id="Teeth_White" class="st6" d="M70.9,26.1c0,0,3.5-7.7,8.4-8.3c4.9-0.6,11.3-0.1,14.1,3c3.2,3.5,7.2,16,11,15.5l-2.3,2.1
	c0,0-9.2,4.5-20.6,0.8C70,35.5,68.8,28.8,70.9,26.1z M102.9,37.9c14-5.5,27.3-6.1,36.1-5.6l-2.4,4.1l-2.5-4l-4.7,0.8l-1.7,4
	l-3.3-3.6l-4,0.7l-2.8,5.1l-2.8-3.8l-6.3,1.1l-2.6,4.5L102.9,37.9z M145.7,36.1l-0.9-3.2c2.9,0.4,4.6,0.8,4.6,0.8L145.7,36.1z
	 M144.8,32.8c-1.6-0.2-3.6-0.4-5.8-0.5l0,0L144.8,32.8L144.8,32.8z"/>
<path id="Shadow_on_Teeth" class="st7" d="M76.9,24.6c0,0,1.9-3.6,3.3-5.2c0,0,1.5-0.8,2.2-0.4L76.9,24.6z M79.1,36.1
	c0,0,1.7-7.1,4.3-12.2c0.6,1.7-2,10.4-2.3,11.4C80.8,36.2,79.1,36.1,79.1,36.1z M87.5,38.7c0,0,1.5-5.3,3.4-8.1l-1.3,6.9
	C89.6,37.5,88.4,38.7,87.5,38.7z M93.6,23.5l-5.2,3.4c2-2.5,4.2-5,4.2-5C93.6,22.3,93.6,23.5,93.6,23.5z M95.7,38.4L94.1,39l1.5-2.7
	L95.7,38.4z M97,31.2l-2.2,0.4l1.5-1.7L97,31.2z"/>
<path id="Strokes" class="st0" d="M80.3,48.2c0,0,7.5,2.9,16.4,1.6c12.3-1.8,22.7-2.8,22.7-2.8s-20.8,4.6-25.7,4.8
	C87.6,52,80.3,48.2,80.3,48.2z M44.6,47.8c0.2-1.4,3.7-4.2,4.6-5.1c-1.3-1.4-3.1-3.8-2.7-4.8c0.6-1.5,3.8-3.2,3.8-3.2
	s-2.8-2.4-1.9-4c0.9-1.6,4.1-3.1,4.1-3.1s-0.7-3.6-0.4-4.2c0.6-1.2,4.8-3.2,4.8-3.2s-2.4-2-1.5-3.1C56.4,16.1,61,15,61,15
	s0.2-2.9,1-3.9c1.2-1.6,7-0.7,7-0.7s0.1-3.6,1-4.7c1.2-1.3,7.8,0.6,7.8,0.6s1.1-4.2,3.4-4.5c1.9-0.2,7.8,2.8,9.6,3.7
	c2.2-1.2,8.2-3.8,17.2-1.7c3.9,0.9,2.4,6.2,2.4,6.2s0.3,0.3,0.9,0.7c1.7-0.6,5.5-1.6,7.7-0.8c2.9,1.1,3.4,4.6,4.6,6.2
	c0.8,1.1,1.6,1.9,2.5,2.5c4,1.4,8.7,2.7,14.2,3.5c0,0,14.7-8,13.8,2.9l2.5,1c0,0,7.3-3.1,8.9,2c1.6,5.1-1.3,5.6-3.6,7.8
	c-2.3,2.3-2.3,5.2-2.3,5.2s-1.3,5-3.9,4.5c-2.5-0.5-4.4-1.5-8.2-0.8c-5.9,1-16.3,3.7-30.1,9.1c-9.8,3.9-29.8,4.8-44.4-2
	c-5.9-2.8-9.1-6.7-9.8-10.6c-0.9-4.5-0.2-9.3,1.3-13.3c0,0-1,8.5,0.7,12.6c1.8,4.4,5.4,7.6,10.9,10c7.2,3.1,19,6.3,38.5,1.3
	c6.7-1.7,19.1-6.9,31-8.3c0,0-4.3-1.1-11.6,0.1c0,0,8.8-4,21,0c2.3,0.7,2.2-4.9,2.2-4.9s1.8-3.2-8.2-4.9l-3.7,3.4l-1.4-4
	c-1.7-0.1-3.5-0.2-5.3-0.2l-2.4,4.3l-3-4.1c-1.3,0.1-2.5,0.2-3.8,0.3l-1.8,4.6l-4.2-3.8c-1.2,0.2-2.3,0.4-3.4,0.6l-2.7,5.4l-3.3-4.2
	c-2,0.4-3.9,0.9-5.6,1.3l-2.6,5l-2.7-3.5c-7.8,2.5-13.6,3.1-17.7,3.1l3.3-1.2c0,0-12.5,0.9-18.1-7.9c0,0-0.4,1.7,1.2,4.6
	c0,0-7.9-5.6-0.4-15.8c4.1-5.6,11-6.2,11-6.2l-1.2,0.8c0,0,10.7,1,12.9,3.7c2.2,2.7,6.1,12.6,7.5,14.1c1.1,1.4,4.7,1.7,8.1,0.6
	c2.9-0.9,13.5-2.9,23.6-3.5c-0.5-0.4-0.9-1-1.3-1.8l4,1.7c4.8-0.1,9.4,0.1,12.8,1c8.4,2.3,10.1,3.8,10.4,4.7c0,0,0.7-1.4,2.3-2.4
	c1.6-1.1,5.3-5,1.6-7c-3.7-2-5.1-0.3-5.1-0.3s1.5,1.6,1.8,2.8c0,0-1.9-2.8-7.5-3.5c0,0,0.9-4.3-2-4.6c-5.5-0.8-12.9,4.4-12.9,4.4
	l1.4-2.7c0,0-14.5-1.4-20.1-3.9l3.9-0.3c0,0-8-3.6-12.3-6.9c0,0,0.4,3.1,1.5,4.7c0,0-5.1-1.9-3.5-9.9c0.6-3-12.7-4.8-20.6,2.3
	l0.5-1.9c0,0-14.3,0.6-25.8,12.1c-9,9-10.4,20.9-10.6,26c-0.1,1.5-0.4,7.6-0.4,7.6l-2.1,0.7c0,0,0-1,0.1-2.4
	C48.1,50.9,44.4,48.8,44.6,47.8z M75.1,27.2l9.9-8.8c-2.5-0.3-5.2-0.2-7.4,1.1c-0.5,0.3-0.9,0.6-1.4,0.9L75.1,27.2z M97.1,39
	l-0.6-4.8l-5.8,3l1.2-9.3l-9.8,7.4c0,0,3.7-13.4,2.6-13.7c-1.8-0.5-12,9.8-12,8.8c0-0.5,0.5-2.8,1-5c-0.4,0.4-1.7,1.5-2.8,3
	c-0.1,1,0,1.9,0.3,2.5c0.1,0.1,0.1,0.2,0.2,0.3c0.4,0,0.7-0.2,0.7-0.2S72,31.3,72,31.8c1.6,2.1,4.9,4.3,7,5.4
	c1.4,0.1,2.5-0.7,2.5-0.7s-0.5,0.9-0.1,1.6c1.6,0.5,4.2,1.2,7.1,1.5c1.2-0.4,2.1-1.5,2.1-1.5s-0.1,1.2,0.7,1.6
	C93.1,39.7,95.1,39.5,97.1,39z M97.7,31.5c-1.2-3.6-3.5-9.3-4.8-10.4c-0.6-0.5-2.5-1.5-4.9-2.2l-1.8,11l8.3-5.7l-1,8.6L97.7,31.5z
	 M101.8,36.9c0,0-2.5-0.9-3.6-3.8l0.7,5.3C99.9,38,100.9,37.5,101.8,36.9z M107.2,37.9c-0.9,0.2-1.7,0.5-2.4,0.7l1.3,1.8L107.2,37.9
	z M118.8,35.3c-1,0.2-2.1,0.4-3,0.6l1.7,2.4L118.8,35.3z M128.4,33.8c-1,0.1-2.1,0.3-3.1,0.4l2.5,2L128.4,33.8z M137.6,33.1
	c-0.8,0-1.7,0.1-2.5,0.1l1.3,2.1L137.6,33.1z M147.9,33.7c-0.6-0.1-1.2-0.2-1.9-0.2c-0.1,0-0.2,0-0.3,0l0.5,1.9L147.9,33.7z
	 M113.4,12.3c1.9,1.3,4.8,3,8.6,4.7c-1.3-1.9-1.6-4.6-3.3-5.4C117.3,10.9,114.9,11.7,113.4,12.3z M80.1,7.9c3.6-1,6.6-1.4,8.4-1.6
	c-1.6-0.8-5.6-2.7-6-2.8C81.5,3.3,80.5,6.5,80.1,7.9z M71.1,11.3C73.8,10,76.5,9,79,8.2c-2-0.6-6.2-1.9-6.9-1.3
	C71.7,7.2,71.3,10.1,71.1,11.3z M64,16c1.9-1.7,4-3.1,6.2-4.2c-1.8-0.1-5.7-0.4-6.3,0.1C63.3,12.3,63.1,15.2,64,16z M59.4,21
	c0.7-0.9,1.5-1.8,2.4-2.8c0.6-0.7,1.3-1.4,2-2c-1.7,0.4-5.9,0.8-6.4,1.5C57.2,18.1,58.7,20.1,59.4,21z M54.9,27.5
	c1.1-1.8,2.3-3.8,3.9-5.7c-1.6,0.6-4.8,1.9-5.1,2.5C53.3,24.7,54.3,26.6,54.9,27.5z M51.8,34.2c0.6-1.8,1.4-3.6,2.5-5.6
	c-1.4,0.7-3.7,2-3.9,2.7C50.2,31.7,51.1,33.1,51.8,34.2z M50,41.3c0.2-1.4,0.5-3,1-4.8c-1.1,0.8-2.5,1.8-2.6,2
	C48.2,39.3,49.1,40.4,50,41.3z M49.7,49.8c0-1.8,0.1-3.7,0.1-4.1c0-0.2,0-0.5,0-0.8c-1.1,0.9-2.7,2.3-2.7,2.9
	C46.9,48.5,48.7,49.4,49.7,49.8z M63.5,53l-2.2,0.8C60.1,48.5,61.8,42,61.8,42C61.7,46.5,63.5,53,63.5,53z M100.7,15.1l-2.1-0.7
	c0,0,2.3-3.4,3-3.2C102.3,11.3,100.7,15.1,100.7,15.1z M101.6,16c2.8,0.3,6.7,2.8,6.7,2.8s-3.5-1.2-5.7-1.2c-3,0-7.7-4.6-7.7-4.6
	S99.3,15.8,101.6,16z M98.4,8.3c-1.7-0.1-3.1-0.1-3.1-0.1s5-2,9.7-0.1c2.6,1,0.5,6.7,5.4,10.4c0,0-4.7-1.1-5.2-2.4
	c-0.6-1.3-0.3-5.8-1.6-6.7c-0.2-0.1-0.4-0.2-0.6-0.3c-3.1-0.4-7.7,3.1-7.7,3.1c-1.3,0-3-1.5-3-1.5S95.2,9,98.4,8.3z M56.9,48.2
	c0.1,1.3,0.2,6.1,0.2,6.3c0,0-1.4,2.4-1.4,1.4c0-0.2,0.1-6.5,0-7.5c-0.2-4.8,0.1-17.4,9.7-27.2c0.9-0.9,1.9-1.8,2.8-2.5
	c-0.6,0.5-1.3,1.1-1.9,1.7C57,29.9,56.7,42.9,56.9,48.2z M68.2,18.7c8.1-6.7,18.3-6.4,19.9-5.7l-1.8,1.1c0,0,9.9,1.8,14,7.4
	l-2.7-0.3c0,0,1.7,2.7,2.7,4.8c1,1.8,1.4,5,4.6,6.9c2.2,1.3,15.7-0.9,17.3-0.6c0,0-15.2,3.1-18.2,1.4c-2.5-1.4-2.7-3.4-4.5-7.5
	c-0.9-2.1-3.3-5.9-3.3-5.9l2.6,0.6c-3.6-5.1-14.1-6.3-14.1-6.3l1.5-1.2C84.6,12.7,76,12.7,68.2,18.7z"/>
<g id="Nose_Hole">
	<path class="st0" d="M145,26.7c-0.1-1.7,2.7-2.5,4.4-2l-1.2,0.7c0,0,1.1,1.1-0.2,2.2C147.2,28.4,145.1,28,145,26.7z"/>
	<path class="st0" d="M163.8,30.2l-0.7,0.4c0,0,0.8,2.2-1.4,3.1c0.4-1.7-0.6-3-0.6-3S162.4,28.8,163.8,30.2z"/>
</g>
<path class="st0" d="M184.9,88.7c0-2-1.6-3.6-3.6-3.6c-0.2,0-0.5,0-0.7,0.1l-1.5-10.9c0,0,3.2-1.2,4.9-12.2
	c1.6-11-7.3-11.6-11.4-11.6c-4.1,0-13.7,0-13.7,0h-18.6h-17.2c0,0-12,3.9-22.6,4.5C85.4,56.1,72,50.8,72,50.8l-25.2-0.1l-7.6-10.1
	L25.1,50.7H10.9L0,87h163.1l0.7,5.3h17.9l0,0C183.5,92.1,184.9,90.6,184.9,88.7z"/>
<g id="Lift_Gator_1_">
	<g id="Lift_Text">
		<path id="Lift_Bevel_1_" class="st8" d="M79,56.7l-1.9,5.5l-5.4,0l-6,20.9l-8.1,0v-1.4l5.7-19.6l-5.1,0v-1.4l1.5-5.5l19.2,0V56.7z
			 M48,61.2l-1.1,3.6H55v1.4l-1.4,4.9h-8.5l-3.5,12h-7.9v-1.4l7.6-26.5l18,0v1.4l-1.4,4.6L48,61.2z M31.5,83.1h-7.9v-1.4l7.9-27
			h-3.9v-1.4l10.7-8.5l6.1,8.3v1.4l-4.3,0L31.5,83.1z M6.2,83.1v-1.4l7.5-26.5l8.1,0v1.4l-5.9,20.5l7.6,0v1.4l-1.4,4.7H6.2z"/>
		<path id="Lift_2_" class="st6" d="M77.1,60.8l-5.4,0l-6,20.9l-8.1,0l6.1-21l-5.5,0l1.5-5.5l19.2,0L77.1,60.8z M48,59.8l-1.5,5H55
			l-1.4,4.9h-8.5l-3.5,12h-7.9l7.6-26.5l18,0l-1.4,4.5L48,59.8z M31.5,81.8h-7.9l8.3-28.4h-4.3l10.7-8.5l6.1,8.3l-4.3,0L31.5,81.8z
			 M22.1,81.8H6.2l7.5-26.5l8.1,0l-6.3,21.8l8,0L22.1,81.8z"/>
		<linearGradient id="Gradient_2_" gradientUnits="userSpaceOnUse" x1="37.9563" y1="81.0468" x2="37.9563" y2="68.9682">
			<stop  offset="0.297" style="stop-color:#FFFFFF"/>
			<stop  offset="0.3785" style="stop-color:#F4F4F4"/>
			<stop  offset="0.5223" style="stop-color:#D6D6D6"/>
			<stop  offset="0.7115" style="stop-color:#A6A6A6"/>
			<stop  offset="0.9364" style="stop-color:#646464"/>
			<stop  offset="1" style="stop-color:#505050"/>
		</linearGradient>
		<path id="Gradient" class="st9" d="M17.2,69l-2.6,8.9l7.9,0l-1,3.2H7.3L10.7,69H17.2z M34.5,69L30.9,81h-6.4L28.1,69H34.5z
			 M44.5,69L41,81h-6.4L38.1,69L44.5,69z M68.6,69L65.2,81l-6.5,0L62.2,69H68.6z"/>
	</g>
	<g id="gator_Text">
		<path id="gator_Bevel" class="st10" d="M178.6,64.9c-1,3.4-2.7,5.6-5,6.7l2.7,16.7v1.6h-8.5l-2.5-16.6l-1,0.1l-2.8,9.9h-7.9v-1.6
			l7.6-26.5l12,0c2.8,0,4.6,0.6,5.4,1.9c0.5,0.8,0.6,1.8,0.5,3.2C179.4,61.5,179.2,63.1,178.6,64.9z M167.6,66.4
			c0.4-0.1,0.8-0.2,1.1-0.4c0.3-0.2,0.5-0.5,0.7-0.9c0.2-0.4,0.4-0.9,0.6-1.5c0.1-0.4,0.2-0.8,0.3-1.1c-0.3-0.4-0.8-0.6-1.7-0.6
			h-0.7l-1.4,4.7C166.9,66.6,167.3,66.5,167.6,66.4z M156.6,69.7c-1.4,4.8-3,8.2-4.8,10.3c-2.4,2.7-5.8,4.1-10.2,4.1
			c-4.6,0-7.3-1.1-8.3-3.4c-0.4-0.9-0.5-2.2-0.5-3.7c-0.1-2,0.3-4.6,1.3-7.9c0.8-2.6,1.6-4.8,2.4-6.6l-4.8,0l-6,20.9l-8.1,0v-1.6
			l5.6-19.4l-5,0v-1.6l1.5-5.5l19.2,0v1.6l-1.1,3.1c0.3-0.5,0.6-0.9,0.9-1.2c2.4-2.8,5.7-4.2,10-4.2c4.6,0,7.5,1.1,8.6,3.4
			c0.4,1,0.6,2.2,0.5,3.8C157.9,63.8,157.5,66.4,156.6,69.7z M144.3,65.1c-0.1,0.3-0.3,0.8-0.6,1.6c-0.3,0.8-0.6,1.8-0.9,3
			c-0.7,2.5-1.1,4.1-1.2,5c0,0.1,0,0.3,0,0.4c0.1,1,0.6,1.5,1.4,1.5c1.7,0,3.1-1.9,4.2-5.6l0.4-1.3c0-0.1,0.1-0.2,0.1-0.3
			c0-0.1,0.1-0.2,0.1-0.4l0.1-0.4c0.7-2.3,1.1-3.8,1.2-4.7c0-0.2,0-0.3,0.1-0.5c-0.1-0.9-0.6-1.3-1.3-1.3
			C146.4,62.1,145.3,63.1,144.3,65.1z M116.1,83.3H108l0-1.6h0l0-3.6l-5.6,0l-3,5.2l-7.1-0.1c0,0,0-0.3,0-0.6
			C89.6,83.6,86,84,81.5,84c-4.8,0-7.7-1-8.6-3.1c-0.3-0.7-0.5-1.8-0.4-3.2c-0.1-1.9,0.3-4.7,1.4-8.4c1.5-5.3,3.4-9,5.5-11
			c1.2-1.1,2.6-2,4.4-2.6c3,0.8,6.3,1.3,9.7,1.3c2,0,4.2,0,6-0.1v1.6l-1.8,5.2l-6.3,0v-1.6l0.2-0.9c-0.2,0-0.4,0-0.7,0
			c-2.3,0-4,0.6-5.1,1.7c-0.9,0.9-1.7,2.6-2.4,5.1l-1.2,4c-0.5,1.8-0.8,3-1,3.8c0.2,1.1,1,1.6,2.4,1.6c0.5,0,1-0.1,1.5-0.2l1.1-3.3
			l-1.9,0v-1.6l1.3-4.6l11.1,0v1.6l-3.2,10.4l13.7-23.4c0,0,4.7-0.3,7.1-1h2.1l0,1.6h0L116.1,83.3z M108.2,66.2l-3.1,5.8l3,0
			L108.2,66.2z"/>
		<path id="Gator_2_" class="st11" d="M178.6,63.3c-1,3.5-2.8,5.8-5.3,6.8l2.9,18.2h-8.5l-2.5-16.6l-1,0.1l-2.8,9.9h-7.9l7.6-26.5
			l12,0c2.8,0,4.6,0.6,5.4,1.9C179.5,58.4,179.5,60.5,178.6,63.3z M170.4,61.2c-0.1-0.6-0.7-0.9-1.8-0.9h-0.7l-1.8,6.2
			c0.7,0,1.1-0.1,1.5-0.1c0.4-0.1,0.8-0.2,1.1-0.4c0.3-0.2,0.5-0.5,0.7-0.9c0.2-0.4,0.4-0.9,0.6-1.5
			C170.3,62.4,170.4,61.6,170.4,61.2z M138.9,55.3l-19.2,0l-1.5,5.5l5.5,0l-6.1,21l8.1,0l6-20.9l5.4,0L138.9,55.3z M136.9,61.5
			c-1,1.9-2,4.4-2.9,7.4c-1.4,4.7-1.6,8.1-0.8,10.1c1,2.3,3.8,3.4,8.3,3.4c4.3,0,7.7-1.4,10.2-4.1c1.8-2.1,3.5-5.5,4.8-10.3
			c1.4-4.7,1.6-8.1,0.7-10.1c-1.1-2.3-3.9-3.4-8.6-3.4c-4.3,0-7.6,1.4-10,4.2C138.2,59.4,137.4,60.8,136.9,61.5z M147.7,60.6
			c-1.4,0-2.5,1-3.4,3c-0.1,0.3-0.3,0.8-0.6,1.6c-0.3,0.8-0.6,1.8-0.9,3c-0.7,2.5-1.1,4.1-1.2,5c-0.3,2.3,0.1,3.5,1.3,3.5
			c1.7,0,3.1-1.9,4.2-5.6l0.4-1.3c0-0.1,0.1-0.2,0.1-0.3c0-0.1,0.1-0.2,0.1-0.4l0.1-0.4c0.7-2.3,1.1-3.8,1.2-4.7
			C149.3,61.7,148.9,60.6,147.7,60.6z M79.4,58.3c1.2-1.1,2.6-2,4.4-2.6c3,0.8,6.3,1.3,9.7,1.3c2,0,4.2,0,6-0.1l-1.8,5.2l-6.3,0
			l0.6-2.5c0,0-0.2-0.1-1.1-0.1c-2.3,0-4,0.6-5.1,1.7c-0.9,0.9-1.7,2.6-2.4,5.1l-1.2,4c-0.7,2.4-1,3.9-1,4.5c0,1.6,0.8,2.5,2.4,2.5
			c0.5,0,1-0.1,1.5-0.2l1.7-4.9l-2.4,0l1.3-4.6l11.1,0L92.7,81c-2.8,0.9-6.5,1.4-11.2,1.4c-4.8,0-7.7-1-8.6-3.1
			c-0.8-1.7-0.4-5.1,1-10.1C75.5,64,77.3,60.3,79.4,58.3z M107.3,56.3c0,0,4.7-0.3,7.1-1h2.1l-0.4,26.5H108l0.1-5.2l-5.6,0l-3,5.2
			l-7.1-0.1L107.3,56.3z M108.1,71.9l0.1-7.4l-3.9,7.3L108.1,71.9z"/>
		<linearGradient id="Gradient_4_" gradientUnits="userSpaceOnUse" x1="124.5935" y1="87.4951" x2="124.5935" y2="69.0868">
			<stop  offset="0.3576" style="stop-color:#DC721D"/>
			<stop  offset="0.5696" style="stop-color:#DA6A1D"/>
			<stop  offset="0.9398" style="stop-color:#D2531D"/>
			<stop  offset="1" style="stop-color:#D14E1D"/>
		</linearGradient>
		<path id="Gradient_1_" class="st12" d="M75,69.1h7.1l-0.3,1c-1,3.3-1.1,4.3-1.1,4.7c0,1,0.2,1.8,0.8,2.4c0.6,0.6,1.4,0.9,2.4,0.9
			c0.6,0,1.2-0.1,1.7-0.2l0.4-0.1l2.1-6.3l-2.5,0l0.7-2.4h9.5l-3.5,11.2c-2.7,0.8-6.2,1.2-10.6,1.2c-4.4,0-7.1-0.9-7.9-2.6
			c-0.5-1-0.7-3.6,1.1-9.5C74.9,69.3,75,69.2,75,69.1z M105.2,69.1l-1.9,3.5l5.8,0l0-3.5h6.7l-0.2,11.8H109l0.1-5.2l-6.8,0l-3,5.2
			l-5.3,0l6.9-11.8H105.2z M128.7,69.1l-3.4,11.8l-6.5,0l3.4-11.8H128.7z M142,69.1c-0.5,1.8-0.8,3.1-0.9,3.9
			c-0.2,1.8-0.1,3,0.6,3.7c0.4,0.4,0.9,0.7,1.5,0.7c2.1,0,3.7-2,4.9-6.1l0.5-1.7c0-0.1,0.1-0.3,0.1-0.4l0,0h7
			c-1.3,4-2.7,6.9-4.3,8.7c-2.3,2.5-5.5,3.8-9.6,3.8c-4.2,0-6.8-1-7.7-3c-0.8-1.8-0.5-5,0.8-9.5H142z M173.9,69.1
			c-0.2,0.1-0.4,0.2-0.6,0.3l-0.5,0.2l2.9,17.9h-6.9l-2.5-16.6l-2.2,0.1l-2.8,9.8h-6.4l3.4-11.8H173.9z"/>
		<path id="Highlight" class="st13" d="M123.9,60.2l-0.2,0.6l-5.5,0l0.2-0.6L123.9,60.2z M125.6,81.1l6-20.9l5.4,0l1.7-4.9l0.2,0
			l-1.8,5.5l-5.4,0l-6,20.9l-8.1,0l0.2-0.6L125.6,81.1z M72.9,78.8c1,2,3.8,3.1,8.6,3.1c4.7,0,8.4-0.5,11.2-1.4l3.9-12.7l0.2,0
			l-3.8,12.5L92.7,81l-0.3,0.1c-2.7,0.9-6.4,1.3-10.9,1.3c-4.8,0-7.7-1-8.6-3.1c-0.3-0.7-0.4-1.6-0.4-2.9
			C72.5,77.4,72.6,78.2,72.9,78.8z M99.4,81.2l3-5.2l5.6,0l-0.1,5.2h8.2l0,0.6h-8.2l0.1-5.2l-5.6,0l-3,5.2l-7.1-0.1l0.3-0.6
			L99.4,81.2z M108.2,64.5l-3.9,7.4l-0.3,0l4.2-7.9L108.2,64.5z M84.4,72.3l0.2-0.6l2.5,0l-0.2,0.6L84.4,72.3z M85.8,61.3
			c-0.9,0.9-1.7,2.6-2.4,5.1l-1.2,4c-0.6,2.1-1,3.5-1,4.3c0-0.1,0-0.2,0-0.3c0-0.6,0.3-2.1,1-4.5l1.2-4c0.7-2.5,1.5-4.2,2.4-5.1
			c1.1-1.1,2.8-1.7,5.1-1.7c0.9,0,1.3,0.1,1.3,0.1L92,59.6c-0.3-0.1-0.6-0.1-1.2-0.1C88.5,59.6,86.8,60.1,85.8,61.3z M91.3,62.1
			l0.1-0.6l6.2,0l1.6-4.6c0.1,0,0.1,0,0.2,0l-1.8,5.2L91.3,62.1z M142.8,67.6c0.4-1.2,0.7-2.2,0.9-3c0.3-0.8,0.5-1.3,0.6-1.6
			c0.9-2,2-3,3.4-3c1,0,1.4,0.8,1.3,2.5c0-1.3-0.5-1.9-1.3-1.9c-1.4,0-2.5,1-3.4,3c-0.1,0.3-0.3,0.8-0.6,1.6c-0.3,0.8-0.6,1.8-0.9,3
			c-0.7,2.5-1.1,4.1-1.2,5c0,0.3-0.1,0.6-0.1,0.8c0-0.4,0-0.9,0.1-1.4C141.7,71.7,142.1,70,142.8,67.6z M133.2,78.4
			c1,2.3,3.8,3.4,8.3,3.4c4.3,0,7.7-1.4,10.2-4.1c1.8-2.1,3.5-5.5,4.8-10.2c0.7-2.6,1.2-4.7,1.2-6.5c0,1.9-0.4,4.2-1.2,7
			c-1.4,4.8-3,8.2-4.8,10.3c-2.4,2.7-5.8,4.1-10.2,4.1c-4.6,0-7.3-1.1-8.3-3.4c-0.4-0.9-0.5-2-0.5-3.4
			C132.7,76.7,132.9,77.6,133.2,78.4z M161.6,81.2l2.8-9.9l1-0.1l2.5,16.6h8.4l0.1,0.6h-8.5l-2.5-16.6l-1,0.1l-2.8,9.9h-7.9l0.2-0.6
			H161.6z M173.3,69.6c2.5-1.1,4.2-3.3,5.3-6.8c0.4-1.3,0.6-2.3,0.6-3.3c0,1.1-0.2,2.4-0.6,3.9c-1,3.5-2.7,5.7-5.2,6.8L173.3,69.6z
			 M168.5,59.8c1.1,0,1.7,0.3,1.8,0.9c0,0.1,0,0.3,0,0.6c0,0,0,0,0,0c-0.1-0.6-0.7-0.9-1.8-0.9h-0.7l-1.7,6.2c0,0-0.1,0-0.2,0
			l1.9-6.7H168.5z"/>
	</g>
</g>
<g>
	<g>
		<path class="st14" d="M183.8,88.5c0,1.4-1.1,2.4-2.5,2.4c-1.4,0-2.5-1.1-2.5-2.4c0-1.3,1.1-2.4,2.5-2.4
			C182.7,86.1,183.8,87.2,183.8,88.5z M179.4,88.5c0,1.1,0.8,1.9,1.9,1.9c1.1,0,1.8-0.9,1.8-1.9c0-1.1-0.8-1.9-1.9-1.9
			C180.2,86.6,179.4,87.5,179.4,88.5z M180.9,89.8h-0.6v-2.4c0.2,0,0.5-0.1,0.9-0.1c0.5,0,0.7,0.1,0.8,0.2c0.1,0.1,0.2,0.3,0.2,0.5
			c0,0.3-0.2,0.5-0.5,0.6v0c0.2,0.1,0.4,0.3,0.4,0.6c0.1,0.4,0.1,0.5,0.2,0.6h-0.6c-0.1-0.1-0.1-0.3-0.2-0.6c0-0.3-0.2-0.4-0.5-0.4
			h-0.3V89.8z M180.9,88.4h0.3c0.3,0,0.6-0.1,0.6-0.4c0-0.2-0.2-0.4-0.5-0.4c-0.1,0-0.3,0-0.3,0V88.4z"/>
	</g>
</g>
</svg>
