<?xml version="1.0" encoding="utf-8"?>
<!-- Generator: Adobe Illustrator 20.1.0, SVG Export Plug-In . SVG Version: 6.00 Build 0)  -->
<svg version="1.1" id="Layer_1" xmlns="http://www.w3.org/2000/svg" xmlns:xlink="http://www.w3.org/1999/xlink" x="0px" y="0px"
	 viewBox="0 0 298.7 161" style="enable-background:new 0 0 298.7 161;" xml:space="preserve">
<style type="text/css">
	.st0{clip-path:url(#SVGID_2_);fill:#C89529;}
	.st1{clip-path:url(#SVGID_2_);fill:#97D7DA;}
	.st2{clip-path:url(#SVGID_2_);fill:#FFFFFF;}
</style>
<g>
	<defs>
		<rect id="SVGID_1_" width="298.7" height="161"/>
	</defs>
	<clipPath id="SVGID_2_">
		<use xlink:href="#SVGID_1_"  style="overflow:visible;"/>
	</clipPath>
	<path class="st0" d="M285.3,57.6c-0.3,0-0.7-0.1-1-0.1c-1.2,0-2.6,0.2-3.7,0.6c-0.7,0.2-1.3,0.4-2,0.4c-0.9,0-1.8-0.2-2.7-0.4
		c-3.8-0.9-7.3-1.5-10.3-2.1c-1.7-0.3-3.5-0.6-5.2-0.8c-4.8-0.7-9.7-1.5-14.4-3.3c-1.4-0.5-2.8-1.3-4.3-2.2
		c-2.3-1.4-4.8-2.1-7.5-2.1c-0.8,0-1.6,0.1-2.4,0.2c-0.7,0.1-1.4,0.1-2,0.1c-1.2,0-2.4-0.1-3.9-0.3c-3.5-0.5-7.3-1.2-11.6-2.1
		c-6.2-1.3-12.1-3-17.6-5.1c-4.5-1.7-7.9-4.2-10.5-7.8c-1.8-2.5-3.8-5.1-6.5-6.9c-1.6-1.1-3.3-1.6-4.9-1.6c-1.3,0-2.7,0.4-4.1,1.1
		c-2.1,1-4.1,2.1-6.1,3.2c-2.4,1.3-4.8,2.5-7.2,3.7c-2.5,1.2-4.9,2.3-7.4,3.5l-3.6,1.6c-1.7,0.8-3.5,1.6-5.3,2.3
		c-0.3,0.1-0.7,0.2-1,0.3c3.1,1.3,5.8,3.1,8.1,4.9c4.6,3.4,10,5.1,14.7,6.5l4,1.1c3.5,1,7,2,10.4,2.9c2.6,0.7,5.4,1.2,8.7,1.7
		l0.3,0.1c2,0.3,4.1,0.6,6.1,0.6c0.3,0,0.6,0,0.9,0c0.4,0,0.7,0,1.1,0c3,0,5.6,0.6,8.2,1.9c3.4,1.7,7.3,2.4,10.9,3
		c2.7,0.4,13.7,2.1,13.7,2.1l5,0.8c3.5,0.5,7.1,1.1,10.6,1.7c1.8,0.3,3.6,0.6,5.4,1c2,0.4,4,0.8,6.1,1.1c2.1,0.3,4.2,0.5,6.3,0.8
		l2.4,0.2c1.2,0.1,2.4,0.2,3.6,0.3c3.3,0.2,6.7,0.5,10,1.7c1.5,0.5,3,1.1,4.5,1.7c0.9,0.3,1.7,0.7,2.6,1c1.6,0.6,3.3,0.9,5.2,0.9
		c1.3,0,2.8-0.2,4.4-0.5c1.5-0.3,2.9-0.4,4.2-0.4c0.6,0,1.1,0,1.7,0.1V60.2c-1.3-0.2-2.7-0.4-3.9-0.9
		C291.8,58.4,288.7,58,285.3,57.6"/>
	<path class="st1" d="M4.5,52.3c1.3,0,2.6-1.1,3.8-1.3l0.4,0c2.7-0.4,5.4-0.8,8.1-1.2c1.7-0.3,3.4-0.5,5.1-0.8
		c14.5-2.1,27.2-8.4,38.9-12.5c1.4-0.5,2.7-1.3,4.1-2.1c0.7-0.4,1.4-0.8,2.1-1.2c9.2-4.9,19.1-9.4,29.3-13.4
		c0.2-0.1,0.4-0.2,0.5-0.3l0.4-0.2h1.7c0,0,0.9,0.6,1.3,0.9c0.9,0.6,1.7,1.1,2.6,1.6c3.9,2.1,7.8,4.2,11.8,6.4
		c5.3,2.9,10.7,5.8,16,8.7c0.7,0.4,1.3,0.5,1.9,0.5c0.4,0,0.8-0.1,1.3-0.2c2.3-0.7,4.7-1.4,7-2.1c4.1-1.3,8.3-2.5,12.4-3.9
		c4.5-1.5,8.8-3.5,12.8-6.1c1-0.7,2-1.6,2.8-2.4c1.7-1.7,3.6-1.9,5-1.9c0.7,0,1.4,0.1,2.2,0.1c4.2,0.4,6.8,3.2,9.1,6.1
		c1.6,2,3.4,4.1,5.6,6.7c0.5,0.5,1.2,1,1.9,1.2c5.6,2,11.3,3.9,16.9,5.7c4.9,1.6,10,2.8,15.2,3.8c1,0.2,2.2,0.3,3.5,0.3
		c0.9,0,1.8,0,2.7-0.1c0.9,0,1.8-0.1,2.7-0.1l0.6,0c2.2,0,4.3,0.5,6.1,1.5c4.3,2.2,8,3.9,12,4.7l1,0.2c3.7,0.7,7.5,1.5,11.3,2.1
		c4,0.6,8,1,12.2,1.4c2.7,0.3,5,0.5,7.3,0.5h0.6c4.3,0,8.7,0.6,13.5,1.8c0.1,0,0.2,0,0.3,0.1V0H0v53.3C1.3,53.5,4,52.3,4.5,52.3"/>
	<path class="st0" d="M294.9,79.2c-2.2,0-4.3,0-6.5,0h-0.2c-4.1,0-7.9-1-11.5-2l-2-0.6c-2.8-0.8-5.7-1.7-8.6-2.4
		c-1.2-0.3-2.3-0.4-3.4-0.4c-1.4,0-2.8,0.2-4.1,0.6c-0.2,0-0.3,0.1-0.5,0.1c-1.1,0-2.8-0.9-3.1-1.9c-0.2-0.6-0.5-0.8-1.3-0.8l-2.2,0
		c-0.5,0-1,0-1.5,0c-5-0.1-10.1-0.8-15.5-2c-2.3-0.5-4.6-1.1-6.9-1.6c-3.3-0.8-6.6-1.6-9.9-2.3c-1.9-0.4-3.8-0.6-5.7-0.8
		c-0.7-0.1-1.4-0.1-2.2-0.2c-3.9-0.5-8.4-1.2-12.3-3.9c-0.2-0.2-0.7-0.2-0.9-0.2c-0.9,0-1.7,0-2.6,0c-1.7,0-3.5,0-5.3-0.3
		c-5.8-0.8-10.6-1.6-15-2.5c-7.7-1.6-14.9-4.3-20.9-6.7c-3.8-1.5-7.5-3.3-10.9-5c-4.9-2.4-9.9-4.9-14.7-7.4
		C117.7,34,108.4,29,99.1,24c-0.5-0.2-0.9-0.4-1.3-0.4c-0.4,0-0.8,0.1-1.3,0.3c0,0-20.7,9.4-26.1,11.9c-4.7,2.2-8.8,4.5-12.5,7.3
		c-3.7,2.7-7.9,4-12,4.9c-5,1.1-10.1,2.1-15,3.1c-2.8,0.6-5.6,1.1-8.5,1.7c-3.4,0.7-6.7,1.4-10,2.1c-2.8,0.6-5.7,1.2-8.6,1.8L0,57.6
		c0,0,0,0,0,0V161h298.7V79.2L294.9,79.2z"/>
	<path class="st2" d="M35.1,93.1v6.3c-2-1.4-3.7-2.1-5.3-2.1c-1.7,0-3.1,0.6-4.1,1.8c-1.1,1.1-1.6,2.6-1.6,4.5
		c0,1.7,0.4,3.1,1.1,4.3c0.4,0.6,1,1.5,1.9,2.5c0.9,1,2.1,2.2,3.5,3.6c2.6,2.7,4.4,4.9,5.3,6.9c0.9,1.9,1.4,4.2,1.4,6.9
		c0,3.7-1,6.7-3.1,9.1c-2.1,2.3-4.7,3.5-8,3.5c-2.7,0-5.1-0.7-7-2.3v-6.3c2.3,1.7,4.4,2.5,6.2,2.5c1.7,0,3.1-0.6,4.1-1.7
		c1-1.2,1.5-2.7,1.5-4.7c0-1.7-0.4-3.3-1.1-4.7c-0.4-0.7-0.9-1.4-1.6-2.3c-0.7-0.8-1.6-1.8-2.6-2.8c-1.6-1.6-3-3-4-4.3
		c-1.1-1.2-1.9-2.3-2.4-3.2c-1-1.8-1.5-4.1-1.5-6.8c0-3.7,1-6.7,2.9-8.8c2-2.2,4.6-3.3,7.9-3.3C30.9,91.5,33.1,92,35.1,93.1"/>
	<polygon class="st2" points="42.8,92.1 49.2,92.1 49.2,134.3 59.7,134.3 59.7,139.7 42.8,139.7 	"/>
	<path class="st2" d="M87.5,117.1c0,8.4-0.9,14.4-2.8,17.9c-1.9,3.5-5,5.3-9.4,5.3c-4.6,0-7.9-1.9-9.8-5.7
		c-1.9-3.7-2.8-10.3-2.8-19.8c0-8.5,0.9-14.5,2.8-18c1.9-3.5,5-5.3,9.5-5.3c4,0,6.9,1.4,8.9,4.1c1.3,1.8,2.2,4.4,2.8,7.8
		C87.2,106.5,87.5,111.1,87.5,117.1 M80.8,117.8c0-8.2-0.4-13.7-1.1-16.4c-0.7-2.7-2.3-4.1-4.5-4.1c-2.3,0-3.8,1.2-4.6,3.7
		c-0.7,2.5-1.1,7.5-1.1,15.1c0,7,0.4,11.8,1.2,14.5c0.8,2.6,2.3,3.8,4.5,3.8c2.2,0,3.6-1.2,4.4-3.6
		C80.4,128.5,80.8,124.1,80.8,117.8"/>
	<path class="st2" d="M125.7,100.2l3.2-0.2c4.2-0.2,7.2,0.3,9.2,1.3c0.9,0.2,1.4,0.6,1.4,1.1c0,0.3-0.4,0.6-1.2,0.7
		c-0.8,0.2-3.6,0.6-8.5,1.4c-4.8,0.8-8.2,1.2-10,1.4c-0.8,0.1-2.6,1.6-5.3,4.4c-2.8,2.9-5.4,6-7.8,9.4c-2.5,3.4-3.6,5.7-3.6,7.1
		c0,0.2,0.1,0.4,0.3,0.5c0.2,0.1,0.5,0.2,0.8,0.2c0.3,0,0.8-0.2,1.5-0.4c7.8-5.1,15.3-10.6,22.6-16.5c0.4,0.3,0.6,0.6,0.6,1
		c0,0.4-0.2,0.8-0.6,1.3c-0.4,0.4-1,1-1.8,1.8c-0.8,0.8-2.2,2.2-4.4,4.3c-2.1,2.1-4.2,3.9-6.1,5.6c-5.1,4.5-8.7,7.2-10.8,8
		c-0.7,0.2-1.6,0.4-2.7,0.4c-1,0-2-0.4-2.9-1.4c-0.9-1-1.4-2.4-1.5-4.2c-0.1-1.8,1-4.5,3.1-8c2.2-3.5,5.2-7.1,9.1-10.9
		c0.4-0.3,0.5-0.6,0.5-0.8c0-0.3-0.5-0.4-1.3-0.3l-4,0.3c-5.6,0.3-8.5-0.2-8.7-1.5c-1.3-0.2-2-0.5-2-1c0-0.2,0.1-0.3,0.2-0.3
		c0.2,0,0.3-0.1,0.4-0.1c0.1,0,0.3-0.1,0.6-0.1c0.3-0.1,2.6-0.5,6.9-1.3c4.3-0.8,9.2-1.6,14.8-2.3l4.1-6c0.2-0.5,1.1-0.8,2.6-0.9
		c1.5-0.1,2.3,0.2,2.3,0.8c0,0.2-0.1,0.6-0.5,1.2l-1.5,2.3c-0.2,0.7-0.3,1.2-0.3,1.5C124.9,100.1,125.2,100.2,125.7,100.2"/>
	<path class="st2" d="M134.8,118.8c1.2-0.1,3-0.9,5.4-2.4c2.4-1.5,4.6-3.1,6.4-4.6l2.7-2.3c0.4,0.3,0.6,0.6,0.6,1
		c0,0.4-0.2,0.8-0.5,1.2c-6.6,6.8-11.7,10.2-15.3,10.4c-0.3,0-0.6,0-1.1-0.1c-4.5,5.7-8.4,8.7-11.8,8.8c-2.3-0.2-3.8-1-4.4-2.2
		c-0.4-0.6-0.6-1.4-0.6-2.4c-0.1-2.8,1.3-6.2,4.3-10.2c3-4,6.9-7,11.6-9c0.4,0,0.7,0.1,1,0.2c0.2,0.2,0.4,0.3,0.6,0.3
		c0.2,0,0.4-0.1,0.7-0.3c0.3-0.2,0.6-0.3,1.1-0.4c0.5,0,1,0.2,1.5,0.7c0.7,0.5,1.1,1.2,1.1,2C138,112,137,115.1,134.8,118.8
		 M121.4,126.8c1.3-0.1,3-1,4.9-2.9c1.9-1.9,2.9-3.1,2.9-3.8c-0.5-0.4-1.1-1.1-1.7-2.2c-0.6-1.1-0.9-1.6-1-1.6
		c-1.2,1.3-2.3,2.7-3.3,4.4c-1.5,2.8-2.2,4.7-2.1,5.7C121,126.6,121.1,126.8,121.4,126.8 M134.3,110.7c-0.4,0-1.3,0.7-2.5,2.1
		c-1.3,1.4-1.9,2.3-1.9,2.8c0,0.1,0.1,0.4,0.4,0.7c0.3,0.4,0.5,0.5,0.6,0.5c0.7,0,1.5-0.9,2.3-2.7c0.8-1.8,1.2-2.8,1.2-3.1
		C134.4,110.8,134.3,110.7,134.3,110.7"/>
	<path class="st2" d="M161.6,109.2c0.6,0.5,1,0.9,1,1.3c0,0.4-0.1,0.8-0.5,1.1c-0.3,0.4-2.2,3-5.5,8c-3.4,5-5.6,8.4-6.8,10.3
		c-1.2,1.9-2,3.2-2.4,4.1c-0.5,0.8-1.4,2.3-2.9,4.5c-1.5,2.2-3,4.2-4.5,5.9c-1.5,1.8-3.4,3.5-5.5,5.2c-2.2,1.7-4.3,2.8-6.3,3.3
		c-0.9,0-1.8-0.1-2.7-0.4c-1.7-0.6-2.6-1.9-2.7-3.9c-0.1-2.4,2-5.4,6.4-8.9c4.4-3.5,7.7-5.3,10-5.4c0.3,0,0.5,0,0.5,0.2
		c0,0.1-0.2,0.4-0.6,0.7c-3.5,2.6-6.7,5.5-9.5,8.5c-2.8,3-4.2,5.1-4.2,6.4c0,0.2,0.1,0.2,0.4,0.2c0.3,0,0.8-0.3,1.6-0.9
		c1.9-1.5,4.7-4.3,8.2-8.2c3.9-4.7,6.2-7.7,7.1-9c1.5-2.3,3.4-4.7,5.5-7.2l1.2-1.4c0-0.1,0.1-0.2,0.2-0.3c0.1-0.1,0.2-0.2,0.3-0.5
		c0.3-0.6,0.4-0.8,0.4-0.8c-0.1,0-0.4,0.2-0.8,0.7c-0.4,0.4-1,1-1.7,1.8c-0.7,0.8-2,1.8-3.8,3.2c-1.8,1.3-3.3,2-4.4,2.1
		c-1.1,0.1-2-0.3-2.7-1c-0.7-0.7-1-1.5-1.1-2.4c0-0.9,0.4-2.2,1.5-4c1-1.8,2.4-3.7,4-5.8c1.7-2.1,3.9-4.1,6.6-5.9
		c2.7-1.8,5.5-3,8.5-3.5c1.7,0.3,2.9,0.9,3.4,1.7c0.1,0,0.2-0.1,0.5-0.1C160.6,108.5,161,108.7,161.6,109.2 M142.7,123.4
		c1.1-0.1,2.9-1.2,5.6-3.3c2.6-2.1,5-4.1,7.1-6.1c2.1-2,3.2-3.2,3.2-3.5c0-0.1-0.1-0.1-0.3-0.1c-2.2,0.6-4.6,1.8-7.2,3.8
		c-2.6,2-4.7,3.9-6.3,5.7c-1.6,1.8-2.4,2.9-2.4,3.4C142.4,123.4,142.5,123.5,142.7,123.4"/>
	<path class="st2" d="M159.9,115.9c2.2-1.7,4.6-3.5,7-5.5c-1.4-0.9-2.3-1.7-2.7-2.6c-0.1-0.3-0.2-0.5-0.2-0.6c0-0.8,0.2-1.4,0.7-1.7
		c0.5-0.3,1.4-0.5,2.6-0.5c0.5,0,1.9,0.5,4.2,1.5c2.3,1,3.8,1.5,4.4,1.5c0.6,0,1.5-0.2,2.5-0.7c1.1-0.4,1.9-0.6,2.6-0.7
		c0.7,0,1.1,0.1,1.4,0.4c1.1,1.3,1.7,2.2,1.7,2.5c0,0.3-0.1,0.5-0.4,0.7c-0.3,0.2-1.1,0.8-2.5,1.9c-1.4,1.1-2.8,2.2-4.1,3.3
		c-1.3,1.1-2.6,2.4-3.7,3.7c-1.2,1.4-1.7,2.4-1.7,3.2c0,0.1,0.1,0.2,0.3,0.2c2.3-0.1,9.7-5.1,22.3-14.9c0.3,0,0.5,0.2,0.5,0.8
		c0,0.5-1.6,2.4-4.7,5.7c-3.2,3.2-6.8,6.4-10.8,9.6c-4,3.2-7,4.8-8.9,4.9c-2.9,0.1-4.5-1.3-4.6-4.2c-0.1-1.6,0.4-3.2,1.4-4.7
		c1-1.5,3.2-3.7,6.5-6.3c-0.7,0-1.7-0.1-2.9-0.4c-1.2-0.3-2-0.7-2.4-1.2c-1,1-2.9,2.7-5.4,5.1c-0.6,0.5-1.4,0.8-2.4,0.8
		c-1,0-1.5-0.1-1.5-0.4C158.9,117,159.3,116.5,159.9,115.9"/>
	<path class="st2" d="M195.4,123.5l0.3-4.1c0-0.1,0-0.2-0.1-0.2c-0.1,0-0.2,0.1-0.3,0.3c-0.5,0.6-1.2,1.4-2,2.3
		c-0.8,0.9-2.2,2.1-4.2,3.7c-2,1.5-3.6,2.3-4.9,2.4c-0.2,0-0.5-0.1-0.8-0.2c-0.3-0.1-0.7-0.4-1.3-1c-0.5-0.6-0.8-1.4-0.9-2.5
		c-0.1-1.1,0.7-2.8,2.3-5.1c1.6-2.3,3.4-4.6,5.7-6.9c2.2-2.3,4.7-4.3,7.5-6c2.8-1.7,5.2-2.6,7.3-2.7c0.8,0,1.5,0.5,2,1.6
		c0.4-0.4,0.8-0.7,1.1-0.7c0.3,0,0.7,0.2,1.2,0.7c0.3,0,0.5,0.2,0.8,0.4c0.3,0.2,0.4,0.5,0.4,1c0,0.4-0.3,0.9-0.8,1.4
		c-0.8,1.1-1.8,2.4-2.9,3.9c-1.1,1.4-1.9,2.5-2.4,3.1c-0.5,0.6-1,1.3-1.5,2.1c-0.9,1.3-1.3,2.4-1.4,3.2c4.2-2.3,10.7-7,19.6-14.2
		c0.4,0.3,0.6,0.6,0.6,1c0,0.4-0.1,0.8-0.5,1.1c-0.3,0.3-0.7,0.7-1.2,1.1c-0.5,0.4-1.4,1.3-2.8,2.6c-1.4,1.3-2.7,2.5-4,3.7
		c-1.3,1.2-2.7,2.5-4.4,3.9c-1.6,1.4-3.1,2.7-4.4,3.7c-3.1,2.5-5.1,3.7-5.9,3.7c-0.8,0-1.4-0.2-1.7-0.7
		C195.7,125.7,195.5,124.8,195.4,123.5 M188.8,121.1c0.5,0,2-1.1,4.5-3.3c2.5-2.2,4.8-4.4,7.1-6.5l3.4-3.3c0.2-0.2,0.2-0.3,0.2-0.4
		c0-0.1-0.1-0.1-0.2-0.1c-1.6,0.1-3.6,1.1-6.1,3c-2.5,1.9-4.6,4-6.4,6.1c-1.8,2.1-2.6,3.5-2.6,4.3
		C188.7,121.1,188.8,121.1,188.8,121.1"/>
	<path class="st2" d="M230.4,95.9c0.5,0,1,0.3,1.6,1c0.6,0.7,0.9,1.2,0.9,1.5c0,0.3,0,0.6-0.2,0.7c-2.8,2.7-5.5,5.4-8.1,8.3
		c-2.6,2.9-4.5,5.1-5.8,6.7l-1.8,2.4c-0.3,0.4-0.5,0.6-0.5,0.7c0,0.1,0,0.2,0.1,0.2c0.1,0,0.2-0.1,0.3-0.2l0.5-0.5
		c6.6-6.5,11.8-9.8,15.7-10c0.5,0,1,0.1,1.4,0.4c1.5,1.1,2.3,2.4,2.3,3.9c0.1,1.5-0.9,3.4-2.9,5.9c-2,2.4-4.5,4.6-7.6,6.5
		c-3,1.9-5.6,2.9-7.7,3c-2.1,0.1-3.5-0.4-4.2-1.4l-0.7-1c0,0-0.1-0.1-0.2-0.1c-0.9,0-3.8,3.1-8.8,9.3c-4.9,6.1-8.1,10.5-9.4,13.3
		c-0.1,0.8-0.5,1.2-1,1.2c-0.2,0-0.5-0.1-0.7-0.2l-2.9-2.1c-0.2-0.1-0.3-0.3-0.3-0.6c0-0.5,3-4.8,9-12.8c6-8,12.3-16,18.9-24
		C225.2,100,229.1,96,230.4,95.9 M215.6,123.3c1.4-0.1,3.5-1,6.2-2.7c2.8-1.7,5.2-3.6,7.4-5.6c2.2-2,3.2-3.4,3.2-4.1
		c0-0.1-0.1-0.2-0.2-0.2c-0.9,0-2.8,1.1-5.7,3.1c-2.9,2-5.5,4-8,6.1c-2.4,2-3.6,3.1-3.6,3.3C214.9,123.2,215.1,123.3,215.6,123.3"/>
	<path class="st2" d="M251.8,118.2c0.2,0,0.5-0.2,1-0.4c6.1-3.7,12.8-8.5,20.1-14.4c0.4,0.3,0.6,0.6,0.6,1c0,0.4-0.2,0.8-0.6,1.2
		c-0.4,0.4-1,1-1.7,1.7c-0.7,0.8-2.2,2.1-4.3,4.1c-2.1,2-4.1,3.7-5.9,5.3c-4.8,4.2-8.3,6.8-10.6,7.6c-0.7,0.2-1.6,0.4-2.4,0.4
		c-1.4,0.1-2.2-1-2.3-3.2c0-0.8,0.4-2,1.2-3.8c0.8-1.8,1.2-3.1,1.2-3.9c0-0.1-0.1-0.1-0.2-0.1c-0.1,0-0.4,0.2-0.9,0.6
		c-5.6,4.8-9,8.1-10.2,10c-0.2,0.4-0.6,0.6-1,0.6c-0.9,0-1.5-0.4-1.8-1.2c-0.1-1.3,1.6-4.5,4.9-9.8c3.3-5.3,7.2-10.9,11.8-16.8
		c4.5-5.9,8.3-10,11.2-12.5c0.8-0.9,2.9-1.4,6.1-1.5c0.5,0.1,0.8,0.3,0.8,0.6c0,0.3-0.1,0.6-0.4,0.9c-11.6,12.3-18.9,20.7-21.9,25.4
		c-0.2,0.2-0.4,0.5-0.6,0.9c-0.3,0.5-0.4,0.7-0.4,0.9l0.1,0.1c0.2,0,1.5-1,3.8-3c2.4-2,4.2-3.4,5.4-4.3c0.4-0.4,1.1-0.6,2.4-0.7
		c1.1,0.1,1.6,0.4,1.6,0.9c0,0.2,0,0.3-0.1,0.4c-2.9,4.6-4.6,7.5-5.2,8.7c-1.2,2-1.7,3.4-1.7,4C251.5,118.2,251.6,118.2,251.8,118.2
		"/>
	<path class="st2" d="M285.2,101.5c2,0.1,3,0.5,3,1.2c0,0.3-0.1,0.6-0.5,1c-5.6,6.9-12,15.6-19.3,26.2c-2.1,3.1-4.2,6.1-6.4,8.9
		c-2.2,2.8-4.3,4.9-6.2,6.2c-2,1.3-4,2.1-6.2,2.2c-1.1,0.1-2.1-0.2-2.9-0.7c-0.9-0.6-1.3-1.3-1.4-2.3c-0.1-2.4,0.9-4.8,3.1-7.5
		c2.1-2.6,4.6-4.8,7.3-6.5c2.7-1.7,5.1-2.7,7.2-3.1l1.3,0.1c0.4-0.1,1.9-1.8,4.4-5.1c2.5-3.3,3.8-5.1,3.8-5.3c0-0.2,0-0.3-0.1-0.3
		l-1.2,1c-3,3.1-5.4,4.7-7.2,4.8c-1.1,0.1-1.7-0.7-1.8-2.3c-0.1-2.1,1.5-5.6,4.8-10.4c3.3-4.8,5.7-7.2,7.4-7.3c0.1,0,0.3,0,0.4,0.1
		c1.2,0.2,1.8,0.6,1.8,1.2c0,0.2,0,0.4-0.1,0.5c-0.1,0.1-0.5,0.5-1.2,1.3c-0.7,0.8-1.4,1.5-2.1,2.3c-0.7,0.8-1.4,1.7-2.2,2.7
		c-1.7,2.2-2.5,3.8-2.5,4.9c0,0.3,0.2,0.4,0.4,0.4c0.3,0,0.8-0.3,1.5-0.8c5.8-4.4,10.3-8.5,13.5-12.3
		C284.2,101.9,284.6,101.5,285.2,101.5 M248.6,144.4c1.4-0.5,3.4-2.1,5.7-4.6c2.4-2.5,4.4-4.9,6-7.1l2.5-3.4
		c0.2-0.4,0.4-0.6,0.3-0.7c0-0.1-0.1-0.1-0.2-0.1c-1.3,0.1-3.2,1.2-5.6,3.4c-2.4,2.2-4.5,4.5-6.4,7.1c-1.8,2.5-2.7,4.3-2.7,5.3
		C248.4,144.4,248.5,144.4,248.6,144.4"/>
</g>
</svg>
